<ttFont>
    <TTGlyph name=".notdef" xMin="77" yMin="-220" xMax="568" yMax="1030">
      <contour>
        <pt x="77" y="1030" on="1"/>
        <pt x="568" y="1030" on="1"/>
        <pt x="568" y="-220" on="1"/>
        <pt x="77" y="-220" on="1"/>
      </contour>
      <contour>
        <pt x="471" y="-129" on="1"/>
        <pt x="471" y="940" on="1"/>
        <pt x="173" y="940" on="1"/>
        <pt x="173" y="-129" on="1"/>
      </contour>
    </TTGlyph>
    <TTGlyph name="A" xMin="3" yMin="0" xMax="580" yMax="740">
      <contour>
        <pt x="3" y="6" on="1"/>
        <pt x="205" y="740" on="1"/>
        <pt x="378" y="740" on="1"/>
        <pt x="580" y="6" on="1"/>
        <pt x="580" y="0" on="1"/>
        <pt x="471" y="0" on="1"/>
        <pt x="412" y="204" on="1"/>
        <pt x="170" y="204" on="1"/>
        <pt x="113" y="0" on="1"/>
        <pt x="3" y="0" on="1"/>
      </contour>
      <contour>
        <pt x="390" y="299" on="1"/>
        <pt x="323" y="537" on="1"/>
        <pt x="296" y="646" on="1"/>
        <pt x="287" y="646" on="1"/>
        <pt x="259" y="537" on="1"/>
        <pt x="193" y="299" on="1"/>
      </contour>
    </TTGlyph>
    <TTGlyph name="A.sc" xMin="6" yMin="0" xMax="527" yMax="577">
      <contour>
        <pt x="6" y="5" on="1"/>
        <pt x="185" y="577" on="1"/>
        <pt x="349" y="577" on="1"/>
        <pt x="527" y="5" on="1"/>
        <pt x="527" y="0" on="1"/>
        <pt x="422" y="0" on="1"/>
        <pt x="374" y="146" on="1"/>
        <pt x="159" y="146" on="1"/>
        <pt x="111" y="0" on="1"/>
        <pt x="6" y="0" on="1"/>
      </contour>
      <contour>
        <pt x="355" y="224" on="1"/>
        <pt x="295" y="410" on="1"/>
        <pt x="271" y="493" on="1"/>
        <pt x="262" y="493" on="1"/>
        <pt x="239" y="410" on="1"/>
        <pt x="177" y="224" on="1"/>
      </contour>
    </TTGlyph>
    <TTGlyph name="AE" xMin="1" yMin="0" xMax="752" yMax="740">
      <contour>
        <pt x="1" y="6" on="1"/>
        <pt x="230" y="740" on="1"/>
        <pt x="743" y="740" on="1"/>
        <pt x="743" y="641" on="1"/>
        <pt x="475" y="641" on="1"/>
        <pt x="487" y="422" on="1"/>
        <pt x="724" y="422" on="1"/>
        <pt x="724" y="323" on="1"/>
        <pt x="492" y="323" on="1"/>
        <pt x="505" y="99" on="1"/>
        <pt x="752" y="99" on="1"/>
        <pt x="752" y="0" on="1"/>
        <pt x="392" y="0" on="1"/>
        <pt x="384" y="201" on="1"/>
        <pt x="182" y="201" on="1"/>
        <pt x="120" y="0" on="1"/>
        <pt x="1" y="0" on="1"/>
      </contour>
      <contour>
        <pt x="213" y="301" on="1"/>
        <pt x="380" y="301" on="1"/>
        <pt x="366" y="647" on="1"/>
        <pt x="320" y="647" on="1"/>
      </contour>
    </TTGlyph>
    <TTGlyph name="AE.sc" xMin="7" yMin="0" xMax="682" yMax="577">
      <contour>
        <pt x="7" y="5" on="1"/>
        <pt x="211" y="577" on="1"/>
        <pt x="675" y="577" on="1"/>
        <pt x="675" y="487" on="1"/>
        <pt x="438" y="487" on="1"/>
        <pt x="447" y="334" on="1"/>
        <pt x="657" y="334" on="1"/>
        <pt x="657" y="247" on="1"/>
        <pt x="455" y="247" on="1"/>
        <pt x="464" y="91" on="1"/>
        <pt x="682" y="91" on="1"/>
        <pt x="682" y="0" on="1"/>
        <pt x="357" y="0" on="1"/>
        <pt x="351" y="146" on="1"/>
        <pt x="172" y="146" on="1"/>
        <pt x="120" y="0" on="1"/>
        <pt x="7" y="0" on="1"/>
      </contour>
      <contour>
        <pt x="200" y="229" on="1"/>
        <pt x="346" y="229" on="1"/>
        <pt x="335" y="492" on="1"/>
        <pt x="295" y="492" on="1"/>
      </contour>
    </TTGlyph>
    <TTGlyph name="AEacute" xMin="1" yMin="0" xMax="752" yMax="950">
      <contour>
        <pt x="417" y="794" on="1"/>
        <pt x="488" y="950" on="1"/>
        <pt x="606" y="950" on="1"/>
        <pt x="502" y="787" on="1"/>
      </contour>
      <contour>
        <pt x="1" y="6" on="1"/>
        <pt x="230" y="740" on="1"/>
        <pt x="743" y="740" on="1"/>
        <pt x="743" y="641" on="1"/>
        <pt x="475" y="641" on="1"/>
        <pt x="487" y="422" on="1"/>
        <pt x="724" y="422" on="1"/>
        <pt x="724" y="323" on="1"/>
        <pt x="492" y="323" on="1"/>
        <pt x="505" y="99" on="1"/>
        <pt x="752" y="99" on="1"/>
        <pt x="752" y="0" on="1"/>
        <pt x="392" y="0" on="1"/>
        <pt x="384" y="201" on="1"/>
        <pt x="182" y="201" on="1"/>
        <pt x="120" y="0" on="1"/>
        <pt x="1" y="0" on="1"/>
      </contour>
      <contour>
        <pt x="213" y="301" on="1"/>
        <pt x="380" y="301" on="1"/>
        <pt x="366" y="647" on="1"/>
        <pt x="320" y="647" on="1"/>
      </contour>
    </TTGlyph>
    <TTGlyph name="AEacute.sc" xMin="7" yMin="0" xMax="682" yMax="751">
      <contour>
        <pt x="7" y="5" on="1"/>
        <pt x="211" y="577" on="1"/>
        <pt x="675" y="577" on="1"/>
        <pt x="675" y="487" on="1"/>
        <pt x="438" y="487" on="1"/>
        <pt x="447" y="334" on="1"/>
        <pt x="657" y="334" on="1"/>
        <pt x="657" y="247" on="1"/>
        <pt x="455" y="247" on="1"/>
        <pt x="464" y="91" on="1"/>
        <pt x="682" y="91" on="1"/>
        <pt x="682" y="0" on="1"/>
        <pt x="357" y="0" on="1"/>
        <pt x="351" y="146" on="1"/>
        <pt x="172" y="146" on="1"/>
        <pt x="120" y="0" on="1"/>
        <pt x="7" y="0" on="1"/>
      </contour>
      <contour>
        <pt x="346" y="229" on="1"/>
        <pt x="335" y="492" on="1"/>
        <pt x="295" y="492" on="1"/>
        <pt x="200" y="229" on="1"/>
      </contour>
      <contour>
        <pt x="376" y="621" on="1"/>
        <pt x="438" y="751" on="1"/>
        <pt x="549" y="751" on="1"/>
        <pt x="455" y="616" on="1"/>
      </contour>
    </TTGlyph>
    <TTGlyph name="Aacute" xMin="3" yMin="0" xMax="580" yMax="950">
      <contour>
        <pt x="3" y="6" on="1"/>
        <pt x="205" y="740" on="1"/>
        <pt x="378" y="740" on="1"/>
        <pt x="580" y="6" on="1"/>
        <pt x="580" y="0" on="1"/>
        <pt x="471" y="0" on="1"/>
        <pt x="412" y="204" on="1"/>
        <pt x="170" y="204" on="1"/>
        <pt x="113" y="0" on="1"/>
        <pt x="3" y="0" on="1"/>
      </contour>
      <contour>
        <pt x="390" y="299" on="1"/>
        <pt x="323" y="537" on="1"/>
        <pt x="296" y="646" on="1"/>
        <pt x="287" y="646" on="1"/>
        <pt x="259" y="537" on="1"/>
        <pt x="193" y="299" on="1"/>
      </contour>
      <contour>
        <pt x="245" y="794" on="1"/>
        <pt x="316" y="950" on="1"/>
        <pt x="434" y="950" on="1"/>
        <pt x="330" y="787" on="1"/>
      </contour>
    </TTGlyph>
    <TTGlyph name="Aacute.sc" xMin="6" yMin="0" xMax="527" yMax="751">
      <contour>
        <pt x="6" y="5" on="1"/>
        <pt x="185" y="577" on="1"/>
        <pt x="349" y="577" on="1"/>
        <pt x="527" y="5" on="1"/>
        <pt x="527" y="0" on="1"/>
        <pt x="422" y="0" on="1"/>
        <pt x="374" y="146" on="1"/>
        <pt x="159" y="146" on="1"/>
        <pt x="111" y="0" on="1"/>
        <pt x="6" y="0" on="1"/>
      </contour>
      <contour>
        <pt x="355" y="224" on="1"/>
        <pt x="295" y="410" on="1"/>
        <pt x="271" y="493" on="1"/>
        <pt x="262" y="493" on="1"/>
        <pt x="239" y="410" on="1"/>
        <pt x="177" y="224" on="1"/>
      </contour>
      <contour>
        <pt x="223" y="621" on="1"/>
        <pt x="285" y="751" on="1"/>
        <pt x="396" y="751" on="1"/>
        <pt x="303" y="616" on="1"/>
      </contour>
    </TTGlyph>
    <TTGlyph name="Abreve" xMin="3" yMin="0" xMax="580" yMax="962">
      <contour>
        <pt x="3" y="6" on="1"/>
        <pt x="205" y="740" on="1"/>
        <pt x="378" y="740" on="1"/>
        <pt x="580" y="6" on="1"/>
        <pt x="580" y="0" on="1"/>
        <pt x="471" y="0" on="1"/>
        <pt x="412" y="204" on="1"/>
        <pt x="170" y="204" on="1"/>
        <pt x="113" y="0" on="1"/>
        <pt x="3" y="0" on="1"/>
      </contour>
      <contour>
        <pt x="390" y="299" on="1"/>
        <pt x="323" y="537" on="1"/>
        <pt x="296" y="646" on="1"/>
        <pt x="287" y="646" on="1"/>
        <pt x="259" y="537" on="1"/>
        <pt x="193" y="299" on="1"/>
      </contour>
      <contour>
        <pt x="293" y="803" on="1"/>
        <pt x="215" y="803" on="0"/>
        <pt x="130" y="887" on="0"/>
        <pt x="130" y="962" on="1"/>
        <pt x="212" y="962" on="1"/>
        <pt x="212" y="911" on="0"/>
        <pt x="250" y="863" on="0"/>
        <pt x="293" y="863" on="1"/>
        <pt x="335" y="863" on="0"/>
        <pt x="374" y="911" on="0"/>
        <pt x="374" y="962" on="1"/>
        <pt x="456" y="962" on="1"/>
        <pt x="456" y="888" on="0"/>
        <pt x="371" y="803" on="0"/>
      </contour>
    </TTGlyph>
    <TTGlyph name="Abreve.sc" xMin="6" yMin="0" xMax="527" yMax="755">
      <contour>
        <pt x="268" y="623" on="1"/>
        <pt x="196" y="623" on="0"/>
        <pt x="120" y="693" on="0"/>
        <pt x="120" y="755" on="1"/>
        <pt x="197" y="755" on="1"/>
        <pt x="197" y="713" on="0"/>
        <pt x="230" y="677" on="0"/>
        <pt x="268" y="677" on="1"/>
        <pt x="305" y="677" on="0"/>
        <pt x="339" y="713" on="0"/>
        <pt x="339" y="755" on="1"/>
        <pt x="415" y="755" on="1"/>
        <pt x="415" y="694" on="0"/>
        <pt x="340" y="623" on="0"/>
      </contour>
      <contour>
        <pt x="6" y="5" on="1"/>
        <pt x="185" y="577" on="1"/>
        <pt x="349" y="577" on="1"/>
        <pt x="527" y="5" on="1"/>
        <pt x="527" y="0" on="1"/>
        <pt x="422" y="0" on="1"/>
        <pt x="374" y="146" on="1"/>
        <pt x="159" y="146" on="1"/>
        <pt x="111" y="0" on="1"/>
        <pt x="6" y="0" on="1"/>
      </contour>
      <contour>
        <pt x="355" y="224" on="1"/>
        <pt x="295" y="410" on="1"/>
        <pt x="271" y="493" on="1"/>
        <pt x="262" y="493" on="1"/>
        <pt x="239" y="410" on="1"/>
        <pt x="177" y="224" on="1"/>
      </contour>
    </TTGlyph>
    <TTGlyph name="Acircumflex" xMin="3" yMin="0" xMax="580" yMax="957">
      <contour>
        <pt x="3" y="6" on="1"/>
        <pt x="205" y="740" on="1"/>
        <pt x="378" y="740" on="1"/>
        <pt x="580" y="6" on="1"/>
        <pt x="580" y="0" on="1"/>
        <pt x="471" y="0" on="1"/>
        <pt x="412" y="204" on="1"/>
        <pt x="170" y="204" on="1"/>
        <pt x="113" y="0" on="1"/>
        <pt x="3" y="0" on="1"/>
      </contour>
      <contour>
        <pt x="390" y="299" on="1"/>
        <pt x="323" y="537" on="1"/>
        <pt x="296" y="646" on="1"/>
        <pt x="287" y="646" on="1"/>
        <pt x="259" y="537" on="1"/>
        <pt x="193" y="299" on="1"/>
      </contour>
      <contour>
        <pt x="146" y="886" on="1"/>
        <pt x="293" y="957" on="1"/>
        <pt x="439" y="886" on="1"/>
        <pt x="439" y="802" on="1"/>
        <pt x="293" y="874" on="1"/>
        <pt x="146" y="802" on="1"/>
      </contour>
    </TTGlyph>
    <TTGlyph name="Acircumflex.sc" xMin="6" yMin="0" xMax="527" yMax="753">
      <contour>
        <pt x="6" y="5" on="1"/>
        <pt x="185" y="577" on="1"/>
        <pt x="349" y="577" on="1"/>
        <pt x="527" y="5" on="1"/>
        <pt x="527" y="0" on="1"/>
        <pt x="422" y="0" on="1"/>
        <pt x="374" y="146" on="1"/>
        <pt x="159" y="146" on="1"/>
        <pt x="111" y="0" on="1"/>
        <pt x="6" y="0" on="1"/>
      </contour>
      <contour>
        <pt x="355" y="224" on="1"/>
        <pt x="295" y="410" on="1"/>
        <pt x="271" y="493" on="1"/>
        <pt x="262" y="493" on="1"/>
        <pt x="239" y="410" on="1"/>
        <pt x="177" y="224" on="1"/>
      </contour>
      <contour>
        <pt x="135" y="697" on="1"/>
        <pt x="269" y="753" on="1"/>
        <pt x="401" y="697" on="1"/>
        <pt x="401" y="622" on="1"/>
        <pt x="268" y="678" on="1"/>
        <pt x="135" y="622" on="1"/>
      </contour>
    </TTGlyph>
    <TTGlyph name="Adblgrave" xMin="3" yMin="0" xMax="580" yMax="950">
      <contour>
        <pt x="3" y="6" on="1"/>
        <pt x="205" y="740" on="1"/>
        <pt x="378" y="740" on="1"/>
        <pt x="580" y="6" on="1"/>
        <pt x="580" y="0" on="1"/>
        <pt x="471" y="0" on="1"/>
        <pt x="412" y="204" on="1"/>
        <pt x="170" y="204" on="1"/>
        <pt x="113" y="0" on="1"/>
        <pt x="3" y="0" on="1"/>
      </contour>
      <contour>
        <pt x="390" y="299" on="1"/>
        <pt x="323" y="537" on="1"/>
        <pt x="296" y="646" on="1"/>
        <pt x="287" y="646" on="1"/>
        <pt x="259" y="537" on="1"/>
        <pt x="193" y="299" on="1"/>
      </contour>
      <contour>
        <pt x="185" y="787" on="1"/>
        <pt x="80" y="950" on="1"/>
        <pt x="179" y="950" on="1"/>
        <pt x="250" y="799" on="1"/>
      </contour>
      <contour>
        <pt x="348" y="787" on="1"/>
        <pt x="243" y="950" on="1"/>
        <pt x="342" y="950" on="1"/>
        <pt x="413" y="799" on="1"/>
      </contour>
    </TTGlyph>
    <TTGlyph name="Adblgrave.sc" xMin="6" yMin="0" xMax="527" yMax="751">
      <contour>
        <pt x="6" y="5" on="1"/>
        <pt x="185" y="577" on="1"/>
        <pt x="349" y="577" on="1"/>
        <pt x="527" y="5" on="1"/>
        <pt x="527" y="0" on="1"/>
        <pt x="422" y="0" on="1"/>
        <pt x="374" y="146" on="1"/>
        <pt x="159" y="146" on="1"/>
        <pt x="111" y="0" on="1"/>
        <pt x="6" y="0" on="1"/>
      </contour>
      <contour>
        <pt x="355" y="224" on="1"/>
        <pt x="295" y="410" on="1"/>
        <pt x="271" y="493" on="1"/>
        <pt x="262" y="493" on="1"/>
        <pt x="239" y="410" on="1"/>
        <pt x="177" y="224" on="1"/>
      </contour>
      <contour>
        <pt x="74" y="751" on="1"/>
        <pt x="168" y="751" on="1"/>
        <pt x="230" y="624" on="1"/>
        <pt x="168" y="615" on="1"/>
      </contour>
      <contour>
        <pt x="222" y="751" on="1"/>
        <pt x="316" y="751" on="1"/>
        <pt x="378" y="624" on="1"/>
        <pt x="316" y="615" on="1"/>
      </contour>
    </TTGlyph>
    <TTGlyph name="Adieresis" xMin="3" yMin="0" xMax="580" yMax="936">
      <contour>
        <pt x="3" y="6" on="1"/>
        <pt x="205" y="740" on="1"/>
        <pt x="378" y="740" on="1"/>
        <pt x="580" y="6" on="1"/>
        <pt x="580" y="0" on="1"/>
        <pt x="471" y="0" on="1"/>
        <pt x="412" y="204" on="1"/>
        <pt x="170" y="204" on="1"/>
        <pt x="113" y="0" on="1"/>
        <pt x="3" y="0" on="1"/>
      </contour>
      <contour>
        <pt x="390" y="299" on="1"/>
        <pt x="323" y="537" on="1"/>
        <pt x="296" y="646" on="1"/>
        <pt x="287" y="646" on="1"/>
        <pt x="259" y="537" on="1"/>
        <pt x="193" y="299" on="1"/>
      </contour>
      <contour>
        <pt x="183" y="806" on="1"/>
        <pt x="149" y="806" on="0"/>
        <pt x="116" y="837" on="0"/>
        <pt x="116" y="872" on="1"/>
        <pt x="116" y="906" on="0"/>
        <pt x="149" y="936" on="0"/>
        <pt x="183" y="936" on="1"/>
        <pt x="216" y="936" on="0"/>
        <pt x="250" y="906" on="0"/>
        <pt x="250" y="872" on="1"/>
        <pt x="250" y="837" on="0"/>
        <pt x="216" y="806" on="0"/>
      </contour>
      <contour>
        <pt x="399" y="806" on="1"/>
        <pt x="365" y="806" on="0"/>
        <pt x="333" y="837" on="0"/>
        <pt x="333" y="872" on="1"/>
        <pt x="333" y="906" on="0"/>
        <pt x="365" y="936" on="0"/>
        <pt x="399" y="936" on="1"/>
        <pt x="432" y="936" on="0"/>
        <pt x="467" y="906" on="0"/>
        <pt x="467" y="872" on="1"/>
        <pt x="467" y="837" on="0"/>
        <pt x="432" y="806" on="0"/>
      </contour>
    </TTGlyph>
    <TTGlyph name="Adieresis.sc" xMin="6" yMin="0" xMax="527" yMax="746">
      <contour>
        <pt x="169" y="627" on="1"/>
        <pt x="137" y="627" on="0"/>
        <pt x="107" y="655" on="0"/>
        <pt x="107" y="687" on="1"/>
        <pt x="107" y="719" on="0"/>
        <pt x="137" y="746" on="0"/>
        <pt x="169" y="746" on="1"/>
        <pt x="232" y="746" on="0"/>
        <pt x="232" y="687" on="1"/>
        <pt x="232" y="655" on="0"/>
        <pt x="201" y="627" on="0"/>
      </contour>
      <contour>
        <pt x="367" y="627" on="1"/>
        <pt x="335" y="627" on="0"/>
        <pt x="304" y="655" on="0"/>
        <pt x="304" y="687" on="1"/>
        <pt x="304" y="719" on="0"/>
        <pt x="335" y="746" on="0"/>
        <pt x="367" y="746" on="1"/>
        <pt x="429" y="746" on="0"/>
        <pt x="429" y="687" on="1"/>
        <pt x="429" y="655" on="0"/>
        <pt x="398" y="627" on="0"/>
      </contour>
      <contour>
        <pt x="6" y="5" on="1"/>
        <pt x="185" y="577" on="1"/>
        <pt x="349" y="577" on="1"/>
        <pt x="527" y="5" on="1"/>
        <pt x="527" y="0" on="1"/>
        <pt x="422" y="0" on="1"/>
        <pt x="374" y="146" on="1"/>
        <pt x="159" y="146" on="1"/>
        <pt x="111" y="0" on="1"/>
        <pt x="6" y="0" on="1"/>
      </contour>
      <contour>
        <pt x="355" y="224" on="1"/>
        <pt x="295" y="410" on="1"/>
        <pt x="271" y="493" on="1"/>
        <pt x="262" y="493" on="1"/>
        <pt x="239" y="410" on="1"/>
        <pt x="177" y="224" on="1"/>
      </contour>
    </TTGlyph>
    <TTGlyph name="Agrave" xMin="3" yMin="0" xMax="580" yMax="950">
      <contour>
        <pt x="3" y="6" on="1"/>
        <pt x="205" y="740" on="1"/>
        <pt x="378" y="740" on="1"/>
        <pt x="580" y="6" on="1"/>
        <pt x="580" y="0" on="1"/>
        <pt x="471" y="0" on="1"/>
        <pt x="412" y="204" on="1"/>
        <pt x="170" y="204" on="1"/>
        <pt x="113" y="0" on="1"/>
        <pt x="3" y="0" on="1"/>
      </contour>
      <contour>
        <pt x="390" y="299" on="1"/>
        <pt x="323" y="537" on="1"/>
        <pt x="296" y="646" on="1"/>
        <pt x="287" y="646" on="1"/>
        <pt x="259" y="537" on="1"/>
        <pt x="193" y="299" on="1"/>
      </contour>
      <contour>
        <pt x="246" y="787" on="1"/>
        <pt x="142" y="950" on="1"/>
        <pt x="260" y="950" on="1"/>
        <pt x="331" y="799" on="1"/>
      </contour>
    </TTGlyph>
    <TTGlyph name="Agrave.sc" xMin="6" yMin="0" xMax="527" yMax="751">
      <contour>
        <pt x="6" y="5" on="1"/>
        <pt x="185" y="577" on="1"/>
        <pt x="349" y="577" on="1"/>
        <pt x="527" y="5" on="1"/>
        <pt x="527" y="0" on="1"/>
        <pt x="422" y="0" on="1"/>
        <pt x="374" y="146" on="1"/>
        <pt x="159" y="146" on="1"/>
        <pt x="111" y="0" on="1"/>
        <pt x="6" y="0" on="1"/>
      </contour>
      <contour>
        <pt x="355" y="224" on="1"/>
        <pt x="295" y="410" on="1"/>
        <pt x="271" y="493" on="1"/>
        <pt x="262" y="493" on="1"/>
        <pt x="239" y="410" on="1"/>
        <pt x="177" y="224" on="1"/>
      </contour>
      <contour>
        <pt x="224" y="616" on="1"/>
        <pt x="131" y="751" on="1"/>
        <pt x="243" y="751" on="1"/>
        <pt x="305" y="624" on="1"/>
      </contour>
    </TTGlyph>
    <TTGlyph name="Ainvertedbreve" xMin="3" yMin="0" xMax="580" yMax="972">
      <contour>
        <pt x="3" y="6" on="1"/>
        <pt x="205" y="740" on="1"/>
        <pt x="378" y="740" on="1"/>
        <pt x="580" y="6" on="1"/>
        <pt x="580" y="0" on="1"/>
        <pt x="471" y="0" on="1"/>
        <pt x="412" y="204" on="1"/>
        <pt x="170" y="204" on="1"/>
        <pt x="113" y="0" on="1"/>
        <pt x="3" y="0" on="1"/>
      </contour>
      <contour>
        <pt x="390" y="299" on="1"/>
        <pt x="323" y="537" on="1"/>
        <pt x="296" y="646" on="1"/>
        <pt x="287" y="646" on="1"/>
        <pt x="259" y="537" on="1"/>
        <pt x="193" y="299" on="1"/>
      </contour>
      <contour>
        <pt x="374" y="813" on="1"/>
        <pt x="374" y="865" on="0"/>
        <pt x="335" y="912" on="0"/>
        <pt x="293" y="912" on="1"/>
        <pt x="250" y="912" on="0"/>
        <pt x="212" y="865" on="0"/>
        <pt x="212" y="813" on="1"/>
        <pt x="130" y="813" on="1"/>
        <pt x="130" y="888" on="0"/>
        <pt x="215" y="972" on="0"/>
        <pt x="293" y="972" on="1"/>
        <pt x="371" y="972" on="0"/>
        <pt x="456" y="888" on="0"/>
        <pt x="456" y="813" on="1"/>
      </contour>
    </TTGlyph>
    <TTGlyph name="Ainvertedbreve.sc" xMin="6" yMin="0" xMax="527" yMax="762">
      <contour>
        <pt x="121" y="631" on="1"/>
        <pt x="121" y="693" on="0"/>
        <pt x="196" y="762" on="0"/>
        <pt x="268" y="762" on="1"/>
        <pt x="340" y="762" on="0"/>
        <pt x="416" y="693" on="0"/>
        <pt x="416" y="631" on="1"/>
        <pt x="339" y="631" on="1"/>
        <pt x="339" y="673" on="0"/>
        <pt x="306" y="708" on="0"/>
        <pt x="268" y="708" on="1"/>
        <pt x="230" y="708" on="0"/>
        <pt x="198" y="673" on="0"/>
        <pt x="198" y="631" on="1"/>
      </contour>
      <contour>
        <pt x="6" y="5" on="1"/>
        <pt x="185" y="577" on="1"/>
        <pt x="349" y="577" on="1"/>
        <pt x="527" y="5" on="1"/>
        <pt x="527" y="0" on="1"/>
        <pt x="422" y="0" on="1"/>
        <pt x="374" y="146" on="1"/>
        <pt x="159" y="146" on="1"/>
        <pt x="111" y="0" on="1"/>
        <pt x="6" y="0" on="1"/>
      </contour>
      <contour>
        <pt x="355" y="224" on="1"/>
        <pt x="295" y="410" on="1"/>
        <pt x="271" y="493" on="1"/>
        <pt x="262" y="493" on="1"/>
        <pt x="239" y="410" on="1"/>
        <pt x="177" y="224" on="1"/>
      </contour>
    </TTGlyph>
    <TTGlyph name="Amacron" xMin="3" yMin="0" xMax="580" yMax="919">
      <contour>
        <pt x="3" y="6" on="1"/>
        <pt x="205" y="740" on="1"/>
        <pt x="378" y="740" on="1"/>
        <pt x="580" y="6" on="1"/>
        <pt x="580" y="0" on="1"/>
        <pt x="471" y="0" on="1"/>
        <pt x="412" y="204" on="1"/>
        <pt x="170" y="204" on="1"/>
        <pt x="113" y="0" on="1"/>
        <pt x="3" y="0" on="1"/>
      </contour>
      <contour>
        <pt x="390" y="299" on="1"/>
        <pt x="323" y="537" on="1"/>
        <pt x="296" y="646" on="1"/>
        <pt x="287" y="646" on="1"/>
        <pt x="259" y="537" on="1"/>
        <pt x="193" y="299" on="1"/>
      </contour>
      <contour>
        <pt x="148" y="919" on="1"/>
        <pt x="426" y="919" on="1"/>
        <pt x="426" y="839" on="1"/>
        <pt x="148" y="839" on="1"/>
      </contour>
    </TTGlyph>
    <TTGlyph name="Amacron.sc" xMin="6" yMin="0" xMax="527" yMax="728">
      <contour>
        <pt x="6" y="5" on="1"/>
        <pt x="185" y="577" on="1"/>
        <pt x="349" y="577" on="1"/>
        <pt x="527" y="5" on="1"/>
        <pt x="527" y="0" on="1"/>
        <pt x="422" y="0" on="1"/>
        <pt x="374" y="146" on="1"/>
        <pt x="159" y="146" on="1"/>
        <pt x="111" y="0" on="1"/>
        <pt x="6" y="0" on="1"/>
      </contour>
      <contour>
        <pt x="355" y="224" on="1"/>
        <pt x="295" y="410" on="1"/>
        <pt x="271" y="493" on="1"/>
        <pt x="262" y="493" on="1"/>
        <pt x="239" y="410" on="1"/>
        <pt x="177" y="224" on="1"/>
      </contour>
      <contour>
        <pt x="137" y="728" on="1"/>
        <pt x="392" y="728" on="1"/>
        <pt x="392" y="654" on="1"/>
        <pt x="137" y="654" on="1"/>
      </contour>
    </TTGlyph>
    <TTGlyph name="Aogonek" xMin="3" yMin="-220" xMax="580" yMax="740">
      <contour>
        <pt x="510" y="-220" on="1"/>
        <pt x="403" y="-220" on="0"/>
        <pt x="403" y="-126" on="1"/>
        <pt x="403" y="-91" on="0"/>
        <pt x="442" y="-30" on="0"/>
        <pt x="486" y="0" on="1"/>
        <pt x="471" y="0" on="1"/>
        <pt x="412" y="204" on="1"/>
        <pt x="170" y="204" on="1"/>
        <pt x="113" y="0" on="1"/>
        <pt x="3" y="0" on="1"/>
        <pt x="3" y="6" on="1"/>
        <pt x="205" y="740" on="1"/>
        <pt x="378" y="740" on="1"/>
        <pt x="580" y="6" on="1"/>
        <pt x="580" y="-12" on="1"/>
        <pt x="528" y="-32" on="0"/>
        <pt x="481" y="-90" on="0"/>
        <pt x="481" y="-116" on="1"/>
        <pt x="481" y="-149" on="0"/>
        <pt x="522" y="-149" on="1"/>
        <pt x="537" y="-149" on="0"/>
        <pt x="568" y="-142" on="0"/>
        <pt x="580" y="-137" on="1"/>
        <pt x="580" y="-208" on="1"/>
        <pt x="561" y="-214" on="0"/>
        <pt x="529" y="-220" on="0"/>
      </contour>
      <contour>
        <pt x="390" y="299" on="1"/>
        <pt x="323" y="537" on="1"/>
        <pt x="296" y="646" on="1"/>
        <pt x="287" y="646" on="1"/>
        <pt x="259" y="537" on="1"/>
        <pt x="193" y="299" on="1"/>
      </contour>
    </TTGlyph>
    <TTGlyph name="Aogonek.sc" xMin="6" yMin="-168" xMax="527" yMax="577">
      <contour>
        <pt x="463" y="-168" on="1"/>
        <pt x="365" y="-168" on="0"/>
        <pt x="365" y="-94" on="1"/>
        <pt x="365" y="-67" on="0"/>
        <pt x="396" y="-23" on="0"/>
        <pt x="430" y="0" on="1"/>
        <pt x="422" y="0" on="1"/>
        <pt x="374" y="146" on="1"/>
        <pt x="159" y="146" on="1"/>
        <pt x="110" y="0" on="1"/>
        <pt x="6" y="0" on="1"/>
        <pt x="6" y="5" on="1"/>
        <pt x="184" y="577" on="1"/>
        <pt x="349" y="577" on="1"/>
        <pt x="527" y="5" on="1"/>
        <pt x="527" y="-7" on="1"/>
        <pt x="478" y="-24" on="0"/>
        <pt x="438" y="-65" on="0"/>
        <pt x="438" y="-81" on="1"/>
        <pt x="438" y="-104" on="0"/>
        <pt x="473" y="-104" on="1"/>
        <pt x="487" y="-104" on="0"/>
        <pt x="516" y="-99" on="0"/>
        <pt x="527" y="-94" on="1"/>
        <pt x="527" y="-159" on="1"/>
        <pt x="510" y="-163" on="0"/>
        <pt x="480" y="-168" on="0"/>
      </contour>
      <contour>
        <pt x="354" y="224" on="1"/>
        <pt x="295" y="415" on="1"/>
        <pt x="271" y="493" on="1"/>
        <pt x="261" y="493" on="1"/>
        <pt x="239" y="415" on="1"/>
        <pt x="176" y="224" on="1"/>
      </contour>
    </TTGlyph>
    <TTGlyph name="Aring" xMin="3" yMin="0" xMax="580" yMax="954">
      <contour>
        <pt x="3" y="6" on="1"/>
        <pt x="205" y="740" on="1"/>
        <pt x="268" y="740" on="1"/>
        <pt x="229" y="748" on="0"/>
        <pt x="185" y="805" on="0"/>
        <pt x="185" y="845" on="1"/>
        <pt x="185" y="892" on="0"/>
        <pt x="242" y="954" on="0"/>
        <pt x="291" y="954" on="1"/>
        <pt x="340" y="954" on="0"/>
        <pt x="397" y="892" on="0"/>
        <pt x="397" y="845" on="1"/>
        <pt x="397" y="805" on="0"/>
        <pt x="352" y="748" on="0"/>
        <pt x="314" y="740" on="1"/>
        <pt x="378" y="740" on="1"/>
        <pt x="580" y="6" on="1"/>
        <pt x="580" y="0" on="1"/>
        <pt x="471" y="0" on="1"/>
        <pt x="412" y="204" on="1"/>
        <pt x="170" y="204" on="1"/>
        <pt x="113" y="0" on="1"/>
        <pt x="3" y="0" on="1"/>
      </contour>
      <contour>
        <pt x="390" y="299" on="1"/>
        <pt x="323" y="537" on="1"/>
        <pt x="296" y="646" on="1"/>
        <pt x="287" y="646" on="1"/>
        <pt x="259" y="537" on="1"/>
        <pt x="193" y="299" on="1"/>
      </contour>
      <contour>
        <pt x="291" y="786" on="1"/>
        <pt x="320" y="786" on="0"/>
        <pt x="346" y="817" on="0"/>
        <pt x="346" y="845" on="1"/>
        <pt x="346" y="906" on="0"/>
        <pt x="291" y="906" on="1"/>
        <pt x="262" y="906" on="0"/>
        <pt x="236" y="874" on="0"/>
        <pt x="236" y="845" on="1"/>
        <pt x="236" y="817" on="0"/>
        <pt x="262" y="786" on="0"/>
      </contour>
    </TTGlyph>
    <TTGlyph name="Aring.sc" xMin="6" yMin="0" xMax="527" yMax="783">
      <contour>
        <pt x="6" y="5" on="1"/>
        <pt x="185" y="577" on="1"/>
        <pt x="349" y="577" on="1"/>
        <pt x="527" y="5" on="1"/>
        <pt x="527" y="0" on="1"/>
        <pt x="422" y="0" on="1"/>
        <pt x="374" y="146" on="1"/>
        <pt x="159" y="146" on="1"/>
        <pt x="111" y="0" on="1"/>
        <pt x="6" y="0" on="1"/>
      </contour>
      <contour>
        <pt x="355" y="224" on="1"/>
        <pt x="295" y="410" on="1"/>
        <pt x="271" y="493" on="1"/>
        <pt x="262" y="493" on="1"/>
        <pt x="239" y="410" on="1"/>
        <pt x="177" y="224" on="1"/>
      </contour>
      <contour>
        <pt x="265" y="611" on="1"/>
        <pt x="222" y="611" on="0"/>
        <pt x="169" y="660" on="0"/>
        <pt x="169" y="696" on="1"/>
        <pt x="169" y="734" on="0"/>
        <pt x="222" y="783" on="0"/>
        <pt x="265" y="783" on="1"/>
        <pt x="310" y="783" on="0"/>
        <pt x="361" y="734" on="0"/>
        <pt x="361" y="696" on="1"/>
        <pt x="361" y="660" on="0"/>
        <pt x="310" y="611" on="0"/>
      </contour>
      <contour>
        <pt x="265" y="652" on="1"/>
        <pt x="315" y="652" on="0"/>
        <pt x="315" y="696" on="1"/>
        <pt x="315" y="742" on="0"/>
        <pt x="265" y="742" on="1"/>
        <pt x="239" y="742" on="0"/>
        <pt x="217" y="719" on="0"/>
        <pt x="217" y="696" on="1"/>
        <pt x="217" y="674" on="0"/>
        <pt x="239" y="652" on="0"/>
      </contour>
    </TTGlyph>
    <TTGlyph name="Aringacute" xMin="3" yMin="0" xMax="580" yMax="971">
      <contour>
        <pt x="3" y="6" on="1"/>
        <pt x="188" y="656" on="1"/>
        <pt x="173" y="672" on="0"/>
        <pt x="159" y="714" on="0"/>
        <pt x="159" y="740" on="1"/>
        <pt x="159" y="788" on="0"/>
        <pt x="212" y="857" on="0"/>
        <pt x="260" y="865" on="1"/>
        <pt x="313" y="971" on="1"/>
        <pt x="431" y="971" on="1"/>
        <pt x="354" y="853" on="1"/>
        <pt x="387" y="839" on="0"/>
        <pt x="423" y="778" on="0"/>
        <pt x="423" y="740" on="1"/>
        <pt x="423" y="690" on="0"/>
        <pt x="395" y="659" on="1"/>
        <pt x="580" y="6" on="1"/>
        <pt x="580" y="0" on="1"/>
        <pt x="470" y="0" on="1"/>
        <pt x="413" y="201" on="1"/>
        <pt x="169" y="201" on="1"/>
        <pt x="112" y="0" on="1"/>
        <pt x="3" y="0" on="1"/>
      </contour>
      <contour>
        <pt x="290" y="674" on="1"/>
        <pt x="319" y="674" on="0"/>
        <pt x="353" y="711" on="0"/>
        <pt x="353" y="740" on="1"/>
        <pt x="353" y="769" on="0"/>
        <pt x="319" y="806" on="0"/>
        <pt x="290" y="806" on="1"/>
        <pt x="261" y="806" on="0"/>
        <pt x="228" y="769" on="0"/>
        <pt x="228" y="740" on="1"/>
        <pt x="228" y="711" on="0"/>
        <pt x="261" y="674" on="0"/>
      </contour>
      <contour>
        <pt x="388" y="301" on="1"/>
        <pt x="325" y="537" on="1"/>
        <pt x="307" y="609" on="1"/>
        <pt x="276" y="609" on="1"/>
        <pt x="259" y="537" on="1"/>
        <pt x="193" y="301" on="1"/>
      </contour>
    </TTGlyph>
    <TTGlyph name="Aringacute.sc" xMin="6" yMin="0" xMax="527" yMax="773">
      <contour>
        <pt x="6" y="5" on="1"/>
        <pt x="170" y="517" on="1"/>
        <pt x="144" y="543" on="0"/>
        <pt x="144" y="582" on="1"/>
        <pt x="144" y="623" on="0"/>
        <pt x="192" y="679" on="0"/>
        <pt x="237" y="686" on="1"/>
        <pt x="282" y="773" on="1"/>
        <pt x="393" y="773" on="1"/>
        <pt x="325" y="674" on="1"/>
        <pt x="354" y="662" on="0"/>
        <pt x="386" y="614" on="0"/>
        <pt x="386" y="582" on="1"/>
        <pt x="386" y="543" on="0"/>
        <pt x="363" y="519" on="1"/>
        <pt x="527" y="5" on="1"/>
        <pt x="527" y="0" on="1"/>
        <pt x="422" y="0" on="1"/>
        <pt x="373" y="146" on="1"/>
        <pt x="158" y="146" on="1"/>
        <pt x="110" y="0" on="1"/>
        <pt x="6" y="0" on="1"/>
      </contour>
      <contour>
        <pt x="265" y="531" on="1"/>
        <pt x="291" y="531" on="0"/>
        <pt x="321" y="560" on="0"/>
        <pt x="321" y="582" on="1"/>
        <pt x="321" y="605" on="0"/>
        <pt x="291" y="634" on="0"/>
        <pt x="265" y="634" on="1"/>
        <pt x="238" y="634" on="0"/>
        <pt x="209" y="605" on="0"/>
        <pt x="209" y="582" on="1"/>
        <pt x="209" y="559" on="0"/>
        <pt x="239" y="531" on="0"/>
      </contour>
      <contour>
        <pt x="355" y="224" on="1"/>
        <pt x="294" y="410" on="1"/>
        <pt x="279" y="473" on="1"/>
        <pt x="253" y="472" on="1"/>
        <pt x="238" y="410" on="1"/>
        <pt x="177" y="224" on="1"/>
      </contour>
    </TTGlyph>
    <TTGlyph name="Atilde" xMin="3" yMin="0" xMax="580" yMax="933">
      <contour>
        <pt x="3" y="6" on="1"/>
        <pt x="205" y="740" on="1"/>
        <pt x="378" y="740" on="1"/>
        <pt x="580" y="6" on="1"/>
        <pt x="580" y="0" on="1"/>
        <pt x="471" y="0" on="1"/>
        <pt x="412" y="204" on="1"/>
        <pt x="170" y="204" on="1"/>
        <pt x="113" y="0" on="1"/>
        <pt x="3" y="0" on="1"/>
      </contour>
      <contour>
        <pt x="390" y="299" on="1"/>
        <pt x="323" y="537" on="1"/>
        <pt x="296" y="646" on="1"/>
        <pt x="287" y="646" on="1"/>
        <pt x="259" y="537" on="1"/>
        <pt x="193" y="299" on="1"/>
      </contour>
      <contour>
        <pt x="126" y="841" on="1"/>
        <pt x="149" y="884" on="0"/>
        <pt x="212" y="933" on="0"/>
        <pt x="243" y="933" on="1"/>
        <pt x="262" y="933" on="0"/>
        <pt x="297" y="920" on="0"/>
        <pt x="331" y="905" on="0"/>
        <pt x="364" y="892" on="0"/>
        <pt x="382" y="892" on="1"/>
        <pt x="416" y="892" on="0"/>
        <pt x="447" y="932" on="1"/>
        <pt x="472" y="911" on="1"/>
        <pt x="452" y="865" on="0"/>
        <pt x="389" y="817" on="0"/>
        <pt x="357" y="817" on="1"/>
        <pt x="338" y="817" on="0"/>
        <pt x="304" y="829" on="0"/>
        <pt x="271" y="844" on="0"/>
        <pt x="237" y="857" on="0"/>
        <pt x="219" y="857" on="1"/>
        <pt x="184" y="857" on="0"/>
        <pt x="149" y="819" on="1"/>
      </contour>
    </TTGlyph>
    <TTGlyph name="Atilde.sc" xMin="6" yMin="0" xMax="527" yMax="737">
      <contour>
        <pt x="6" y="5" on="1"/>
        <pt x="185" y="577" on="1"/>
        <pt x="349" y="577" on="1"/>
        <pt x="527" y="5" on="1"/>
        <pt x="527" y="0" on="1"/>
        <pt x="422" y="0" on="1"/>
        <pt x="374" y="146" on="1"/>
        <pt x="159" y="146" on="1"/>
        <pt x="111" y="0" on="1"/>
        <pt x="6" y="0" on="1"/>
      </contour>
      <contour>
        <pt x="355" y="224" on="1"/>
        <pt x="295" y="410" on="1"/>
        <pt x="271" y="493" on="1"/>
        <pt x="262" y="493" on="1"/>
        <pt x="239" y="410" on="1"/>
        <pt x="177" y="224" on="1"/>
      </contour>
      <contour>
        <pt x="117" y="656" on="1"/>
        <pt x="138" y="695" on="0"/>
        <pt x="196" y="737" on="0"/>
        <pt x="225" y="737" on="1"/>
        <pt x="242" y="737" on="0"/>
        <pt x="273" y="727" on="0"/>
        <pt x="303" y="716" on="0"/>
        <pt x="333" y="706" on="0"/>
        <pt x="350" y="706" on="1"/>
        <pt x="382" y="706" on="0"/>
        <pt x="410" y="737" on="1"/>
        <pt x="433" y="719" on="1"/>
        <pt x="413" y="678" on="0"/>
        <pt x="355" y="636" on="0"/>
        <pt x="327" y="636" on="1"/>
        <pt x="310" y="636" on="0"/>
        <pt x="278" y="646" on="0"/>
        <pt x="248" y="658" on="0"/>
        <pt x="217" y="668" on="0"/>
        <pt x="201" y="668" on="1"/>
        <pt x="167" y="668" on="0"/>
        <pt x="137" y="638" on="1"/>
      </contour>
    </TTGlyph>
    <TTGlyph name="B" xMin="65" yMin="-10" xMax="540" yMax="750">
      <contour>
        <pt x="258" y="-10" on="1"/>
        <pt x="235" y="-10" on="0"/>
        <pt x="183" y="-8" on="0"/>
        <pt x="132" y="-4" on="0"/>
        <pt x="84" y="2" on="0"/>
        <pt x="65" y="5" on="1"/>
        <pt x="65" y="736" on="1"/>
        <pt x="98" y="740" on="0"/>
        <pt x="151" y="745" on="0"/>
        <pt x="196" y="748" on="0"/>
        <pt x="236" y="750" on="0"/>
        <pt x="256" y="750" on="1"/>
        <pt x="392" y="750" on="0"/>
        <pt x="519" y="651" on="0"/>
        <pt x="519" y="545" on="1"/>
        <pt x="519" y="477" on="0"/>
        <pt x="462" y="395" on="0"/>
        <pt x="408" y="382" on="1"/>
        <pt x="408" y="378" on="1"/>
        <pt x="471" y="366" on="0"/>
        <pt x="540" y="273" on="0"/>
        <pt x="540" y="198" on="1"/>
        <pt x="540" y="94" on="0"/>
        <pt x="398" y="-10" on="0"/>
      </contour>
      <contour>
        <pt x="275" y="80" on="1"/>
        <pt x="420" y="82" on="0"/>
        <pt x="420" y="204" on="1"/>
        <pt x="420" y="271" on="0"/>
        <pt x="348" y="329" on="0"/>
        <pt x="262" y="329" on="1"/>
        <pt x="173" y="329" on="1"/>
        <pt x="173" y="88" on="1"/>
        <pt x="179" y="86" on="0"/>
        <pt x="202" y="84" on="0"/>
        <pt x="230" y="81" on="0"/>
        <pt x="261" y="80" on="0"/>
      </contour>
      <contour>
        <pt x="261" y="416" on="1"/>
        <pt x="337" y="416" on="0"/>
        <pt x="398" y="471" on="0"/>
        <pt x="398" y="539" on="1"/>
        <pt x="398" y="658" on="0"/>
        <pt x="268" y="658" on="1"/>
        <pt x="244" y="658" on="0"/>
        <pt x="199" y="655" on="0"/>
        <pt x="173" y="651" on="1"/>
        <pt x="173" y="416" on="1"/>
      </contour>
    </TTGlyph>
    <TTGlyph name="B.sc" xMin="62" yMin="-8" xMax="489" yMax="585">
      <contour>
        <pt x="236" y="-8" on="1"/>
        <pt x="194" y="-8" on="0"/>
        <pt x="99" y="-1" on="0"/>
        <pt x="62" y="4" on="1"/>
        <pt x="62" y="574" on="1"/>
        <pt x="120" y="580" on="0"/>
        <pt x="199" y="585" on="0"/>
        <pt x="235" y="585" on="1"/>
        <pt x="358" y="585" on="0"/>
        <pt x="471" y="508" on="0"/>
        <pt x="471" y="424" on="1"/>
        <pt x="471" y="319" on="0"/>
        <pt x="371" y="298" on="1"/>
        <pt x="371" y="295" on="1"/>
        <pt x="428" y="285" on="0"/>
        <pt x="489" y="214" on="0"/>
        <pt x="489" y="156" on="1"/>
        <pt x="489" y="-8" on="0"/>
      </contour>
      <contour>
        <pt x="253" y="75" on="1"/>
        <pt x="381" y="75" on="0"/>
        <pt x="381" y="163" on="1"/>
        <pt x="381" y="211" on="0"/>
        <pt x="319" y="252" on="0"/>
        <pt x="244" y="252" on="1"/>
        <pt x="164" y="252" on="1"/>
        <pt x="164" y="80" on="1"/>
        <pt x="175" y="78" on="0"/>
        <pt x="225" y="75" on="0"/>
      </contour>
      <contour>
        <pt x="243" y="329" on="1"/>
        <pt x="309" y="329" on="0"/>
        <pt x="361" y="367" on="0"/>
        <pt x="361" y="417" on="1"/>
        <pt x="361" y="461" on="0"/>
        <pt x="306" y="501" on="0"/>
        <pt x="247" y="501" on="1"/>
        <pt x="227" y="501" on="0"/>
        <pt x="187" y="499" on="0"/>
        <pt x="164" y="496" on="1"/>
        <pt x="164" y="329" on="1"/>
      </contour>
    </TTGlyph>
    <TTGlyph name="C" xMin="37" yMin="-10" xMax="467" yMax="748">
      <contour>
        <pt x="342" y="-10" on="1"/>
        <pt x="186" y="-9" on="0"/>
        <pt x="37" y="173" on="0"/>
        <pt x="37" y="369" on="1"/>
        <pt x="37" y="469" on="0"/>
        <pt x="73" y="613" on="0"/>
        <pt x="148" y="705" on="0"/>
        <pt x="262" y="748" on="0"/>
        <pt x="340" y="748" on="1"/>
        <pt x="398" y="748" on="0"/>
        <pt x="467" y="736" on="1"/>
        <pt x="467" y="641" on="1"/>
        <pt x="442" y="646" on="0"/>
        <pt x="384" y="651" on="0"/>
        <pt x="358" y="651" on="1"/>
        <pt x="303" y="651" on="0"/>
        <pt x="226" y="624" on="0"/>
        <pt x="178" y="559" on="0"/>
        <pt x="157" y="450" on="0"/>
        <pt x="157" y="369" on="1"/>
        <pt x="157" y="290" on="0"/>
        <pt x="179" y="183" on="0"/>
        <pt x="227" y="117" on="0"/>
        <pt x="302" y="89" on="0"/>
        <pt x="355" y="89" on="1"/>
        <pt x="378" y="89" on="0"/>
        <pt x="439" y="94" on="0"/>
        <pt x="467" y="99" on="1"/>
        <pt x="467" y="7" on="1"/>
        <pt x="444" y="-1" on="0"/>
        <pt x="380" y="-10" on="0"/>
      </contour>
    </TTGlyph>
    <TTGlyph name="C.sc" xMin="36" yMin="-8" xMax="421" yMax="584">
      <contour>
        <pt x="307" y="-8" on="1"/>
        <pt x="168" y="-6" on="0"/>
        <pt x="36" y="135" on="0"/>
        <pt x="36" y="288" on="1"/>
        <pt x="36" y="442" on="0"/>
        <pt x="168" y="584" on="0"/>
        <pt x="305" y="584" on="1"/>
        <pt x="331" y="584" on="0"/>
        <pt x="389" y="578" on="0"/>
        <pt x="421" y="573" on="1"/>
        <pt x="421" y="485" on="1"/>
        <pt x="396" y="489" on="0"/>
        <pt x="344" y="493" on="0"/>
        <pt x="321" y="493" on="1"/>
        <pt x="274" y="493" on="0"/>
        <pt x="209" y="474" on="0"/>
        <pt x="168" y="427" on="0"/>
        <pt x="150" y="348" on="0"/>
        <pt x="150" y="288" on="1"/>
        <pt x="150" y="229" on="0"/>
        <pt x="169" y="151" on="0"/>
        <pt x="209" y="104" on="0"/>
        <pt x="274" y="85" on="0"/>
        <pt x="319" y="85" on="1"/>
        <pt x="342" y="85" on="0"/>
        <pt x="396" y="89" on="0"/>
        <pt x="421" y="94" on="1"/>
        <pt x="421" y="8" on="1"/>
        <pt x="401" y="1" on="0"/>
        <pt x="341" y="-8" on="0"/>
      </contour>
    </TTGlyph>
    <TTGlyph name="Cacute" xMin="37" yMin="-10" xMax="467" yMax="950">
      <contour>
        <pt x="342" y="-10" on="1"/>
        <pt x="186" y="-9" on="0"/>
        <pt x="37" y="173" on="0"/>
        <pt x="37" y="369" on="1"/>
        <pt x="37" y="469" on="0"/>
        <pt x="73" y="613" on="0"/>
        <pt x="148" y="705" on="0"/>
        <pt x="262" y="748" on="0"/>
        <pt x="340" y="748" on="1"/>
        <pt x="398" y="748" on="0"/>
        <pt x="467" y="736" on="1"/>
        <pt x="467" y="641" on="1"/>
        <pt x="442" y="646" on="0"/>
        <pt x="384" y="651" on="0"/>
        <pt x="358" y="651" on="1"/>
        <pt x="303" y="651" on="0"/>
        <pt x="226" y="624" on="0"/>
        <pt x="178" y="559" on="0"/>
        <pt x="157" y="450" on="0"/>
        <pt x="157" y="369" on="1"/>
        <pt x="157" y="290" on="0"/>
        <pt x="179" y="183" on="0"/>
        <pt x="227" y="117" on="0"/>
        <pt x="302" y="89" on="0"/>
        <pt x="355" y="89" on="1"/>
        <pt x="378" y="89" on="0"/>
        <pt x="439" y="94" on="0"/>
        <pt x="467" y="99" on="1"/>
        <pt x="467" y="7" on="1"/>
        <pt x="444" y="-1" on="0"/>
        <pt x="380" y="-10" on="0"/>
      </contour>
      <contour>
        <pt x="245" y="794" on="1"/>
        <pt x="316" y="950" on="1"/>
        <pt x="434" y="950" on="1"/>
        <pt x="330" y="787" on="1"/>
      </contour>
    </TTGlyph>
    <TTGlyph name="Cacute.sc" xMin="36" yMin="-8" xMax="421" yMax="751">
      <contour>
        <pt x="307" y="-8" on="1"/>
        <pt x="168" y="-6" on="0"/>
        <pt x="36" y="135" on="0"/>
        <pt x="36" y="288" on="1"/>
        <pt x="36" y="442" on="0"/>
        <pt x="168" y="584" on="0"/>
        <pt x="305" y="584" on="1"/>
        <pt x="331" y="584" on="0"/>
        <pt x="389" y="578" on="0"/>
        <pt x="421" y="573" on="1"/>
        <pt x="421" y="485" on="1"/>
        <pt x="396" y="489" on="0"/>
        <pt x="344" y="493" on="0"/>
        <pt x="321" y="493" on="1"/>
        <pt x="274" y="493" on="0"/>
        <pt x="209" y="474" on="0"/>
        <pt x="168" y="427" on="0"/>
        <pt x="150" y="348" on="0"/>
        <pt x="150" y="288" on="1"/>
        <pt x="150" y="229" on="0"/>
        <pt x="169" y="151" on="0"/>
        <pt x="209" y="104" on="0"/>
        <pt x="274" y="85" on="0"/>
        <pt x="319" y="85" on="1"/>
        <pt x="342" y="85" on="0"/>
        <pt x="396" y="89" on="0"/>
        <pt x="421" y="94" on="1"/>
        <pt x="421" y="8" on="1"/>
        <pt x="401" y="1" on="0"/>
        <pt x="341" y="-8" on="0"/>
      </contour>
      <contour>
        <pt x="218" y="621" on="1"/>
        <pt x="280" y="751" on="1"/>
        <pt x="392" y="751" on="1"/>
        <pt x="297" y="616" on="1"/>
      </contour>
    </TTGlyph>
    <TTGlyph name="Ccaron" xMin="37" yMin="-10" xMax="467" yMax="948">
      <contour>
        <pt x="342" y="-10" on="1"/>
        <pt x="186" y="-9" on="0"/>
        <pt x="37" y="173" on="0"/>
        <pt x="37" y="369" on="1"/>
        <pt x="37" y="469" on="0"/>
        <pt x="73" y="613" on="0"/>
        <pt x="148" y="705" on="0"/>
        <pt x="262" y="748" on="0"/>
        <pt x="340" y="748" on="1"/>
        <pt x="398" y="748" on="0"/>
        <pt x="467" y="736" on="1"/>
        <pt x="467" y="641" on="1"/>
        <pt x="442" y="646" on="0"/>
        <pt x="384" y="651" on="0"/>
        <pt x="358" y="651" on="1"/>
        <pt x="303" y="651" on="0"/>
        <pt x="226" y="624" on="0"/>
        <pt x="178" y="559" on="0"/>
        <pt x="157" y="450" on="0"/>
        <pt x="157" y="369" on="1"/>
        <pt x="157" y="290" on="0"/>
        <pt x="179" y="183" on="0"/>
        <pt x="227" y="117" on="0"/>
        <pt x="302" y="89" on="0"/>
        <pt x="355" y="89" on="1"/>
        <pt x="378" y="89" on="0"/>
        <pt x="439" y="94" on="0"/>
        <pt x="467" y="99" on="1"/>
        <pt x="467" y="7" on="1"/>
        <pt x="444" y="-1" on="0"/>
        <pt x="380" y="-10" on="0"/>
      </contour>
      <contour>
        <pt x="153" y="948" on="1"/>
        <pt x="299" y="876" on="1"/>
        <pt x="446" y="948" on="1"/>
        <pt x="446" y="864" on="1"/>
        <pt x="299" y="792" on="1"/>
        <pt x="153" y="864" on="1"/>
      </contour>
    </TTGlyph>
    <TTGlyph name="Ccaron.sc" xMin="36" yMin="-8" xMax="421" yMax="749">
      <contour>
        <pt x="307" y="-8" on="1"/>
        <pt x="168" y="-6" on="0"/>
        <pt x="36" y="135" on="0"/>
        <pt x="36" y="288" on="1"/>
        <pt x="36" y="442" on="0"/>
        <pt x="168" y="584" on="0"/>
        <pt x="305" y="584" on="1"/>
        <pt x="331" y="584" on="0"/>
        <pt x="389" y="578" on="0"/>
        <pt x="421" y="573" on="1"/>
        <pt x="421" y="485" on="1"/>
        <pt x="396" y="489" on="0"/>
        <pt x="344" y="493" on="0"/>
        <pt x="321" y="493" on="1"/>
        <pt x="274" y="493" on="0"/>
        <pt x="209" y="474" on="0"/>
        <pt x="168" y="427" on="0"/>
        <pt x="150" y="348" on="0"/>
        <pt x="150" y="288" on="1"/>
        <pt x="150" y="229" on="0"/>
        <pt x="169" y="151" on="0"/>
        <pt x="209" y="104" on="0"/>
        <pt x="274" y="85" on="0"/>
        <pt x="319" y="85" on="1"/>
        <pt x="342" y="85" on="0"/>
        <pt x="396" y="89" on="0"/>
        <pt x="421" y="94" on="1"/>
        <pt x="421" y="8" on="1"/>
        <pt x="401" y="1" on="0"/>
        <pt x="341" y="-8" on="0"/>
      </contour>
      <contour>
        <pt x="136" y="749" on="1"/>
        <pt x="269" y="693" on="1"/>
        <pt x="403" y="749" on="1"/>
        <pt x="403" y="673" on="1"/>
        <pt x="269" y="617" on="1"/>
        <pt x="136" y="673" on="1"/>
      </contour>
    </TTGlyph>
    <TTGlyph name="Ccedilla" xMin="37" yMin="-220" xMax="467" yMax="748">
      <contour>
        <pt x="266" y="-220" on="1"/>
        <pt x="233" y="-220" on="0"/>
        <pt x="191" y="-209" on="1"/>
        <pt x="191" y="-136" on="1"/>
        <pt x="206" y="-141" on="0"/>
        <pt x="239" y="-145" on="0"/>
        <pt x="249" y="-145" on="1"/>
        <pt x="274" y="-145" on="0"/>
        <pt x="299" y="-120" on="0"/>
        <pt x="299" y="-97" on="1"/>
        <pt x="299" y="-78" on="0"/>
        <pt x="282" y="-30" on="0"/>
        <pt x="268" y="-4" on="1"/>
        <pt x="150" y="16" on="0"/>
        <pt x="37" y="198" on="0"/>
        <pt x="37" y="369" on="1"/>
        <pt x="37" y="469" on="0"/>
        <pt x="73" y="613" on="0"/>
        <pt x="148" y="705" on="0"/>
        <pt x="262" y="748" on="0"/>
        <pt x="340" y="748" on="1"/>
        <pt x="398" y="748" on="0"/>
        <pt x="467" y="736" on="1"/>
        <pt x="467" y="641" on="1"/>
        <pt x="442" y="646" on="0"/>
        <pt x="384" y="651" on="0"/>
        <pt x="358" y="651" on="1"/>
        <pt x="303" y="651" on="0"/>
        <pt x="226" y="624" on="0"/>
        <pt x="178" y="559" on="0"/>
        <pt x="157" y="450" on="0"/>
        <pt x="157" y="369" on="1"/>
        <pt x="157" y="290" on="0"/>
        <pt x="179" y="183" on="0"/>
        <pt x="227" y="117" on="0"/>
        <pt x="302" y="89" on="0"/>
        <pt x="355" y="89" on="1"/>
        <pt x="378" y="89" on="0"/>
        <pt x="439" y="94" on="0"/>
        <pt x="467" y="99" on="1"/>
        <pt x="467" y="7" on="1"/>
        <pt x="445" y="0" on="0"/>
        <pt x="384" y="-9" on="0"/>
        <pt x="348" y="-10" on="1"/>
        <pt x="364" y="-37" on="0"/>
        <pt x="378" y="-87" on="0"/>
        <pt x="378" y="-113" on="1"/>
        <pt x="378" y="-164" on="0"/>
        <pt x="320" y="-220" on="0"/>
      </contour>
    </TTGlyph>
    <TTGlyph name="Ccedilla.sc" xMin="36" yMin="-172" xMax="421" yMax="584">
      <contour>
        <pt x="241" y="-172" on="1"/>
        <pt x="210" y="-172" on="0"/>
        <pt x="173" y="-163" on="1"/>
        <pt x="173" y="-97" on="1"/>
        <pt x="189" y="-101" on="0"/>
        <pt x="218" y="-104" on="0"/>
        <pt x="226" y="-104" on="1"/>
        <pt x="248" y="-104" on="0"/>
        <pt x="268" y="-86" on="0"/>
        <pt x="268" y="-71" on="1"/>
        <pt x="268" y="-57" on="0"/>
        <pt x="254" y="-21" on="0"/>
        <pt x="243" y="-2" on="1"/>
        <pt x="137" y="13" on="0"/>
        <pt x="36" y="154" on="0"/>
        <pt x="36" y="288" on="1"/>
        <pt x="36" y="442" on="0"/>
        <pt x="168" y="584" on="0"/>
        <pt x="305" y="584" on="1"/>
        <pt x="331" y="584" on="0"/>
        <pt x="389" y="578" on="0"/>
        <pt x="421" y="573" on="1"/>
        <pt x="421" y="485" on="1"/>
        <pt x="396" y="489" on="0"/>
        <pt x="344" y="493" on="0"/>
        <pt x="321" y="493" on="1"/>
        <pt x="274" y="493" on="0"/>
        <pt x="209" y="474" on="0"/>
        <pt x="168" y="427" on="0"/>
        <pt x="150" y="348" on="0"/>
        <pt x="150" y="288" on="1"/>
        <pt x="150" y="229" on="0"/>
        <pt x="169" y="151" on="0"/>
        <pt x="209" y="104" on="0"/>
        <pt x="274" y="85" on="0"/>
        <pt x="319" y="85" on="1"/>
        <pt x="342" y="85" on="0"/>
        <pt x="396" y="89" on="0"/>
        <pt x="421" y="94" on="1"/>
        <pt x="421" y="8" on="1"/>
        <pt x="401" y="1" on="0"/>
        <pt x="346" y="-7" on="0"/>
        <pt x="317" y="-7" on="1"/>
        <pt x="341" y="-49" on="0"/>
        <pt x="341" y="-88" on="1"/>
        <pt x="341" y="-127" on="0"/>
        <pt x="291" y="-172" on="0"/>
      </contour>
    </TTGlyph>
    <TTGlyph name="Ccircumflex" xMin="37" yMin="-10" xMax="467" yMax="957">
      <contour>
        <pt x="342" y="-10" on="1"/>
        <pt x="186" y="-9" on="0"/>
        <pt x="37" y="173" on="0"/>
        <pt x="37" y="369" on="1"/>
        <pt x="37" y="469" on="0"/>
        <pt x="73" y="613" on="0"/>
        <pt x="148" y="705" on="0"/>
        <pt x="262" y="748" on="0"/>
        <pt x="340" y="748" on="1"/>
        <pt x="398" y="748" on="0"/>
        <pt x="467" y="736" on="1"/>
        <pt x="467" y="641" on="1"/>
        <pt x="442" y="646" on="0"/>
        <pt x="384" y="651" on="0"/>
        <pt x="358" y="651" on="1"/>
        <pt x="303" y="651" on="0"/>
        <pt x="226" y="624" on="0"/>
        <pt x="178" y="559" on="0"/>
        <pt x="157" y="450" on="0"/>
        <pt x="157" y="369" on="1"/>
        <pt x="157" y="290" on="0"/>
        <pt x="179" y="183" on="0"/>
        <pt x="227" y="117" on="0"/>
        <pt x="302" y="89" on="0"/>
        <pt x="355" y="89" on="1"/>
        <pt x="378" y="89" on="0"/>
        <pt x="439" y="94" on="0"/>
        <pt x="467" y="99" on="1"/>
        <pt x="467" y="7" on="1"/>
        <pt x="444" y="-1" on="0"/>
        <pt x="380" y="-10" on="0"/>
      </contour>
      <contour>
        <pt x="146" y="886" on="1"/>
        <pt x="293" y="957" on="1"/>
        <pt x="439" y="886" on="1"/>
        <pt x="439" y="802" on="1"/>
        <pt x="293" y="874" on="1"/>
        <pt x="146" y="802" on="1"/>
      </contour>
    </TTGlyph>
    <TTGlyph name="Ccircumflex.sc" xMin="36" yMin="-8" xMax="421" yMax="753">
      <contour>
        <pt x="307" y="-8" on="1"/>
        <pt x="168" y="-6" on="0"/>
        <pt x="36" y="135" on="0"/>
        <pt x="36" y="288" on="1"/>
        <pt x="36" y="442" on="0"/>
        <pt x="168" y="584" on="0"/>
        <pt x="305" y="584" on="1"/>
        <pt x="331" y="584" on="0"/>
        <pt x="389" y="578" on="0"/>
        <pt x="421" y="573" on="1"/>
        <pt x="421" y="485" on="1"/>
        <pt x="396" y="489" on="0"/>
        <pt x="344" y="493" on="0"/>
        <pt x="321" y="493" on="1"/>
        <pt x="274" y="493" on="0"/>
        <pt x="209" y="474" on="0"/>
        <pt x="168" y="427" on="0"/>
        <pt x="150" y="348" on="0"/>
        <pt x="150" y="288" on="1"/>
        <pt x="150" y="229" on="0"/>
        <pt x="169" y="151" on="0"/>
        <pt x="209" y="104" on="0"/>
        <pt x="274" y="85" on="0"/>
        <pt x="319" y="85" on="1"/>
        <pt x="342" y="85" on="0"/>
        <pt x="396" y="89" on="0"/>
        <pt x="421" y="94" on="1"/>
        <pt x="421" y="8" on="1"/>
        <pt x="401" y="1" on="0"/>
        <pt x="341" y="-8" on="0"/>
      </contour>
      <contour>
        <pt x="130" y="697" on="1"/>
        <pt x="263" y="753" on="1"/>
        <pt x="396" y="697" on="1"/>
        <pt x="396" y="622" on="1"/>
        <pt x="263" y="678" on="1"/>
        <pt x="130" y="622" on="1"/>
      </contour>
    </TTGlyph>
    <TTGlyph name="Cdotaccent" xMin="37" yMin="-10" xMax="467" yMax="929">
      <contour>
        <pt x="292" y="799" on="1"/>
        <pt x="258" y="799" on="0"/>
        <pt x="225" y="829" on="0"/>
        <pt x="225" y="864" on="1"/>
        <pt x="225" y="899" on="0"/>
        <pt x="258" y="929" on="0"/>
        <pt x="292" y="929" on="1"/>
        <pt x="359" y="929" on="0"/>
        <pt x="359" y="864" on="1"/>
        <pt x="359" y="829" on="0"/>
        <pt x="325" y="799" on="0"/>
      </contour>
      <contour>
        <pt x="342" y="-10" on="1"/>
        <pt x="186" y="-9" on="0"/>
        <pt x="37" y="173" on="0"/>
        <pt x="37" y="369" on="1"/>
        <pt x="37" y="469" on="0"/>
        <pt x="73" y="613" on="0"/>
        <pt x="148" y="705" on="0"/>
        <pt x="262" y="748" on="0"/>
        <pt x="340" y="748" on="1"/>
        <pt x="398" y="748" on="0"/>
        <pt x="467" y="736" on="1"/>
        <pt x="467" y="641" on="1"/>
        <pt x="442" y="646" on="0"/>
        <pt x="384" y="651" on="0"/>
        <pt x="358" y="651" on="1"/>
        <pt x="303" y="651" on="0"/>
        <pt x="226" y="624" on="0"/>
        <pt x="178" y="559" on="0"/>
        <pt x="157" y="450" on="0"/>
        <pt x="157" y="369" on="1"/>
        <pt x="157" y="290" on="0"/>
        <pt x="179" y="183" on="0"/>
        <pt x="227" y="117" on="0"/>
        <pt x="302" y="89" on="0"/>
        <pt x="355" y="89" on="1"/>
        <pt x="378" y="89" on="0"/>
        <pt x="439" y="94" on="0"/>
        <pt x="467" y="99" on="1"/>
        <pt x="467" y="7" on="1"/>
        <pt x="444" y="-1" on="0"/>
        <pt x="380" y="-10" on="0"/>
      </contour>
    </TTGlyph>
    <TTGlyph name="Cdotaccent.sc" xMin="36" yMin="-8" xMax="421" yMax="742">
      <contour>
        <pt x="307" y="-8" on="1"/>
        <pt x="168" y="-6" on="0"/>
        <pt x="36" y="135" on="0"/>
        <pt x="36" y="288" on="1"/>
        <pt x="36" y="442" on="0"/>
        <pt x="168" y="584" on="0"/>
        <pt x="305" y="584" on="1"/>
        <pt x="331" y="584" on="0"/>
        <pt x="389" y="578" on="0"/>
        <pt x="421" y="573" on="1"/>
        <pt x="421" y="485" on="1"/>
        <pt x="396" y="489" on="0"/>
        <pt x="344" y="493" on="0"/>
        <pt x="321" y="493" on="1"/>
        <pt x="274" y="493" on="0"/>
        <pt x="209" y="474" on="0"/>
        <pt x="168" y="427" on="0"/>
        <pt x="150" y="348" on="0"/>
        <pt x="150" y="288" on="1"/>
        <pt x="150" y="229" on="0"/>
        <pt x="169" y="151" on="0"/>
        <pt x="209" y="104" on="0"/>
        <pt x="274" y="85" on="0"/>
        <pt x="319" y="85" on="1"/>
        <pt x="342" y="85" on="0"/>
        <pt x="396" y="89" on="0"/>
        <pt x="421" y="94" on="1"/>
        <pt x="421" y="8" on="1"/>
        <pt x="401" y="1" on="0"/>
        <pt x="341" y="-8" on="0"/>
      </contour>
      <contour>
        <pt x="264" y="623" on="1"/>
        <pt x="232" y="623" on="0"/>
        <pt x="202" y="651" on="0"/>
        <pt x="202" y="683" on="1"/>
        <pt x="202" y="715" on="0"/>
        <pt x="232" y="742" on="0"/>
        <pt x="264" y="742" on="1"/>
        <pt x="295" y="742" on="0"/>
        <pt x="327" y="715" on="0"/>
        <pt x="327" y="683" on="1"/>
        <pt x="327" y="651" on="0"/>
        <pt x="295" y="623" on="0"/>
      </contour>
    </TTGlyph>
    <TTGlyph name="D" xMin="65" yMin="-15" xMax="572" yMax="750">
      <contour>
        <pt x="214" y="-15" on="1"/>
        <pt x="182" y="-15" on="0"/>
        <pt x="112" y="-11" on="0"/>
        <pt x="65" y="-6" on="1"/>
        <pt x="65" y="736" on="1"/>
        <pt x="122" y="743" on="0"/>
        <pt x="202" y="750" on="0"/>
        <pt x="237" y="750" on="1"/>
        <pt x="326" y="750" on="0"/>
        <pt x="453" y="707" on="0"/>
        <pt x="534" y="614" on="0"/>
        <pt x="572" y="470" on="0"/>
        <pt x="572" y="369" on="1"/>
        <pt x="572" y="267" on="0"/>
        <pt x="532" y="121" on="0"/>
        <pt x="446" y="28" on="0"/>
        <pt x="310" y="-15" on="0"/>
      </contour>
      <contour>
        <pt x="251" y="82" on="1"/>
        <pt x="305" y="82" on="0"/>
        <pt x="381" y="113" on="0"/>
        <pt x="429" y="181" on="0"/>
        <pt x="452" y="290" on="0"/>
        <pt x="452" y="369" on="1"/>
        <pt x="452" y="448" on="0"/>
        <pt x="431" y="556" on="0"/>
        <pt x="384" y="624" on="0"/>
        <pt x="308" y="654" on="0"/>
        <pt x="254" y="654" on="1"/>
        <pt x="211" y="654" on="0"/>
        <pt x="180" y="647" on="1"/>
        <pt x="180" y="87" on="1"/>
        <pt x="203" y="85" on="0"/>
        <pt x="237" y="82" on="0"/>
      </contour>
    </TTGlyph>
    <TTGlyph name="D.sc" xMin="62" yMin="-11" xMax="520" yMax="585">
      <contour>
        <pt x="200" y="-11" on="1"/>
        <pt x="170" y="-11" on="0"/>
        <pt x="104" y="-7" on="0"/>
        <pt x="62" y="-2" on="1"/>
        <pt x="62" y="576" on="1"/>
        <pt x="113" y="580" on="0"/>
        <pt x="187" y="585" on="0"/>
        <pt x="218" y="585" on="1"/>
        <pt x="299" y="585" on="0"/>
        <pt x="413" y="552" on="0"/>
        <pt x="486" y="480" on="0"/>
        <pt x="520" y="367" on="0"/>
        <pt x="520" y="288" on="1"/>
        <pt x="520" y="208" on="0"/>
        <pt x="484" y="94" on="0"/>
        <pt x="407" y="22" on="0"/>
        <pt x="285" y="-11" on="0"/>
      </contour>
      <contour>
        <pt x="236" y="80" on="1"/>
        <pt x="282" y="80" on="0"/>
        <pt x="347" y="101" on="0"/>
        <pt x="387" y="149" on="0"/>
        <pt x="406" y="229" on="0"/>
        <pt x="406" y="288" on="1"/>
        <pt x="406" y="347" on="0"/>
        <pt x="388" y="426" on="0"/>
        <pt x="348" y="474" on="0"/>
        <pt x="283" y="495" on="0"/>
        <pt x="235" y="495" on="1"/>
        <pt x="216" y="495" on="0"/>
        <pt x="185" y="493" on="0"/>
        <pt x="170" y="491" on="1"/>
        <pt x="170" y="84" on="1"/>
        <pt x="192" y="82" on="0"/>
        <pt x="222" y="80" on="0"/>
      </contour>
    </TTGlyph>
    <TTGlyph name="Dcaron" xMin="65" yMin="-15" xMax="572" yMax="948">
      <contour>
        <pt x="141" y="948" on="1"/>
        <pt x="287" y="876" on="1"/>
        <pt x="434" y="948" on="1"/>
        <pt x="434" y="864" on="1"/>
        <pt x="287" y="792" on="1"/>
        <pt x="141" y="864" on="1"/>
      </contour>
      <contour>
        <pt x="214" y="-15" on="1"/>
        <pt x="182" y="-15" on="0"/>
        <pt x="112" y="-11" on="0"/>
        <pt x="65" y="-6" on="1"/>
        <pt x="65" y="736" on="1"/>
        <pt x="122" y="743" on="0"/>
        <pt x="202" y="750" on="0"/>
        <pt x="237" y="750" on="1"/>
        <pt x="326" y="750" on="0"/>
        <pt x="453" y="707" on="0"/>
        <pt x="534" y="614" on="0"/>
        <pt x="572" y="470" on="0"/>
        <pt x="572" y="369" on="1"/>
        <pt x="572" y="267" on="0"/>
        <pt x="532" y="121" on="0"/>
        <pt x="446" y="28" on="0"/>
        <pt x="310" y="-15" on="0"/>
      </contour>
      <contour>
        <pt x="251" y="82" on="1"/>
        <pt x="305" y="82" on="0"/>
        <pt x="381" y="113" on="0"/>
        <pt x="429" y="181" on="0"/>
        <pt x="452" y="290" on="0"/>
        <pt x="452" y="369" on="1"/>
        <pt x="452" y="448" on="0"/>
        <pt x="431" y="556" on="0"/>
        <pt x="384" y="624" on="0"/>
        <pt x="308" y="654" on="0"/>
        <pt x="254" y="654" on="1"/>
        <pt x="211" y="654" on="0"/>
        <pt x="180" y="647" on="1"/>
        <pt x="180" y="87" on="1"/>
        <pt x="203" y="85" on="0"/>
        <pt x="237" y="82" on="0"/>
      </contour>
    </TTGlyph>
    <TTGlyph name="Dcaron.sc" xMin="62" yMin="-11" xMax="520" yMax="749">
      <contour>
        <pt x="200" y="-11" on="1"/>
        <pt x="170" y="-11" on="0"/>
        <pt x="104" y="-7" on="0"/>
        <pt x="62" y="-2" on="1"/>
        <pt x="62" y="576" on="1"/>
        <pt x="113" y="580" on="0"/>
        <pt x="187" y="585" on="0"/>
        <pt x="218" y="585" on="1"/>
        <pt x="299" y="585" on="0"/>
        <pt x="413" y="552" on="0"/>
        <pt x="486" y="480" on="0"/>
        <pt x="520" y="367" on="0"/>
        <pt x="520" y="288" on="1"/>
        <pt x="520" y="208" on="0"/>
        <pt x="484" y="94" on="0"/>
        <pt x="407" y="22" on="0"/>
        <pt x="285" y="-11" on="0"/>
      </contour>
      <contour>
        <pt x="236" y="80" on="1"/>
        <pt x="282" y="80" on="0"/>
        <pt x="347" y="101" on="0"/>
        <pt x="387" y="149" on="0"/>
        <pt x="406" y="229" on="0"/>
        <pt x="406" y="288" on="1"/>
        <pt x="406" y="347" on="0"/>
        <pt x="388" y="426" on="0"/>
        <pt x="348" y="474" on="0"/>
        <pt x="283" y="495" on="0"/>
        <pt x="235" y="495" on="1"/>
        <pt x="216" y="495" on="0"/>
        <pt x="185" y="493" on="0"/>
        <pt x="170" y="491" on="1"/>
        <pt x="170" y="84" on="1"/>
        <pt x="192" y="82" on="0"/>
        <pt x="222" y="80" on="0"/>
      </contour>
      <contour>
        <pt x="131" y="673" on="1"/>
        <pt x="131" y="749" on="1"/>
        <pt x="265" y="693" on="1"/>
        <pt x="398" y="749" on="1"/>
        <pt x="398" y="673" on="1"/>
        <pt x="265" y="617" on="1"/>
      </contour>
    </TTGlyph>
    <TTGlyph name="Dcroat" xMin="-1" yMin="-15" xMax="590" yMax="750">
      <contour>
        <pt x="-1" y="416" on="1"/>
        <pt x="83" y="416" on="1"/>
        <pt x="83" y="736" on="1"/>
        <pt x="140" y="743" on="0"/>
        <pt x="220" y="750" on="0"/>
        <pt x="255" y="750" on="1"/>
        <pt x="344" y="750" on="0"/>
        <pt x="471" y="707" on="0"/>
        <pt x="552" y="614" on="0"/>
        <pt x="590" y="470" on="0"/>
        <pt x="590" y="369" on="1"/>
        <pt x="590" y="267" on="0"/>
        <pt x="550" y="121" on="0"/>
        <pt x="464" y="28" on="0"/>
        <pt x="328" y="-15" on="0"/>
        <pt x="232" y="-15" on="1"/>
        <pt x="200" y="-15" on="0"/>
        <pt x="130" y="-11" on="0"/>
        <pt x="83" y="-6" on="1"/>
        <pt x="83" y="325" on="1"/>
        <pt x="-1" y="325" on="1"/>
      </contour>
      <contour>
        <pt x="269" y="82" on="1"/>
        <pt x="323" y="82" on="0"/>
        <pt x="399" y="113" on="0"/>
        <pt x="447" y="181" on="0"/>
        <pt x="470" y="290" on="0"/>
        <pt x="470" y="369" on="1"/>
        <pt x="470" y="448" on="0"/>
        <pt x="449" y="556" on="0"/>
        <pt x="402" y="624" on="0"/>
        <pt x="326" y="654" on="0"/>
        <pt x="272" y="654" on="1"/>
        <pt x="229" y="654" on="0"/>
        <pt x="198" y="647" on="1"/>
        <pt x="198" y="416" on="1"/>
        <pt x="314" y="416" on="1"/>
        <pt x="314" y="325" on="1"/>
        <pt x="198" y="325" on="1"/>
        <pt x="198" y="87" on="1"/>
        <pt x="221" y="85" on="0"/>
        <pt x="255" y="82" on="0"/>
      </contour>
    </TTGlyph>
    <TTGlyph name="Dcroat.sc" xMin="4" yMin="-11" xMax="536" yMax="585">
      <contour>
        <pt x="4" y="332" on="1"/>
        <pt x="78" y="332" on="1"/>
        <pt x="78" y="576" on="1"/>
        <pt x="129" y="580" on="0"/>
        <pt x="203" y="585" on="0"/>
        <pt x="235" y="585" on="1"/>
        <pt x="315" y="585" on="0"/>
        <pt x="429" y="552" on="0"/>
        <pt x="502" y="480" on="0"/>
        <pt x="536" y="367" on="0"/>
        <pt x="536" y="288" on="1"/>
        <pt x="536" y="208" on="0"/>
        <pt x="500" y="94" on="0"/>
        <pt x="423" y="22" on="0"/>
        <pt x="302" y="-11" on="0"/>
        <pt x="216" y="-11" on="1"/>
        <pt x="186" y="-11" on="0"/>
        <pt x="120" y="-7" on="0"/>
        <pt x="78" y="-2" on="1"/>
        <pt x="78" y="247" on="1"/>
        <pt x="4" y="247" on="1"/>
      </contour>
      <contour>
        <pt x="252" y="80" on="1"/>
        <pt x="298" y="80" on="0"/>
        <pt x="363" y="101" on="0"/>
        <pt x="404" y="149" on="0"/>
        <pt x="423" y="229" on="0"/>
        <pt x="423" y="288" on="1"/>
        <pt x="423" y="347" on="0"/>
        <pt x="405" y="426" on="0"/>
        <pt x="364" y="474" on="0"/>
        <pt x="299" y="495" on="0"/>
        <pt x="251" y="495" on="1"/>
        <pt x="233" y="495" on="0"/>
        <pt x="202" y="493" on="0"/>
        <pt x="187" y="491" on="1"/>
        <pt x="187" y="332" on="1"/>
        <pt x="286" y="332" on="1"/>
        <pt x="286" y="247" on="1"/>
        <pt x="187" y="247" on="1"/>
        <pt x="187" y="84" on="1"/>
        <pt x="208" y="82" on="0"/>
        <pt x="238" y="80" on="0"/>
      </contour>
    </TTGlyph>
    <TTGlyph name="Ddotbelow" xMin="65" yMin="-191" xMax="572" yMax="750">
      <contour>
        <pt x="288" y="-191" on="1"/>
        <pt x="259" y="-191" on="0"/>
        <pt x="231" y="-164" on="0"/>
        <pt x="231" y="-134" on="1"/>
        <pt x="231" y="-104" on="0"/>
        <pt x="259" y="-78" on="0"/>
        <pt x="288" y="-78" on="1"/>
        <pt x="317" y="-78" on="0"/>
        <pt x="346" y="-104" on="0"/>
        <pt x="346" y="-134" on="1"/>
        <pt x="346" y="-164" on="0"/>
        <pt x="317" y="-191" on="0"/>
      </contour>
      <contour>
        <pt x="214" y="-15" on="1"/>
        <pt x="182" y="-15" on="0"/>
        <pt x="112" y="-11" on="0"/>
        <pt x="65" y="-6" on="1"/>
        <pt x="65" y="736" on="1"/>
        <pt x="122" y="743" on="0"/>
        <pt x="202" y="750" on="0"/>
        <pt x="237" y="750" on="1"/>
        <pt x="326" y="750" on="0"/>
        <pt x="453" y="707" on="0"/>
        <pt x="534" y="614" on="0"/>
        <pt x="572" y="470" on="0"/>
        <pt x="572" y="369" on="1"/>
        <pt x="572" y="267" on="0"/>
        <pt x="532" y="121" on="0"/>
        <pt x="446" y="28" on="0"/>
        <pt x="310" y="-15" on="0"/>
      </contour>
      <contour>
        <pt x="251" y="82" on="1"/>
        <pt x="305" y="82" on="0"/>
        <pt x="381" y="113" on="0"/>
        <pt x="429" y="181" on="0"/>
        <pt x="452" y="290" on="0"/>
        <pt x="452" y="369" on="1"/>
        <pt x="452" y="448" on="0"/>
        <pt x="431" y="556" on="0"/>
        <pt x="384" y="624" on="0"/>
        <pt x="308" y="654" on="0"/>
        <pt x="254" y="654" on="1"/>
        <pt x="211" y="654" on="0"/>
        <pt x="180" y="647" on="1"/>
        <pt x="180" y="87" on="1"/>
        <pt x="203" y="85" on="0"/>
        <pt x="237" y="82" on="0"/>
      </contour>
    </TTGlyph>
    <TTGlyph name="Ddotbelow.sc" xMin="62" yMin="-156" xMax="520" yMax="585">
      <contour>
        <pt x="200" y="-11" on="1"/>
        <pt x="170" y="-11" on="0"/>
        <pt x="104" y="-7" on="0"/>
        <pt x="62" y="-2" on="1"/>
        <pt x="62" y="576" on="1"/>
        <pt x="113" y="580" on="0"/>
        <pt x="187" y="585" on="0"/>
        <pt x="218" y="585" on="1"/>
        <pt x="299" y="585" on="0"/>
        <pt x="413" y="552" on="0"/>
        <pt x="486" y="480" on="0"/>
        <pt x="520" y="367" on="0"/>
        <pt x="520" y="288" on="1"/>
        <pt x="520" y="208" on="0"/>
        <pt x="484" y="94" on="0"/>
        <pt x="407" y="22" on="0"/>
        <pt x="285" y="-11" on="0"/>
      </contour>
      <contour>
        <pt x="236" y="80" on="1"/>
        <pt x="282" y="80" on="0"/>
        <pt x="347" y="101" on="0"/>
        <pt x="387" y="149" on="0"/>
        <pt x="406" y="229" on="0"/>
        <pt x="406" y="288" on="1"/>
        <pt x="406" y="347" on="0"/>
        <pt x="388" y="426" on="0"/>
        <pt x="348" y="474" on="0"/>
        <pt x="283" y="495" on="0"/>
        <pt x="235" y="495" on="1"/>
        <pt x="216" y="495" on="0"/>
        <pt x="185" y="493" on="0"/>
        <pt x="170" y="491" on="1"/>
        <pt x="170" y="84" on="1"/>
        <pt x="192" y="82" on="0"/>
        <pt x="222" y="80" on="0"/>
      </contour>
      <contour>
        <pt x="265" y="-156" on="1"/>
        <pt x="238" y="-156" on="0"/>
        <pt x="212" y="-133" on="0"/>
        <pt x="212" y="-107" on="1"/>
        <pt x="212" y="-57" on="0"/>
        <pt x="265" y="-57" on="1"/>
        <pt x="318" y="-57" on="0"/>
        <pt x="318" y="-107" on="1"/>
        <pt x="318" y="-133" on="0"/>
        <pt x="291" y="-156" on="0"/>
      </contour>
    </TTGlyph>
    <TTGlyph name="Delta" xMin="19" yMin="0" xMax="626" yMax="740">
      <contour>
        <pt x="248" y="740" on="1"/>
        <pt x="397" y="740" on="1"/>
        <pt x="626" y="0" on="1"/>
        <pt x="19" y="0" on="1"/>
      </contour>
      <contour>
        <pt x="489" y="99" on="1"/>
        <pt x="322" y="636" on="1"/>
        <pt x="156" y="99" on="1"/>
      </contour>
    </TTGlyph>
    <TTGlyph name="E" xMin="65" yMin="0" xMax="490" yMax="740">
      <contour>
        <pt x="65" y="740" on="1"/>
        <pt x="481" y="740" on="1"/>
        <pt x="481" y="641" on="1"/>
        <pt x="182" y="641" on="1"/>
        <pt x="182" y="422" on="1"/>
        <pt x="449" y="422" on="1"/>
        <pt x="449" y="323" on="1"/>
        <pt x="182" y="323" on="1"/>
        <pt x="182" y="99" on="1"/>
        <pt x="490" y="99" on="1"/>
        <pt x="490" y="0" on="1"/>
        <pt x="65" y="0" on="1"/>
      </contour>
    </TTGlyph>
    <TTGlyph name="E.sc" xMin="62" yMin="0" xMax="445" yMax="577">
      <contour>
        <pt x="62" y="577" on="1"/>
        <pt x="438" y="577" on="1"/>
        <pt x="438" y="487" on="1"/>
        <pt x="172" y="487" on="1"/>
        <pt x="172" y="334" on="1"/>
        <pt x="410" y="334" on="1"/>
        <pt x="410" y="247" on="1"/>
        <pt x="172" y="247" on="1"/>
        <pt x="172" y="91" on="1"/>
        <pt x="445" y="91" on="1"/>
        <pt x="445" y="0" on="1"/>
        <pt x="62" y="0" on="1"/>
      </contour>
    </TTGlyph>
    <TTGlyph name="Eacute" xMin="65" yMin="0" xMax="490" yMax="950">
      <contour>
        <pt x="227" y="794" on="1"/>
        <pt x="298" y="950" on="1"/>
        <pt x="416" y="950" on="1"/>
        <pt x="312" y="787" on="1"/>
      </contour>
      <contour>
        <pt x="65" y="740" on="1"/>
        <pt x="481" y="740" on="1"/>
        <pt x="481" y="641" on="1"/>
        <pt x="182" y="641" on="1"/>
        <pt x="182" y="422" on="1"/>
        <pt x="449" y="422" on="1"/>
        <pt x="449" y="323" on="1"/>
        <pt x="182" y="323" on="1"/>
        <pt x="182" y="99" on="1"/>
        <pt x="490" y="99" on="1"/>
        <pt x="490" y="0" on="1"/>
        <pt x="65" y="0" on="1"/>
      </contour>
    </TTGlyph>
    <TTGlyph name="Eacute.sc" xMin="62" yMin="0" xMax="445" yMax="751">
      <contour>
        <pt x="62" y="577" on="1"/>
        <pt x="438" y="577" on="1"/>
        <pt x="438" y="487" on="1"/>
        <pt x="172" y="487" on="1"/>
        <pt x="172" y="334" on="1"/>
        <pt x="410" y="334" on="1"/>
        <pt x="410" y="247" on="1"/>
        <pt x="172" y="247" on="1"/>
        <pt x="172" y="91" on="1"/>
        <pt x="445" y="91" on="1"/>
        <pt x="445" y="0" on="1"/>
        <pt x="62" y="0" on="1"/>
      </contour>
      <contour>
        <pt x="207" y="621" on="1"/>
        <pt x="268" y="751" on="1"/>
        <pt x="380" y="751" on="1"/>
        <pt x="287" y="616" on="1"/>
      </contour>
    </TTGlyph>
    <TTGlyph name="Ebreve" xMin="65" yMin="0" xMax="490" yMax="962">
      <contour>
        <pt x="276" y="803" on="1"/>
        <pt x="198" y="803" on="0"/>
        <pt x="113" y="887" on="0"/>
        <pt x="113" y="962" on="1"/>
        <pt x="195" y="962" on="1"/>
        <pt x="195" y="911" on="0"/>
        <pt x="233" y="863" on="0"/>
        <pt x="276" y="863" on="1"/>
        <pt x="318" y="863" on="0"/>
        <pt x="357" y="911" on="0"/>
        <pt x="357" y="962" on="1"/>
        <pt x="439" y="962" on="1"/>
        <pt x="439" y="888" on="0"/>
        <pt x="354" y="803" on="0"/>
      </contour>
      <contour>
        <pt x="65" y="740" on="1"/>
        <pt x="481" y="740" on="1"/>
        <pt x="481" y="641" on="1"/>
        <pt x="182" y="641" on="1"/>
        <pt x="182" y="422" on="1"/>
        <pt x="449" y="422" on="1"/>
        <pt x="449" y="323" on="1"/>
        <pt x="182" y="323" on="1"/>
        <pt x="182" y="99" on="1"/>
        <pt x="490" y="99" on="1"/>
        <pt x="490" y="0" on="1"/>
        <pt x="65" y="0" on="1"/>
      </contour>
    </TTGlyph>
    <TTGlyph name="Ebreve.sc" xMin="62" yMin="0" xMax="445" yMax="755">
      <contour>
        <pt x="252" y="623" on="1"/>
        <pt x="180" y="623" on="0"/>
        <pt x="105" y="693" on="0"/>
        <pt x="105" y="755" on="1"/>
        <pt x="181" y="755" on="1"/>
        <pt x="181" y="713" on="0"/>
        <pt x="214" y="677" on="0"/>
        <pt x="252" y="677" on="1"/>
        <pt x="289" y="677" on="0"/>
        <pt x="323" y="713" on="0"/>
        <pt x="323" y="755" on="1"/>
        <pt x="400" y="755" on="1"/>
        <pt x="400" y="694" on="0"/>
        <pt x="324" y="623" on="0"/>
      </contour>
      <contour>
        <pt x="62" y="577" on="1"/>
        <pt x="438" y="577" on="1"/>
        <pt x="438" y="487" on="1"/>
        <pt x="172" y="487" on="1"/>
        <pt x="172" y="334" on="1"/>
        <pt x="410" y="334" on="1"/>
        <pt x="410" y="247" on="1"/>
        <pt x="172" y="247" on="1"/>
        <pt x="172" y="91" on="1"/>
        <pt x="445" y="91" on="1"/>
        <pt x="445" y="0" on="1"/>
        <pt x="62" y="0" on="1"/>
      </contour>
    </TTGlyph>
    <TTGlyph name="Ecaron" xMin="65" yMin="0" xMax="490" yMax="948">
      <contour>
        <pt x="136" y="948" on="1"/>
        <pt x="282" y="876" on="1"/>
        <pt x="429" y="948" on="1"/>
        <pt x="429" y="864" on="1"/>
        <pt x="282" y="792" on="1"/>
        <pt x="136" y="864" on="1"/>
      </contour>
      <contour>
        <pt x="65" y="740" on="1"/>
        <pt x="481" y="740" on="1"/>
        <pt x="481" y="641" on="1"/>
        <pt x="182" y="641" on="1"/>
        <pt x="182" y="422" on="1"/>
        <pt x="449" y="422" on="1"/>
        <pt x="449" y="323" on="1"/>
        <pt x="182" y="323" on="1"/>
        <pt x="182" y="99" on="1"/>
        <pt x="490" y="99" on="1"/>
        <pt x="490" y="0" on="1"/>
        <pt x="65" y="0" on="1"/>
      </contour>
    </TTGlyph>
    <TTGlyph name="Ecaron.sc" xMin="62" yMin="0" xMax="445" yMax="749">
      <contour>
        <pt x="62" y="577" on="1"/>
        <pt x="438" y="577" on="1"/>
        <pt x="438" y="487" on="1"/>
        <pt x="172" y="487" on="1"/>
        <pt x="172" y="334" on="1"/>
        <pt x="410" y="334" on="1"/>
        <pt x="410" y="247" on="1"/>
        <pt x="172" y="247" on="1"/>
        <pt x="172" y="91" on="1"/>
        <pt x="445" y="91" on="1"/>
        <pt x="445" y="0" on="1"/>
        <pt x="62" y="0" on="1"/>
      </contour>
      <contour>
        <pt x="125" y="673" on="1"/>
        <pt x="125" y="749" on="1"/>
        <pt x="258" y="693" on="1"/>
        <pt x="391" y="749" on="1"/>
        <pt x="391" y="673" on="1"/>
        <pt x="258" y="617" on="1"/>
      </contour>
    </TTGlyph>
    <TTGlyph name="Ecircumflex" xMin="65" yMin="0" xMax="490" yMax="957">
      <contour>
        <pt x="65" y="740" on="1"/>
        <pt x="481" y="740" on="1"/>
        <pt x="481" y="641" on="1"/>
        <pt x="182" y="641" on="1"/>
        <pt x="182" y="422" on="1"/>
        <pt x="449" y="422" on="1"/>
        <pt x="449" y="323" on="1"/>
        <pt x="182" y="323" on="1"/>
        <pt x="182" y="99" on="1"/>
        <pt x="490" y="99" on="1"/>
        <pt x="490" y="0" on="1"/>
        <pt x="65" y="0" on="1"/>
      </contour>
      <contour>
        <pt x="128" y="886" on="1"/>
        <pt x="275" y="957" on="1"/>
        <pt x="421" y="886" on="1"/>
        <pt x="421" y="802" on="1"/>
        <pt x="275" y="874" on="1"/>
        <pt x="128" y="802" on="1"/>
      </contour>
    </TTGlyph>
    <TTGlyph name="Ecircumflex.sc" xMin="62" yMin="0" xMax="445" yMax="753">
      <contour>
        <pt x="62" y="577" on="1"/>
        <pt x="438" y="577" on="1"/>
        <pt x="438" y="487" on="1"/>
        <pt x="172" y="487" on="1"/>
        <pt x="172" y="334" on="1"/>
        <pt x="410" y="334" on="1"/>
        <pt x="410" y="247" on="1"/>
        <pt x="172" y="247" on="1"/>
        <pt x="172" y="91" on="1"/>
        <pt x="445" y="91" on="1"/>
        <pt x="445" y="0" on="1"/>
        <pt x="62" y="0" on="1"/>
      </contour>
      <contour>
        <pt x="120" y="697" on="1"/>
        <pt x="253" y="753" on="1"/>
        <pt x="386" y="697" on="1"/>
        <pt x="386" y="622" on="1"/>
        <pt x="253" y="678" on="1"/>
        <pt x="120" y="622" on="1"/>
      </contour>
    </TTGlyph>
    <TTGlyph name="Edblgrave" xMin="63" yMin="0" xMax="490" yMax="950">
      <contour>
        <pt x="65" y="740" on="1"/>
        <pt x="481" y="740" on="1"/>
        <pt x="481" y="641" on="1"/>
        <pt x="182" y="641" on="1"/>
        <pt x="182" y="422" on="1"/>
        <pt x="449" y="422" on="1"/>
        <pt x="449" y="323" on="1"/>
        <pt x="182" y="323" on="1"/>
        <pt x="182" y="99" on="1"/>
        <pt x="490" y="99" on="1"/>
        <pt x="490" y="0" on="1"/>
        <pt x="65" y="0" on="1"/>
      </contour>
      <contour>
        <pt x="168" y="787" on="1"/>
        <pt x="63" y="950" on="1"/>
        <pt x="162" y="950" on="1"/>
        <pt x="233" y="799" on="1"/>
      </contour>
      <contour>
        <pt x="331" y="787" on="1"/>
        <pt x="226" y="950" on="1"/>
        <pt x="325" y="950" on="1"/>
        <pt x="396" y="799" on="1"/>
      </contour>
    </TTGlyph>
    <TTGlyph name="Edblgrave.sc" xMin="59" yMin="0" xMax="445" yMax="751">
      <contour>
        <pt x="62" y="577" on="1"/>
        <pt x="438" y="577" on="1"/>
        <pt x="438" y="487" on="1"/>
        <pt x="172" y="487" on="1"/>
        <pt x="172" y="334" on="1"/>
        <pt x="410" y="334" on="1"/>
        <pt x="410" y="247" on="1"/>
        <pt x="172" y="247" on="1"/>
        <pt x="172" y="91" on="1"/>
        <pt x="445" y="91" on="1"/>
        <pt x="445" y="0" on="1"/>
        <pt x="62" y="0" on="1"/>
      </contour>
      <contour>
        <pt x="59" y="751" on="1"/>
        <pt x="154" y="751" on="1"/>
        <pt x="214" y="624" on="1"/>
        <pt x="153" y="615" on="1"/>
      </contour>
      <contour>
        <pt x="207" y="751" on="1"/>
        <pt x="301" y="751" on="1"/>
        <pt x="362" y="624" on="1"/>
        <pt x="301" y="615" on="1"/>
      </contour>
    </TTGlyph>
    <TTGlyph name="Edieresis" xMin="65" yMin="0" xMax="490" yMax="936">
      <contour>
        <pt x="166" y="806" on="1"/>
        <pt x="132" y="806" on="0"/>
        <pt x="99" y="837" on="0"/>
        <pt x="99" y="872" on="1"/>
        <pt x="99" y="906" on="0"/>
        <pt x="132" y="936" on="0"/>
        <pt x="166" y="936" on="1"/>
        <pt x="199" y="936" on="0"/>
        <pt x="233" y="906" on="0"/>
        <pt x="233" y="872" on="1"/>
        <pt x="233" y="837" on="0"/>
        <pt x="199" y="806" on="0"/>
      </contour>
      <contour>
        <pt x="382" y="806" on="1"/>
        <pt x="348" y="806" on="0"/>
        <pt x="316" y="837" on="0"/>
        <pt x="316" y="872" on="1"/>
        <pt x="316" y="906" on="0"/>
        <pt x="348" y="936" on="0"/>
        <pt x="382" y="936" on="1"/>
        <pt x="415" y="936" on="0"/>
        <pt x="450" y="906" on="0"/>
        <pt x="450" y="872" on="1"/>
        <pt x="450" y="837" on="0"/>
        <pt x="415" y="806" on="0"/>
      </contour>
      <contour>
        <pt x="65" y="740" on="1"/>
        <pt x="481" y="740" on="1"/>
        <pt x="481" y="641" on="1"/>
        <pt x="182" y="641" on="1"/>
        <pt x="182" y="422" on="1"/>
        <pt x="449" y="422" on="1"/>
        <pt x="449" y="323" on="1"/>
        <pt x="182" y="323" on="1"/>
        <pt x="182" y="99" on="1"/>
        <pt x="490" y="99" on="1"/>
        <pt x="490" y="0" on="1"/>
        <pt x="65" y="0" on="1"/>
      </contour>
    </TTGlyph>
    <TTGlyph name="Edieresis.sc" xMin="62" yMin="0" xMax="445" yMax="746">
      <contour>
        <pt x="153" y="627" on="1"/>
        <pt x="121" y="627" on="0"/>
        <pt x="91" y="655" on="0"/>
        <pt x="91" y="687" on="1"/>
        <pt x="91" y="719" on="0"/>
        <pt x="121" y="746" on="0"/>
        <pt x="153" y="746" on="1"/>
        <pt x="216" y="746" on="0"/>
        <pt x="216" y="687" on="1"/>
        <pt x="216" y="655" on="0"/>
        <pt x="184" y="627" on="0"/>
      </contour>
      <contour>
        <pt x="351" y="627" on="1"/>
        <pt x="319" y="627" on="0"/>
        <pt x="289" y="655" on="0"/>
        <pt x="289" y="687" on="1"/>
        <pt x="289" y="719" on="0"/>
        <pt x="319" y="746" on="0"/>
        <pt x="351" y="746" on="1"/>
        <pt x="414" y="746" on="0"/>
        <pt x="414" y="687" on="1"/>
        <pt x="414" y="655" on="0"/>
        <pt x="382" y="627" on="0"/>
      </contour>
      <contour>
        <pt x="62" y="577" on="1"/>
        <pt x="438" y="577" on="1"/>
        <pt x="438" y="487" on="1"/>
        <pt x="172" y="487" on="1"/>
        <pt x="172" y="334" on="1"/>
        <pt x="410" y="334" on="1"/>
        <pt x="410" y="247" on="1"/>
        <pt x="172" y="247" on="1"/>
        <pt x="172" y="91" on="1"/>
        <pt x="445" y="91" on="1"/>
        <pt x="445" y="0" on="1"/>
        <pt x="62" y="0" on="1"/>
      </contour>
    </TTGlyph>
    <TTGlyph name="Edotaccent" xMin="65" yMin="0" xMax="490" yMax="929">
      <contour>
        <pt x="275" y="799" on="1"/>
        <pt x="241" y="799" on="0"/>
        <pt x="208" y="829" on="0"/>
        <pt x="208" y="864" on="1"/>
        <pt x="208" y="899" on="0"/>
        <pt x="241" y="929" on="0"/>
        <pt x="275" y="929" on="1"/>
        <pt x="342" y="929" on="0"/>
        <pt x="342" y="864" on="1"/>
        <pt x="342" y="829" on="0"/>
        <pt x="308" y="799" on="0"/>
      </contour>
      <contour>
        <pt x="65" y="740" on="1"/>
        <pt x="481" y="740" on="1"/>
        <pt x="481" y="641" on="1"/>
        <pt x="182" y="641" on="1"/>
        <pt x="182" y="422" on="1"/>
        <pt x="449" y="422" on="1"/>
        <pt x="449" y="323" on="1"/>
        <pt x="182" y="323" on="1"/>
        <pt x="182" y="99" on="1"/>
        <pt x="490" y="99" on="1"/>
        <pt x="490" y="0" on="1"/>
        <pt x="65" y="0" on="1"/>
      </contour>
    </TTGlyph>
    <TTGlyph name="Edotaccent.sc" xMin="62" yMin="0" xMax="445" yMax="742">
      <contour>
        <pt x="251" y="623" on="1"/>
        <pt x="219" y="623" on="0"/>
        <pt x="190" y="651" on="0"/>
        <pt x="190" y="683" on="1"/>
        <pt x="190" y="715" on="0"/>
        <pt x="219" y="742" on="0"/>
        <pt x="251" y="742" on="1"/>
        <pt x="283" y="742" on="0"/>
        <pt x="314" y="715" on="0"/>
        <pt x="314" y="683" on="1"/>
        <pt x="314" y="651" on="0"/>
        <pt x="283" y="623" on="0"/>
      </contour>
      <contour>
        <pt x="62" y="577" on="1"/>
        <pt x="438" y="577" on="1"/>
        <pt x="438" y="487" on="1"/>
        <pt x="172" y="487" on="1"/>
        <pt x="172" y="334" on="1"/>
        <pt x="410" y="334" on="1"/>
        <pt x="410" y="247" on="1"/>
        <pt x="172" y="247" on="1"/>
        <pt x="172" y="91" on="1"/>
        <pt x="445" y="91" on="1"/>
        <pt x="445" y="0" on="1"/>
        <pt x="62" y="0" on="1"/>
      </contour>
    </TTGlyph>
    <TTGlyph name="Edotbelow" xMin="65" yMin="-191" xMax="490" yMax="740">
      <contour>
        <pt x="65" y="740" on="1"/>
        <pt x="481" y="740" on="1"/>
        <pt x="481" y="641" on="1"/>
        <pt x="182" y="641" on="1"/>
        <pt x="182" y="422" on="1"/>
        <pt x="449" y="422" on="1"/>
        <pt x="449" y="323" on="1"/>
        <pt x="182" y="323" on="1"/>
        <pt x="182" y="99" on="1"/>
        <pt x="490" y="99" on="1"/>
        <pt x="490" y="0" on="1"/>
        <pt x="65" y="0" on="1"/>
      </contour>
      <contour>
        <pt x="285" y="-191" on="1"/>
        <pt x="256" y="-191" on="0"/>
        <pt x="228" y="-164" on="0"/>
        <pt x="228" y="-134" on="1"/>
        <pt x="228" y="-104" on="0"/>
        <pt x="256" y="-78" on="0"/>
        <pt x="285" y="-78" on="1"/>
        <pt x="314" y="-78" on="0"/>
        <pt x="343" y="-104" on="0"/>
        <pt x="343" y="-134" on="1"/>
        <pt x="343" y="-164" on="0"/>
        <pt x="314" y="-191" on="0"/>
      </contour>
    </TTGlyph>
    <TTGlyph name="Edotbelow.sc" xMin="62" yMin="-156" xMax="445" yMax="577">
      <contour>
        <pt x="261" y="-156" on="1"/>
        <pt x="234" y="-156" on="0"/>
        <pt x="209" y="-133" on="0"/>
        <pt x="209" y="-107" on="1"/>
        <pt x="209" y="-57" on="0"/>
        <pt x="261" y="-57" on="1"/>
        <pt x="315" y="-57" on="0"/>
        <pt x="315" y="-107" on="1"/>
        <pt x="315" y="-133" on="0"/>
        <pt x="288" y="-156" on="0"/>
      </contour>
      <contour>
        <pt x="62" y="577" on="1"/>
        <pt x="438" y="577" on="1"/>
        <pt x="438" y="487" on="1"/>
        <pt x="172" y="487" on="1"/>
        <pt x="172" y="334" on="1"/>
        <pt x="410" y="334" on="1"/>
        <pt x="410" y="247" on="1"/>
        <pt x="172" y="247" on="1"/>
        <pt x="172" y="91" on="1"/>
        <pt x="445" y="91" on="1"/>
        <pt x="445" y="0" on="1"/>
        <pt x="62" y="0" on="1"/>
      </contour>
    </TTGlyph>
    <TTGlyph name="Egrave" xMin="65" yMin="0" xMax="490" yMax="950">
      <contour>
        <pt x="228" y="787" on="1"/>
        <pt x="124" y="950" on="1"/>
        <pt x="242" y="950" on="1"/>
        <pt x="313" y="799" on="1"/>
      </contour>
      <contour>
        <pt x="65" y="740" on="1"/>
        <pt x="481" y="740" on="1"/>
        <pt x="481" y="641" on="1"/>
        <pt x="182" y="641" on="1"/>
        <pt x="182" y="422" on="1"/>
        <pt x="449" y="422" on="1"/>
        <pt x="449" y="323" on="1"/>
        <pt x="182" y="323" on="1"/>
        <pt x="182" y="99" on="1"/>
        <pt x="490" y="99" on="1"/>
        <pt x="490" y="0" on="1"/>
        <pt x="65" y="0" on="1"/>
      </contour>
    </TTGlyph>
    <TTGlyph name="Egrave.sc" xMin="62" yMin="0" xMax="445" yMax="751">
      <contour>
        <pt x="62" y="577" on="1"/>
        <pt x="438" y="577" on="1"/>
        <pt x="438" y="487" on="1"/>
        <pt x="172" y="487" on="1"/>
        <pt x="172" y="334" on="1"/>
        <pt x="410" y="334" on="1"/>
        <pt x="410" y="247" on="1"/>
        <pt x="172" y="247" on="1"/>
        <pt x="172" y="91" on="1"/>
        <pt x="445" y="91" on="1"/>
        <pt x="445" y="0" on="1"/>
        <pt x="62" y="0" on="1"/>
      </contour>
      <contour>
        <pt x="117" y="751" on="1"/>
        <pt x="227" y="751" on="1"/>
        <pt x="289" y="624" on="1"/>
        <pt x="210" y="616" on="1"/>
      </contour>
    </TTGlyph>
    <TTGlyph name="Einvertedbreve" xMin="65" yMin="0" xMax="490" yMax="972">
      <contour>
        <pt x="65" y="740" on="1"/>
        <pt x="481" y="740" on="1"/>
        <pt x="481" y="641" on="1"/>
        <pt x="182" y="641" on="1"/>
        <pt x="182" y="422" on="1"/>
        <pt x="449" y="422" on="1"/>
        <pt x="449" y="323" on="1"/>
        <pt x="182" y="323" on="1"/>
        <pt x="182" y="99" on="1"/>
        <pt x="490" y="99" on="1"/>
        <pt x="490" y="0" on="1"/>
        <pt x="65" y="0" on="1"/>
      </contour>
      <contour>
        <pt x="356" y="813" on="1"/>
        <pt x="356" y="865" on="0"/>
        <pt x="317" y="912" on="0"/>
        <pt x="275" y="912" on="1"/>
        <pt x="232" y="912" on="0"/>
        <pt x="194" y="865" on="0"/>
        <pt x="194" y="813" on="1"/>
        <pt x="112" y="813" on="1"/>
        <pt x="112" y="888" on="0"/>
        <pt x="197" y="972" on="0"/>
        <pt x="275" y="972" on="1"/>
        <pt x="353" y="972" on="0"/>
        <pt x="438" y="888" on="0"/>
        <pt x="438" y="813" on="1"/>
      </contour>
    </TTGlyph>
    <TTGlyph name="Einvertedbreve.sc" xMin="62" yMin="0" xMax="445" yMax="762">
      <contour>
        <pt x="105" y="631" on="1"/>
        <pt x="105" y="693" on="0"/>
        <pt x="180" y="762" on="0"/>
        <pt x="253" y="762" on="1"/>
        <pt x="324" y="762" on="0"/>
        <pt x="400" y="693" on="0"/>
        <pt x="400" y="631" on="1"/>
        <pt x="323" y="631" on="1"/>
        <pt x="323" y="673" on="0"/>
        <pt x="290" y="708" on="0"/>
        <pt x="253" y="708" on="1"/>
        <pt x="215" y="708" on="0"/>
        <pt x="181" y="673" on="0"/>
        <pt x="181" y="631" on="1"/>
      </contour>
      <contour>
        <pt x="62" y="577" on="1"/>
        <pt x="438" y="577" on="1"/>
        <pt x="438" y="487" on="1"/>
        <pt x="172" y="487" on="1"/>
        <pt x="172" y="334" on="1"/>
        <pt x="410" y="334" on="1"/>
        <pt x="410" y="247" on="1"/>
        <pt x="172" y="247" on="1"/>
        <pt x="172" y="91" on="1"/>
        <pt x="445" y="91" on="1"/>
        <pt x="445" y="0" on="1"/>
        <pt x="62" y="0" on="1"/>
      </contour>
    </TTGlyph>
    <TTGlyph name="Emacron" xMin="65" yMin="0" xMax="490" yMax="919">
      <contour>
        <pt x="131" y="919" on="1"/>
        <pt x="409" y="919" on="1"/>
        <pt x="409" y="839" on="1"/>
        <pt x="131" y="839" on="1"/>
      </contour>
      <contour>
        <pt x="65" y="740" on="1"/>
        <pt x="481" y="740" on="1"/>
        <pt x="481" y="641" on="1"/>
        <pt x="182" y="641" on="1"/>
        <pt x="182" y="422" on="1"/>
        <pt x="449" y="422" on="1"/>
        <pt x="449" y="323" on="1"/>
        <pt x="182" y="323" on="1"/>
        <pt x="182" y="99" on="1"/>
        <pt x="490" y="99" on="1"/>
        <pt x="490" y="0" on="1"/>
        <pt x="65" y="0" on="1"/>
      </contour>
    </TTGlyph>
    <TTGlyph name="Emacron.sc" xMin="62" yMin="0" xMax="445" yMax="728">
      <contour>
        <pt x="62" y="577" on="1"/>
        <pt x="438" y="577" on="1"/>
        <pt x="438" y="487" on="1"/>
        <pt x="172" y="487" on="1"/>
        <pt x="172" y="334" on="1"/>
        <pt x="410" y="334" on="1"/>
        <pt x="410" y="247" on="1"/>
        <pt x="172" y="247" on="1"/>
        <pt x="172" y="91" on="1"/>
        <pt x="445" y="91" on="1"/>
        <pt x="445" y="0" on="1"/>
        <pt x="62" y="0" on="1"/>
      </contour>
      <contour>
        <pt x="121" y="728" on="1"/>
        <pt x="376" y="728" on="1"/>
        <pt x="376" y="654" on="1"/>
        <pt x="121" y="654" on="1"/>
      </contour>
    </TTGlyph>
    <TTGlyph name="Eng" xMin="65" yMin="-195" xMax="600" yMax="740">
      <contour>
        <pt x="414" y="-170" on="1"/>
        <pt x="435" y="-116" on="0"/>
        <pt x="467" y="-11" on="0"/>
        <pt x="475" y="37" on="1"/>
        <pt x="219" y="455" on="1"/>
        <pt x="178" y="540" on="1"/>
        <pt x="170" y="539" on="1"/>
        <pt x="170" y="0" on="1"/>
        <pt x="65" y="0" on="1"/>
        <pt x="65" y="740" on="1"/>
        <pt x="165" y="740" on="1"/>
        <pt x="446" y="284" on="1"/>
        <pt x="487" y="202" on="1"/>
        <pt x="495" y="202" on="1"/>
        <pt x="495" y="740" on="1"/>
        <pt x="600" y="740" on="1"/>
        <pt x="600" y="90" on="1"/>
        <pt x="600" y="66" on="0"/>
        <pt x="583" y="-3" on="0"/>
        <pt x="554" y="-80" on="0"/>
        <pt x="514" y="-160" on="0"/>
        <pt x="492" y="-195" on="1"/>
      </contour>
    </TTGlyph>
    <TTGlyph name="Eng.sc" xMin="63" yMin="-156" xMax="542" yMax="577">
      <contour>
        <pt x="373" y="-133" on="1"/>
        <pt x="393" y="-88" on="0"/>
        <pt x="420" y="-4" on="0"/>
        <pt x="427" y="37" on="1"/>
        <pt x="206" y="325" on="1"/>
        <pt x="169" y="389" on="1"/>
        <pt x="161" y="389" on="1"/>
        <pt x="161" y="0" on="1"/>
        <pt x="63" y="0" on="1"/>
        <pt x="63" y="577" on="1"/>
        <pt x="156" y="577" on="1"/>
        <pt x="400" y="254" on="1"/>
        <pt x="437" y="189" on="1"/>
        <pt x="444" y="190" on="1"/>
        <pt x="444" y="577" on="1"/>
        <pt x="542" y="577" on="1"/>
        <pt x="542" y="81" on="1"/>
        <pt x="542" y="61" on="0"/>
        <pt x="527" y="4" on="0"/>
        <pt x="501" y="-61" on="0"/>
        <pt x="466" y="-127" on="0"/>
        <pt x="446" y="-156" on="1"/>
      </contour>
    </TTGlyph>
    <TTGlyph name="Eogonek" xMin="65" yMin="-220" xMax="490" yMax="740">
      <contour>
        <pt x="65" y="740" on="1"/>
        <pt x="481" y="740" on="1"/>
        <pt x="481" y="641" on="1"/>
        <pt x="182" y="641" on="1"/>
        <pt x="182" y="422" on="1"/>
        <pt x="449" y="422" on="1"/>
        <pt x="449" y="323" on="1"/>
        <pt x="182" y="323" on="1"/>
        <pt x="182" y="99" on="1"/>
        <pt x="490" y="99" on="1"/>
        <pt x="490" y="-12" on="1"/>
        <pt x="438" y="-32" on="0"/>
        <pt x="391" y="-90" on="0"/>
        <pt x="391" y="-116" on="1"/>
        <pt x="391" y="-149" on="0"/>
        <pt x="432" y="-149" on="1"/>
        <pt x="447" y="-149" on="0"/>
        <pt x="478" y="-142" on="0"/>
        <pt x="490" y="-137" on="1"/>
        <pt x="490" y="-208" on="1"/>
        <pt x="471" y="-214" on="0"/>
        <pt x="439" y="-220" on="0"/>
        <pt x="420" y="-220" on="1"/>
        <pt x="313" y="-220" on="0"/>
        <pt x="313" y="-126" on="1"/>
        <pt x="313" y="-91" on="0"/>
        <pt x="352" y="-30" on="0"/>
        <pt x="396" y="0" on="1"/>
        <pt x="65" y="0" on="1"/>
      </contour>
    </TTGlyph>
    <TTGlyph name="Eogonek.sc" xMin="63" yMin="-172" xMax="446" yMax="577">
      <contour>
        <pt x="382" y="-172" on="1"/>
        <pt x="284" y="-172" on="0"/>
        <pt x="284" y="-97" on="1"/>
        <pt x="284" y="-69" on="0"/>
        <pt x="317" y="-24" on="0"/>
        <pt x="355" y="0" on="1"/>
        <pt x="63" y="0" on="1"/>
        <pt x="63" y="577" on="1"/>
        <pt x="438" y="577" on="1"/>
        <pt x="438" y="487" on="1"/>
        <pt x="173" y="487" on="1"/>
        <pt x="173" y="334" on="1"/>
        <pt x="410" y="334" on="1"/>
        <pt x="410" y="247" on="1"/>
        <pt x="173" y="247" on="1"/>
        <pt x="173" y="91" on="1"/>
        <pt x="446" y="91" on="1"/>
        <pt x="446" y="-7" on="1"/>
        <pt x="398" y="-25" on="0"/>
        <pt x="358" y="-69" on="0"/>
        <pt x="358" y="-86" on="1"/>
        <pt x="358" y="-107" on="0"/>
        <pt x="393" y="-107" on="1"/>
        <pt x="407" y="-107" on="0"/>
        <pt x="435" y="-102" on="0"/>
        <pt x="446" y="-98" on="1"/>
        <pt x="446" y="-162" on="1"/>
        <pt x="429" y="-167" on="0"/>
        <pt x="399" y="-172" on="0"/>
      </contour>
    </TTGlyph>
    <TTGlyph name="Eth" xMin="-1" yMin="-15" xMax="590" yMax="750">
      <contour>
        <pt x="-1" y="416" on="1"/>
        <pt x="83" y="416" on="1"/>
        <pt x="83" y="736" on="1"/>
        <pt x="140" y="743" on="0"/>
        <pt x="220" y="750" on="0"/>
        <pt x="255" y="750" on="1"/>
        <pt x="344" y="750" on="0"/>
        <pt x="471" y="707" on="0"/>
        <pt x="552" y="614" on="0"/>
        <pt x="590" y="470" on="0"/>
        <pt x="590" y="369" on="1"/>
        <pt x="590" y="267" on="0"/>
        <pt x="550" y="121" on="0"/>
        <pt x="464" y="28" on="0"/>
        <pt x="328" y="-15" on="0"/>
        <pt x="232" y="-15" on="1"/>
        <pt x="200" y="-15" on="0"/>
        <pt x="130" y="-11" on="0"/>
        <pt x="83" y="-6" on="1"/>
        <pt x="83" y="325" on="1"/>
        <pt x="-1" y="325" on="1"/>
      </contour>
      <contour>
        <pt x="269" y="82" on="1"/>
        <pt x="323" y="82" on="0"/>
        <pt x="399" y="113" on="0"/>
        <pt x="447" y="181" on="0"/>
        <pt x="470" y="290" on="0"/>
        <pt x="470" y="369" on="1"/>
        <pt x="470" y="448" on="0"/>
        <pt x="449" y="556" on="0"/>
        <pt x="402" y="624" on="0"/>
        <pt x="326" y="654" on="0"/>
        <pt x="272" y="654" on="1"/>
        <pt x="229" y="654" on="0"/>
        <pt x="198" y="647" on="1"/>
        <pt x="198" y="416" on="1"/>
        <pt x="314" y="416" on="1"/>
        <pt x="314" y="325" on="1"/>
        <pt x="198" y="325" on="1"/>
        <pt x="198" y="87" on="1"/>
        <pt x="221" y="85" on="0"/>
        <pt x="255" y="82" on="0"/>
      </contour>
    </TTGlyph>
    <TTGlyph name="Eth.sc" xMin="4" yMin="-11" xMax="536" yMax="585">
      <contour>
        <pt x="4" y="332" on="1"/>
        <pt x="78" y="332" on="1"/>
        <pt x="78" y="576" on="1"/>
        <pt x="129" y="580" on="0"/>
        <pt x="203" y="585" on="0"/>
        <pt x="235" y="585" on="1"/>
        <pt x="315" y="585" on="0"/>
        <pt x="429" y="552" on="0"/>
        <pt x="502" y="480" on="0"/>
        <pt x="536" y="367" on="0"/>
        <pt x="536" y="288" on="1"/>
        <pt x="536" y="208" on="0"/>
        <pt x="500" y="94" on="0"/>
        <pt x="423" y="22" on="0"/>
        <pt x="302" y="-11" on="0"/>
        <pt x="216" y="-11" on="1"/>
        <pt x="186" y="-11" on="0"/>
        <pt x="120" y="-7" on="0"/>
        <pt x="78" y="-2" on="1"/>
        <pt x="78" y="247" on="1"/>
        <pt x="4" y="247" on="1"/>
      </contour>
      <contour>
        <pt x="252" y="80" on="1"/>
        <pt x="298" y="80" on="0"/>
        <pt x="363" y="101" on="0"/>
        <pt x="404" y="149" on="0"/>
        <pt x="423" y="229" on="0"/>
        <pt x="423" y="288" on="1"/>
        <pt x="423" y="347" on="0"/>
        <pt x="405" y="426" on="0"/>
        <pt x="364" y="474" on="0"/>
        <pt x="299" y="495" on="0"/>
        <pt x="251" y="495" on="1"/>
        <pt x="233" y="495" on="0"/>
        <pt x="202" y="493" on="0"/>
        <pt x="187" y="491" on="1"/>
        <pt x="187" y="332" on="1"/>
        <pt x="286" y="332" on="1"/>
        <pt x="286" y="247" on="1"/>
        <pt x="187" y="247" on="1"/>
        <pt x="187" y="84" on="1"/>
        <pt x="208" y="82" on="0"/>
        <pt x="238" y="80" on="0"/>
      </contour>
    </TTGlyph>
    <TTGlyph name="Etilde" xMin="65" yMin="0" xMax="490" yMax="933">
      <contour>
        <pt x="109" y="841" on="1"/>
        <pt x="132" y="884" on="0"/>
        <pt x="195" y="933" on="0"/>
        <pt x="226" y="933" on="1"/>
        <pt x="245" y="933" on="0"/>
        <pt x="280" y="920" on="0"/>
        <pt x="314" y="905" on="0"/>
        <pt x="347" y="892" on="0"/>
        <pt x="365" y="892" on="1"/>
        <pt x="399" y="892" on="0"/>
        <pt x="430" y="932" on="1"/>
        <pt x="455" y="911" on="1"/>
        <pt x="435" y="865" on="0"/>
        <pt x="372" y="817" on="0"/>
        <pt x="340" y="817" on="1"/>
        <pt x="321" y="817" on="0"/>
        <pt x="287" y="829" on="0"/>
        <pt x="254" y="844" on="0"/>
        <pt x="220" y="857" on="0"/>
        <pt x="202" y="857" on="1"/>
        <pt x="167" y="857" on="0"/>
        <pt x="132" y="819" on="1"/>
      </contour>
      <contour>
        <pt x="65" y="740" on="1"/>
        <pt x="481" y="740" on="1"/>
        <pt x="481" y="641" on="1"/>
        <pt x="182" y="641" on="1"/>
        <pt x="182" y="422" on="1"/>
        <pt x="449" y="422" on="1"/>
        <pt x="449" y="323" on="1"/>
        <pt x="182" y="323" on="1"/>
        <pt x="182" y="99" on="1"/>
        <pt x="490" y="99" on="1"/>
        <pt x="490" y="0" on="1"/>
        <pt x="65" y="0" on="1"/>
      </contour>
    </TTGlyph>
    <TTGlyph name="Etilde.sc" xMin="62" yMin="0" xMax="445" yMax="737">
      <contour>
        <pt x="101" y="656" on="1"/>
        <pt x="123" y="695" on="0"/>
        <pt x="181" y="737" on="0"/>
        <pt x="209" y="737" on="1"/>
        <pt x="226" y="737" on="0"/>
        <pt x="257" y="727" on="0"/>
        <pt x="287" y="716" on="0"/>
        <pt x="317" y="706" on="0"/>
        <pt x="334" y="706" on="1"/>
        <pt x="367" y="706" on="0"/>
        <pt x="394" y="737" on="1"/>
        <pt x="416" y="719" on="1"/>
        <pt x="396" y="678" on="0"/>
        <pt x="339" y="636" on="0"/>
        <pt x="311" y="636" on="1"/>
        <pt x="294" y="636" on="0"/>
        <pt x="262" y="646" on="0"/>
        <pt x="232" y="658" on="0"/>
        <pt x="201" y="668" on="0"/>
        <pt x="185" y="668" on="1"/>
        <pt x="152" y="668" on="0"/>
        <pt x="121" y="638" on="1"/>
      </contour>
      <contour>
        <pt x="62" y="577" on="1"/>
        <pt x="438" y="577" on="1"/>
        <pt x="438" y="487" on="1"/>
        <pt x="172" y="487" on="1"/>
        <pt x="172" y="334" on="1"/>
        <pt x="410" y="334" on="1"/>
        <pt x="410" y="247" on="1"/>
        <pt x="172" y="247" on="1"/>
        <pt x="172" y="91" on="1"/>
        <pt x="445" y="91" on="1"/>
        <pt x="445" y="0" on="1"/>
        <pt x="62" y="0" on="1"/>
      </contour>
    </TTGlyph>
    <TTGlyph name="Euro" xMin="32" yMin="-10" xMax="511" yMax="749">
      <contour>
        <pt x="32" y="489" on="1"/>
        <pt x="112" y="489" on="1"/>
        <pt x="133" y="623" on="0"/>
        <pt x="283" y="749" on="0"/>
        <pt x="417" y="749" on="1"/>
        <pt x="472" y="749" on="0"/>
        <pt x="511" y="737" on="1"/>
        <pt x="488" y="645" on="1"/>
        <pt x="471" y="647" on="0"/>
        <pt x="445" y="649" on="0"/>
        <pt x="430" y="649" on="1"/>
        <pt x="385" y="649" on="0"/>
        <pt x="316" y="632" on="0"/>
        <pt x="268" y="594" on="0"/>
        <pt x="237" y="533" on="0"/>
        <pt x="229" y="489" on="1"/>
        <pt x="442" y="489" on="1"/>
        <pt x="422" y="419" on="1"/>
        <pt x="222" y="419" on="1"/>
        <pt x="221" y="407" on="0"/>
        <pt x="221" y="382" on="0"/>
        <pt x="221" y="369" on="1"/>
        <pt x="221" y="356" on="0"/>
        <pt x="221" y="331" on="0"/>
        <pt x="222" y="320" on="1"/>
        <pt x="410" y="320" on="1"/>
        <pt x="390" y="250" on="1"/>
        <pt x="229" y="250" on="1"/>
        <pt x="245" y="163" on="0"/>
        <pt x="339" y="89" on="0"/>
        <pt x="429" y="89" on="1"/>
        <pt x="447" y="89" on="0"/>
        <pt x="486" y="94" on="0"/>
        <pt x="504" y="99" on="1"/>
        <pt x="504" y="1" on="1"/>
        <pt x="468" y="-10" on="0"/>
        <pt x="416" y="-10" on="1"/>
        <pt x="285" y="-9" on="0"/>
        <pt x="134" y="118" on="0"/>
        <pt x="112" y="250" on="1"/>
        <pt x="32" y="250" on="1"/>
        <pt x="32" y="320" on="1"/>
        <pt x="104" y="320" on="1"/>
        <pt x="103" y="332" on="0"/>
        <pt x="103" y="356" on="0"/>
        <pt x="103" y="369" on="1"/>
        <pt x="103" y="382" on="0"/>
        <pt x="103" y="407" on="0"/>
        <pt x="104" y="419" on="1"/>
        <pt x="32" y="419" on="1"/>
      </contour>
    </TTGlyph>
    <TTGlyph name="Euro.tab" xMin="29" yMin="-10" xMax="512" yMax="749">
      <contour>
        <pt x="29" y="489" on="1"/>
        <pt x="110" y="489" on="1"/>
        <pt x="132" y="623" on="0"/>
        <pt x="282" y="749" on="0"/>
        <pt x="416" y="749" on="1"/>
        <pt x="446" y="749" on="0"/>
        <pt x="492" y="743" on="0"/>
        <pt x="512" y="737" on="1"/>
        <pt x="489" y="645" on="1"/>
        <pt x="472" y="647" on="0"/>
        <pt x="445" y="649" on="0"/>
        <pt x="430" y="649" on="1"/>
        <pt x="340" y="649" on="0"/>
        <pt x="244" y="576" on="0"/>
        <pt x="229" y="489" on="1"/>
        <pt x="442" y="489" on="1"/>
        <pt x="422" y="419" on="1"/>
        <pt x="219" y="419" on="1"/>
        <pt x="218" y="411" on="0"/>
        <pt x="218" y="378" on="0"/>
        <pt x="218" y="369" on="1"/>
        <pt x="218" y="360" on="0"/>
        <pt x="218" y="328" on="0"/>
        <pt x="219" y="320" on="1"/>
        <pt x="410" y="320" on="1"/>
        <pt x="390" y="250" on="1"/>
        <pt x="229" y="250" on="1"/>
        <pt x="245" y="164" on="0"/>
        <pt x="340" y="89" on="0"/>
        <pt x="429" y="89" on="1"/>
        <pt x="447" y="89" on="0"/>
        <pt x="487" y="94" on="0"/>
        <pt x="505" y="99" on="1"/>
        <pt x="505" y="1" on="1"/>
        <pt x="469" y="-10" on="0"/>
        <pt x="416" y="-10" on="1"/>
        <pt x="284" y="-9" on="0"/>
        <pt x="133" y="118" on="0"/>
        <pt x="110" y="250" on="1"/>
        <pt x="29" y="250" on="1"/>
        <pt x="29" y="320" on="1"/>
        <pt x="102" y="320" on="1"/>
        <pt x="100" y="332" on="0"/>
        <pt x="100" y="356" on="0"/>
        <pt x="100" y="369" on="1"/>
        <pt x="100" y="383" on="0"/>
        <pt x="101" y="407" on="0"/>
        <pt x="102" y="419" on="1"/>
        <pt x="29" y="419" on="1"/>
      </contour>
    </TTGlyph>
    <TTGlyph name="F" xMin="65" yMin="0" xMax="466" yMax="740">
      <contour>
        <pt x="65" y="740" on="1"/>
        <pt x="466" y="740" on="1"/>
        <pt x="466" y="641" on="1"/>
        <pt x="182" y="641" on="1"/>
        <pt x="182" y="412" on="1"/>
        <pt x="442" y="412" on="1"/>
        <pt x="442" y="313" on="1"/>
        <pt x="182" y="313" on="1"/>
        <pt x="182" y="0" on="1"/>
        <pt x="65" y="0" on="1"/>
      </contour>
    </TTGlyph>
    <TTGlyph name="F.sc" xMin="62" yMin="0" xMax="426" yMax="577">
      <contour>
        <pt x="62" y="577" on="1"/>
        <pt x="426" y="577" on="1"/>
        <pt x="426" y="485" on="1"/>
        <pt x="172" y="485" on="1"/>
        <pt x="172" y="326" on="1"/>
        <pt x="404" y="326" on="1"/>
        <pt x="404" y="233" on="1"/>
        <pt x="172" y="233" on="1"/>
        <pt x="172" y="0" on="1"/>
        <pt x="62" y="0" on="1"/>
      </contour>
    </TTGlyph>
    <TTGlyph name="F_B.sc" xMin="62" yMin="-8" xMax="934" yMax="585">
      <contour>
        <pt x="62" y="577" on="1"/>
        <pt x="426" y="577" on="1"/>
        <pt x="426" y="485" on="1"/>
        <pt x="172" y="485" on="1"/>
        <pt x="172" y="326" on="1"/>
        <pt x="404" y="326" on="1"/>
        <pt x="404" y="233" on="1"/>
        <pt x="172" y="233" on="1"/>
        <pt x="172" y="0" on="1"/>
        <pt x="62" y="0" on="1"/>
      </contour>
      <contour>
        <pt x="681" y="-8" on="1"/>
        <pt x="639" y="-8" on="0"/>
        <pt x="544" y="-1" on="0"/>
        <pt x="507" y="4" on="1"/>
        <pt x="507" y="574" on="1"/>
        <pt x="565" y="580" on="0"/>
        <pt x="644" y="585" on="0"/>
        <pt x="680" y="585" on="1"/>
        <pt x="803" y="585" on="0"/>
        <pt x="916" y="508" on="0"/>
        <pt x="916" y="424" on="1"/>
        <pt x="916" y="319" on="0"/>
        <pt x="816" y="298" on="1"/>
        <pt x="816" y="295" on="1"/>
        <pt x="873" y="285" on="0"/>
        <pt x="934" y="214" on="0"/>
        <pt x="934" y="156" on="1"/>
        <pt x="934" y="-8" on="0"/>
      </contour>
      <contour>
        <pt x="698" y="75" on="1"/>
        <pt x="826" y="75" on="0"/>
        <pt x="826" y="163" on="1"/>
        <pt x="826" y="211" on="0"/>
        <pt x="764" y="252" on="0"/>
        <pt x="689" y="252" on="1"/>
        <pt x="609" y="252" on="1"/>
        <pt x="609" y="80" on="1"/>
        <pt x="620" y="78" on="0"/>
        <pt x="670" y="75" on="0"/>
      </contour>
      <contour>
        <pt x="688" y="329" on="1"/>
        <pt x="754" y="329" on="0"/>
        <pt x="806" y="367" on="0"/>
        <pt x="806" y="417" on="1"/>
        <pt x="806" y="461" on="0"/>
        <pt x="751" y="501" on="0"/>
        <pt x="692" y="501" on="1"/>
        <pt x="672" y="501" on="0"/>
        <pt x="632" y="499" on="0"/>
        <pt x="609" y="496" on="1"/>
        <pt x="609" y="329" on="1"/>
      </contour>
    </TTGlyph>
    <TTGlyph name="F_F.sc" xMin="62" yMin="0" xMax="870" yMax="577">
      <contour>
        <pt x="62" y="577" on="1"/>
        <pt x="426" y="577" on="1"/>
        <pt x="426" y="485" on="1"/>
        <pt x="172" y="485" on="1"/>
        <pt x="172" y="326" on="1"/>
        <pt x="404" y="326" on="1"/>
        <pt x="404" y="233" on="1"/>
        <pt x="172" y="233" on="1"/>
        <pt x="172" y="0" on="1"/>
        <pt x="62" y="0" on="1"/>
      </contour>
      <contour>
        <pt x="506" y="577" on="1"/>
        <pt x="870" y="577" on="1"/>
        <pt x="870" y="485" on="1"/>
        <pt x="616" y="485" on="1"/>
        <pt x="616" y="326" on="1"/>
        <pt x="848" y="326" on="1"/>
        <pt x="848" y="233" on="1"/>
        <pt x="616" y="233" on="1"/>
        <pt x="616" y="0" on="1"/>
        <pt x="506" y="0" on="1"/>
      </contour>
    </TTGlyph>
    <TTGlyph name="F_F_B.sc" xMin="62" yMin="-8" xMax="1378" yMax="585">
      <contour>
        <pt x="62" y="577" on="1"/>
        <pt x="426" y="577" on="1"/>
        <pt x="426" y="485" on="1"/>
        <pt x="172" y="485" on="1"/>
        <pt x="172" y="326" on="1"/>
        <pt x="404" y="326" on="1"/>
        <pt x="404" y="233" on="1"/>
        <pt x="172" y="233" on="1"/>
        <pt x="172" y="0" on="1"/>
        <pt x="62" y="0" on="1"/>
      </contour>
      <contour>
        <pt x="506" y="577" on="1"/>
        <pt x="870" y="577" on="1"/>
        <pt x="870" y="485" on="1"/>
        <pt x="616" y="485" on="1"/>
        <pt x="616" y="326" on="1"/>
        <pt x="848" y="326" on="1"/>
        <pt x="848" y="233" on="1"/>
        <pt x="616" y="233" on="1"/>
        <pt x="616" y="0" on="1"/>
        <pt x="506" y="0" on="1"/>
      </contour>
      <contour>
        <pt x="1125" y="-8" on="1"/>
        <pt x="1083" y="-8" on="0"/>
        <pt x="988" y="-1" on="0"/>
        <pt x="951" y="4" on="1"/>
        <pt x="951" y="574" on="1"/>
        <pt x="1009" y="580" on="0"/>
        <pt x="1088" y="585" on="0"/>
        <pt x="1124" y="585" on="1"/>
        <pt x="1247" y="585" on="0"/>
        <pt x="1360" y="508" on="0"/>
        <pt x="1360" y="424" on="1"/>
        <pt x="1360" y="319" on="0"/>
        <pt x="1260" y="298" on="1"/>
        <pt x="1260" y="295" on="1"/>
        <pt x="1317" y="285" on="0"/>
        <pt x="1378" y="214" on="0"/>
        <pt x="1378" y="156" on="1"/>
        <pt x="1378" y="-8" on="0"/>
      </contour>
      <contour>
        <pt x="1142" y="75" on="1"/>
        <pt x="1270" y="75" on="0"/>
        <pt x="1270" y="163" on="1"/>
        <pt x="1270" y="211" on="0"/>
        <pt x="1208" y="252" on="0"/>
        <pt x="1133" y="252" on="1"/>
        <pt x="1053" y="252" on="1"/>
        <pt x="1053" y="80" on="1"/>
        <pt x="1064" y="78" on="0"/>
        <pt x="1114" y="75" on="0"/>
      </contour>
      <contour>
        <pt x="1132" y="329" on="1"/>
        <pt x="1198" y="329" on="0"/>
        <pt x="1250" y="367" on="0"/>
        <pt x="1250" y="417" on="1"/>
        <pt x="1250" y="461" on="0"/>
        <pt x="1195" y="501" on="0"/>
        <pt x="1136" y="501" on="1"/>
        <pt x="1116" y="501" on="0"/>
        <pt x="1076" y="499" on="0"/>
        <pt x="1053" y="496" on="1"/>
        <pt x="1053" y="329" on="1"/>
      </contour>
    </TTGlyph>
    <TTGlyph name="F_F_H.sc" xMin="62" yMin="0" xMax="1417" yMax="577">
      <contour>
        <pt x="62" y="577" on="1"/>
        <pt x="426" y="577" on="1"/>
        <pt x="426" y="485" on="1"/>
        <pt x="172" y="485" on="1"/>
        <pt x="172" y="326" on="1"/>
        <pt x="404" y="326" on="1"/>
        <pt x="404" y="233" on="1"/>
        <pt x="172" y="233" on="1"/>
        <pt x="172" y="0" on="1"/>
        <pt x="62" y="0" on="1"/>
      </contour>
      <contour>
        <pt x="506" y="577" on="1"/>
        <pt x="870" y="577" on="1"/>
        <pt x="870" y="485" on="1"/>
        <pt x="616" y="485" on="1"/>
        <pt x="616" y="326" on="1"/>
        <pt x="848" y="326" on="1"/>
        <pt x="848" y="233" on="1"/>
        <pt x="616" y="233" on="1"/>
        <pt x="616" y="0" on="1"/>
        <pt x="506" y="0" on="1"/>
      </contour>
      <contour>
        <pt x="950" y="577" on="1"/>
        <pt x="1060" y="577" on="1"/>
        <pt x="1060" y="341" on="1"/>
        <pt x="1307" y="341" on="1"/>
        <pt x="1307" y="577" on="1"/>
        <pt x="1417" y="577" on="1"/>
        <pt x="1417" y="0" on="1"/>
        <pt x="1307" y="0" on="1"/>
        <pt x="1307" y="249" on="1"/>
        <pt x="1060" y="249" on="1"/>
        <pt x="1060" y="0" on="1"/>
        <pt x="950" y="0" on="1"/>
      </contour>
    </TTGlyph>
    <TTGlyph name="F_F_I.sc" xMin="62" yMin="0" xMax="1060" yMax="577">
      <contour>
        <pt x="62" y="577" on="1"/>
        <pt x="426" y="577" on="1"/>
        <pt x="426" y="485" on="1"/>
        <pt x="172" y="485" on="1"/>
        <pt x="172" y="326" on="1"/>
        <pt x="404" y="326" on="1"/>
        <pt x="404" y="233" on="1"/>
        <pt x="172" y="233" on="1"/>
        <pt x="172" y="0" on="1"/>
        <pt x="62" y="0" on="1"/>
      </contour>
      <contour>
        <pt x="506" y="577" on="1"/>
        <pt x="870" y="577" on="1"/>
        <pt x="870" y="485" on="1"/>
        <pt x="616" y="485" on="1"/>
        <pt x="616" y="326" on="1"/>
        <pt x="848" y="326" on="1"/>
        <pt x="848" y="233" on="1"/>
        <pt x="616" y="233" on="1"/>
        <pt x="616" y="0" on="1"/>
        <pt x="506" y="0" on="1"/>
      </contour>
      <contour>
        <pt x="950" y="577" on="1"/>
        <pt x="1060" y="577" on="1"/>
        <pt x="1060" y="0" on="1"/>
        <pt x="950" y="0" on="1"/>
      </contour>
    </TTGlyph>
    <TTGlyph name="F_F_J.sc" xMin="62" yMin="-157" xMax="1073" yMax="577">
      <contour>
        <pt x="62" y="577" on="1"/>
        <pt x="426" y="577" on="1"/>
        <pt x="426" y="485" on="1"/>
        <pt x="172" y="485" on="1"/>
        <pt x="172" y="326" on="1"/>
        <pt x="404" y="326" on="1"/>
        <pt x="404" y="233" on="1"/>
        <pt x="172" y="233" on="1"/>
        <pt x="172" y="0" on="1"/>
        <pt x="62" y="0" on="1"/>
      </contour>
      <contour>
        <pt x="506" y="577" on="1"/>
        <pt x="870" y="577" on="1"/>
        <pt x="870" y="485" on="1"/>
        <pt x="616" y="485" on="1"/>
        <pt x="616" y="326" on="1"/>
        <pt x="848" y="326" on="1"/>
        <pt x="848" y="233" on="1"/>
        <pt x="616" y="233" on="1"/>
        <pt x="616" y="0" on="1"/>
        <pt x="506" y="0" on="1"/>
      </contour>
      <contour>
        <pt x="893" y="-124" on="1"/>
        <pt x="914" y="-84" on="0"/>
        <pt x="940" y="-19" on="0"/>
        <pt x="956" y="44" on="0"/>
        <pt x="962" y="109" on="0"/>
        <pt x="962" y="150" on="1"/>
        <pt x="962" y="577" on="1"/>
        <pt x="1073" y="577" on="1"/>
        <pt x="1073" y="140" on="1"/>
        <pt x="1073" y="101" on="0"/>
        <pt x="1061" y="30" on="0"/>
        <pt x="1036" y="-41" on="0"/>
        <pt x="994" y="-115" on="0"/>
        <pt x="964" y="-157" on="1"/>
      </contour>
    </TTGlyph>
    <TTGlyph name="F_F_K.sc" xMin="62" yMin="0" xMax="1424" yMax="577">
      <contour>
        <pt x="62" y="577" on="1"/>
        <pt x="426" y="577" on="1"/>
        <pt x="426" y="485" on="1"/>
        <pt x="172" y="485" on="1"/>
        <pt x="172" y="326" on="1"/>
        <pt x="404" y="326" on="1"/>
        <pt x="404" y="233" on="1"/>
        <pt x="172" y="233" on="1"/>
        <pt x="172" y="0" on="1"/>
        <pt x="62" y="0" on="1"/>
      </contour>
      <contour>
        <pt x="506" y="577" on="1"/>
        <pt x="870" y="577" on="1"/>
        <pt x="870" y="485" on="1"/>
        <pt x="616" y="485" on="1"/>
        <pt x="616" y="326" on="1"/>
        <pt x="848" y="326" on="1"/>
        <pt x="848" y="233" on="1"/>
        <pt x="616" y="233" on="1"/>
        <pt x="616" y="0" on="1"/>
        <pt x="506" y="0" on="1"/>
      </contour>
      <contour>
        <pt x="950" y="577" on="1"/>
        <pt x="1060" y="577" on="1"/>
        <pt x="1060" y="341" on="1"/>
        <pt x="1131" y="341" on="1"/>
        <pt x="1283" y="577" on="1"/>
        <pt x="1407" y="577" on="1"/>
        <pt x="1241" y="318" on="1"/>
        <pt x="1196" y="296" on="1"/>
        <pt x="1196" y="292" on="1"/>
        <pt x="1242" y="271" on="1"/>
        <pt x="1424" y="0" on="1"/>
        <pt x="1302" y="0" on="1"/>
        <pt x="1130" y="248" on="1"/>
        <pt x="1060" y="248" on="1"/>
        <pt x="1060" y="0" on="1"/>
        <pt x="950" y="0" on="1"/>
      </contour>
    </TTGlyph>
    <TTGlyph name="F_F_L.sc" xMin="62" yMin="0" xMax="1275" yMax="577">
      <contour>
        <pt x="950" y="577" on="1"/>
        <pt x="1060" y="577" on="1"/>
        <pt x="1060" y="93" on="1"/>
        <pt x="1275" y="93" on="1"/>
        <pt x="1275" y="0" on="1"/>
        <pt x="950" y="0" on="1"/>
      </contour>
      <contour>
        <pt x="62" y="577" on="1"/>
        <pt x="426" y="577" on="1"/>
        <pt x="426" y="485" on="1"/>
        <pt x="172" y="485" on="1"/>
        <pt x="172" y="326" on="1"/>
        <pt x="404" y="326" on="1"/>
        <pt x="404" y="233" on="1"/>
        <pt x="172" y="233" on="1"/>
        <pt x="172" y="0" on="1"/>
        <pt x="62" y="0" on="1"/>
      </contour>
      <contour>
        <pt x="506" y="577" on="1"/>
        <pt x="870" y="577" on="1"/>
        <pt x="870" y="485" on="1"/>
        <pt x="616" y="485" on="1"/>
        <pt x="616" y="326" on="1"/>
        <pt x="848" y="326" on="1"/>
        <pt x="848" y="233" on="1"/>
        <pt x="616" y="233" on="1"/>
        <pt x="616" y="0" on="1"/>
        <pt x="506" y="0" on="1"/>
      </contour>
    </TTGlyph>
    <TTGlyph name="F_F_T.sc" xMin="62" yMin="0" xMax="1310" yMax="577">
      <contour>
        <pt x="1042" y="483" on="1"/>
        <pt x="884" y="483" on="1"/>
        <pt x="884" y="577" on="1"/>
        <pt x="1310" y="577" on="1"/>
        <pt x="1310" y="483" on="1"/>
        <pt x="1151" y="483" on="1"/>
        <pt x="1151" y="0" on="1"/>
        <pt x="1042" y="0" on="1"/>
      </contour>
      <contour>
        <pt x="62" y="577" on="1"/>
        <pt x="426" y="577" on="1"/>
        <pt x="426" y="485" on="1"/>
        <pt x="172" y="485" on="1"/>
        <pt x="172" y="326" on="1"/>
        <pt x="404" y="326" on="1"/>
        <pt x="404" y="233" on="1"/>
        <pt x="172" y="233" on="1"/>
        <pt x="172" y="0" on="1"/>
        <pt x="62" y="0" on="1"/>
      </contour>
      <contour>
        <pt x="506" y="577" on="1"/>
        <pt x="870" y="577" on="1"/>
        <pt x="870" y="485" on="1"/>
        <pt x="616" y="485" on="1"/>
        <pt x="616" y="326" on="1"/>
        <pt x="848" y="326" on="1"/>
        <pt x="848" y="233" on="1"/>
        <pt x="616" y="233" on="1"/>
        <pt x="616" y="0" on="1"/>
        <pt x="506" y="0" on="1"/>
      </contour>
    </TTGlyph>
    <TTGlyph name="F_H.sc" xMin="62" yMin="0" xMax="973" yMax="577">
      <contour>
        <pt x="62" y="577" on="1"/>
        <pt x="426" y="577" on="1"/>
        <pt x="426" y="485" on="1"/>
        <pt x="172" y="485" on="1"/>
        <pt x="172" y="326" on="1"/>
        <pt x="404" y="326" on="1"/>
        <pt x="404" y="233" on="1"/>
        <pt x="172" y="233" on="1"/>
        <pt x="172" y="0" on="1"/>
        <pt x="62" y="0" on="1"/>
      </contour>
      <contour>
        <pt x="506" y="577" on="1"/>
        <pt x="616" y="577" on="1"/>
        <pt x="616" y="341" on="1"/>
        <pt x="863" y="341" on="1"/>
        <pt x="863" y="577" on="1"/>
        <pt x="973" y="577" on="1"/>
        <pt x="973" y="0" on="1"/>
        <pt x="863" y="0" on="1"/>
        <pt x="863" y="249" on="1"/>
        <pt x="616" y="249" on="1"/>
        <pt x="616" y="0" on="1"/>
        <pt x="506" y="0" on="1"/>
      </contour>
    </TTGlyph>
    <TTGlyph name="F_I.sc" xMin="62" yMin="0" xMax="616" yMax="577">
      <contour>
        <pt x="62" y="577" on="1"/>
        <pt x="426" y="577" on="1"/>
        <pt x="426" y="485" on="1"/>
        <pt x="172" y="485" on="1"/>
        <pt x="172" y="326" on="1"/>
        <pt x="404" y="326" on="1"/>
        <pt x="404" y="233" on="1"/>
        <pt x="172" y="233" on="1"/>
        <pt x="172" y="0" on="1"/>
        <pt x="62" y="0" on="1"/>
      </contour>
      <contour>
        <pt x="506" y="577" on="1"/>
        <pt x="616" y="577" on="1"/>
        <pt x="616" y="0" on="1"/>
        <pt x="506" y="0" on="1"/>
      </contour>
    </TTGlyph>
    <TTGlyph name="F_J.sc" xMin="62" yMin="-157" xMax="629" yMax="577">
      <contour>
        <pt x="62" y="577" on="1"/>
        <pt x="426" y="577" on="1"/>
        <pt x="426" y="485" on="1"/>
        <pt x="172" y="485" on="1"/>
        <pt x="172" y="326" on="1"/>
        <pt x="404" y="326" on="1"/>
        <pt x="404" y="233" on="1"/>
        <pt x="172" y="233" on="1"/>
        <pt x="172" y="0" on="1"/>
        <pt x="62" y="0" on="1"/>
      </contour>
      <contour>
        <pt x="449" y="-124" on="1"/>
        <pt x="470" y="-84" on="0"/>
        <pt x="496" y="-19" on="0"/>
        <pt x="512" y="44" on="0"/>
        <pt x="518" y="109" on="0"/>
        <pt x="518" y="150" on="1"/>
        <pt x="518" y="577" on="1"/>
        <pt x="629" y="577" on="1"/>
        <pt x="629" y="140" on="1"/>
        <pt x="629" y="101" on="0"/>
        <pt x="617" y="30" on="0"/>
        <pt x="592" y="-41" on="0"/>
        <pt x="550" y="-115" on="0"/>
        <pt x="520" y="-157" on="1"/>
      </contour>
    </TTGlyph>
    <TTGlyph name="F_K.sc" xMin="62" yMin="0" xMax="980" yMax="577">
      <contour>
        <pt x="62" y="577" on="1"/>
        <pt x="426" y="577" on="1"/>
        <pt x="426" y="485" on="1"/>
        <pt x="172" y="485" on="1"/>
        <pt x="172" y="326" on="1"/>
        <pt x="404" y="326" on="1"/>
        <pt x="404" y="233" on="1"/>
        <pt x="172" y="233" on="1"/>
        <pt x="172" y="0" on="1"/>
        <pt x="62" y="0" on="1"/>
      </contour>
      <contour>
        <pt x="506" y="577" on="1"/>
        <pt x="616" y="577" on="1"/>
        <pt x="616" y="341" on="1"/>
        <pt x="687" y="341" on="1"/>
        <pt x="839" y="577" on="1"/>
        <pt x="963" y="577" on="1"/>
        <pt x="797" y="318" on="1"/>
        <pt x="752" y="296" on="1"/>
        <pt x="752" y="292" on="1"/>
        <pt x="798" y="271" on="1"/>
        <pt x="980" y="0" on="1"/>
        <pt x="858" y="0" on="1"/>
        <pt x="686" y="248" on="1"/>
        <pt x="616" y="248" on="1"/>
        <pt x="616" y="0" on="1"/>
        <pt x="506" y="0" on="1"/>
      </contour>
    </TTGlyph>
    <TTGlyph name="F_L.sc" xMin="62" yMin="0" xMax="831" yMax="577">
      <contour>
        <pt x="506" y="577" on="1"/>
        <pt x="616" y="577" on="1"/>
        <pt x="616" y="93" on="1"/>
        <pt x="831" y="93" on="1"/>
        <pt x="831" y="0" on="1"/>
        <pt x="506" y="0" on="1"/>
      </contour>
      <contour>
        <pt x="62" y="577" on="1"/>
        <pt x="426" y="577" on="1"/>
        <pt x="426" y="485" on="1"/>
        <pt x="172" y="485" on="1"/>
        <pt x="172" y="326" on="1"/>
        <pt x="404" y="326" on="1"/>
        <pt x="404" y="233" on="1"/>
        <pt x="172" y="233" on="1"/>
        <pt x="172" y="0" on="1"/>
        <pt x="62" y="0" on="1"/>
      </contour>
    </TTGlyph>
    <TTGlyph name="F_T.sc" xMin="62" yMin="0" xMax="866" yMax="577">
      <contour>
        <pt x="598" y="483" on="1"/>
        <pt x="440" y="483" on="1"/>
        <pt x="440" y="577" on="1"/>
        <pt x="866" y="577" on="1"/>
        <pt x="866" y="483" on="1"/>
        <pt x="707" y="483" on="1"/>
        <pt x="707" y="0" on="1"/>
        <pt x="598" y="0" on="1"/>
      </contour>
      <contour>
        <pt x="62" y="577" on="1"/>
        <pt x="426" y="577" on="1"/>
        <pt x="426" y="485" on="1"/>
        <pt x="172" y="485" on="1"/>
        <pt x="172" y="326" on="1"/>
        <pt x="404" y="326" on="1"/>
        <pt x="404" y="233" on="1"/>
        <pt x="172" y="233" on="1"/>
        <pt x="172" y="0" on="1"/>
        <pt x="62" y="0" on="1"/>
      </contour>
    </TTGlyph>
    <TTGlyph name="G" xMin="37" yMin="-10" xMax="522" yMax="748">
      <contour>
        <pt x="342" y="-10" on="1"/>
        <pt x="184" y="-9" on="0"/>
        <pt x="37" y="175" on="0"/>
        <pt x="37" y="369" on="1"/>
        <pt x="37" y="467" on="0"/>
        <pt x="76" y="610" on="0"/>
        <pt x="157" y="703" on="0"/>
        <pt x="280" y="748" on="0"/>
        <pt x="365" y="748" on="1"/>
        <pt x="397" y="748" on="0"/>
        <pt x="477" y="739" on="0"/>
        <pt x="517" y="730" on="1"/>
        <pt x="517" y="635" on="1"/>
        <pt x="475" y="643" on="0"/>
        <pt x="406" y="651" on="0"/>
        <pt x="377" y="651" on="1"/>
        <pt x="316" y="651" on="0"/>
        <pt x="232" y="622" on="0"/>
        <pt x="180" y="555" on="0"/>
        <pt x="157" y="447" on="0"/>
        <pt x="157" y="369" on="1"/>
        <pt x="157" y="292" on="0"/>
        <pt x="178" y="185" on="0"/>
        <pt x="225" y="119" on="0"/>
        <pt x="301" y="89" on="0"/>
        <pt x="355" y="89" on="1"/>
        <pt x="383" y="89" on="0"/>
        <pt x="416" y="92" on="1"/>
        <pt x="416" y="376" on="1"/>
        <pt x="522" y="376" on="1"/>
        <pt x="522" y="6" on="1"/>
        <pt x="463" y="-2" on="0"/>
        <pt x="380" y="-10" on="0"/>
      </contour>
    </TTGlyph>
    <TTGlyph name="G.sc" xMin="36" yMin="-8" xMax="472" yMax="584">
      <contour>
        <pt x="307" y="-8" on="1"/>
        <pt x="168" y="-7" on="0"/>
        <pt x="36" y="138" on="0"/>
        <pt x="36" y="288" on="1"/>
        <pt x="36" y="440" on="0"/>
        <pt x="178" y="584" on="0"/>
        <pt x="329" y="584" on="1"/>
        <pt x="358" y="584" on="0"/>
        <pt x="431" y="576" on="0"/>
        <pt x="467" y="568" on="1"/>
        <pt x="467" y="479" on="1"/>
        <pt x="428" y="487" on="0"/>
        <pt x="366" y="493" on="0"/>
        <pt x="341" y="493" on="1"/>
        <pt x="287" y="493" on="0"/>
        <pt x="214" y="472" on="0"/>
        <pt x="169" y="424" on="0"/>
        <pt x="150" y="345" on="0"/>
        <pt x="150" y="288" on="1"/>
        <pt x="150" y="231" on="0"/>
        <pt x="168" y="153" on="0"/>
        <pt x="208" y="106" on="0"/>
        <pt x="272" y="85" on="0"/>
        <pt x="319" y="85" on="1"/>
        <pt x="326" y="85" on="0"/>
        <pt x="360" y="85" on="0"/>
        <pt x="372" y="87" on="1"/>
        <pt x="372" y="293" on="1"/>
        <pt x="472" y="293" on="1"/>
        <pt x="472" y="7" on="1"/>
        <pt x="419" y="-1" on="0"/>
        <pt x="342" y="-8" on="0"/>
      </contour>
    </TTGlyph>
    <TTGlyph name="Gacute" xMin="37" yMin="-10" xMax="522" yMax="950">
      <contour>
        <pt x="282" y="794" on="1"/>
        <pt x="353" y="950" on="1"/>
        <pt x="471" y="950" on="1"/>
        <pt x="367" y="787" on="1"/>
      </contour>
      <contour>
        <pt x="342" y="-10" on="1"/>
        <pt x="184" y="-9" on="0"/>
        <pt x="37" y="175" on="0"/>
        <pt x="37" y="369" on="1"/>
        <pt x="37" y="467" on="0"/>
        <pt x="76" y="610" on="0"/>
        <pt x="157" y="703" on="0"/>
        <pt x="280" y="748" on="0"/>
        <pt x="365" y="748" on="1"/>
        <pt x="397" y="748" on="0"/>
        <pt x="477" y="739" on="0"/>
        <pt x="517" y="730" on="1"/>
        <pt x="517" y="635" on="1"/>
        <pt x="475" y="643" on="0"/>
        <pt x="406" y="651" on="0"/>
        <pt x="377" y="651" on="1"/>
        <pt x="316" y="651" on="0"/>
        <pt x="232" y="622" on="0"/>
        <pt x="180" y="555" on="0"/>
        <pt x="157" y="447" on="0"/>
        <pt x="157" y="369" on="1"/>
        <pt x="157" y="292" on="0"/>
        <pt x="178" y="185" on="0"/>
        <pt x="225" y="119" on="0"/>
        <pt x="301" y="89" on="0"/>
        <pt x="355" y="89" on="1"/>
        <pt x="383" y="89" on="0"/>
        <pt x="416" y="92" on="1"/>
        <pt x="416" y="376" on="1"/>
        <pt x="522" y="376" on="1"/>
        <pt x="522" y="6" on="1"/>
        <pt x="463" y="-2" on="0"/>
        <pt x="380" y="-10" on="0"/>
      </contour>
    </TTGlyph>
    <TTGlyph name="Gacute.sc" xMin="36" yMin="-8" xMax="472" yMax="751">
      <contour>
        <pt x="307" y="-8" on="1"/>
        <pt x="168" y="-7" on="0"/>
        <pt x="36" y="138" on="0"/>
        <pt x="36" y="288" on="1"/>
        <pt x="36" y="440" on="0"/>
        <pt x="178" y="584" on="0"/>
        <pt x="329" y="584" on="1"/>
        <pt x="358" y="584" on="0"/>
        <pt x="431" y="576" on="0"/>
        <pt x="467" y="568" on="1"/>
        <pt x="467" y="479" on="1"/>
        <pt x="428" y="487" on="0"/>
        <pt x="366" y="493" on="0"/>
        <pt x="341" y="493" on="1"/>
        <pt x="287" y="493" on="0"/>
        <pt x="214" y="472" on="0"/>
        <pt x="169" y="424" on="0"/>
        <pt x="150" y="345" on="0"/>
        <pt x="150" y="288" on="1"/>
        <pt x="150" y="231" on="0"/>
        <pt x="168" y="153" on="0"/>
        <pt x="208" y="106" on="0"/>
        <pt x="272" y="85" on="0"/>
        <pt x="319" y="85" on="1"/>
        <pt x="326" y="85" on="0"/>
        <pt x="360" y="85" on="0"/>
        <pt x="372" y="87" on="1"/>
        <pt x="372" y="293" on="1"/>
        <pt x="472" y="293" on="1"/>
        <pt x="472" y="7" on="1"/>
        <pt x="419" y="-1" on="0"/>
        <pt x="342" y="-8" on="0"/>
      </contour>
      <contour>
        <pt x="252" y="621" on="1"/>
        <pt x="314" y="751" on="1"/>
        <pt x="424" y="751" on="1"/>
        <pt x="331" y="616" on="1"/>
      </contour>
    </TTGlyph>
    <TTGlyph name="Gbreve" xMin="37" yMin="-10" xMax="522" yMax="962">
      <contour>
        <pt x="332" y="803" on="1"/>
        <pt x="254" y="803" on="0"/>
        <pt x="169" y="887" on="0"/>
        <pt x="169" y="962" on="1"/>
        <pt x="251" y="962" on="1"/>
        <pt x="251" y="911" on="0"/>
        <pt x="289" y="863" on="0"/>
        <pt x="332" y="863" on="1"/>
        <pt x="374" y="863" on="0"/>
        <pt x="413" y="911" on="0"/>
        <pt x="413" y="962" on="1"/>
        <pt x="495" y="962" on="1"/>
        <pt x="495" y="888" on="0"/>
        <pt x="410" y="803" on="0"/>
      </contour>
      <contour>
        <pt x="342" y="-10" on="1"/>
        <pt x="184" y="-9" on="0"/>
        <pt x="37" y="175" on="0"/>
        <pt x="37" y="369" on="1"/>
        <pt x="37" y="467" on="0"/>
        <pt x="76" y="610" on="0"/>
        <pt x="157" y="703" on="0"/>
        <pt x="280" y="748" on="0"/>
        <pt x="365" y="748" on="1"/>
        <pt x="397" y="748" on="0"/>
        <pt x="477" y="739" on="0"/>
        <pt x="517" y="730" on="1"/>
        <pt x="517" y="635" on="1"/>
        <pt x="475" y="643" on="0"/>
        <pt x="406" y="651" on="0"/>
        <pt x="377" y="651" on="1"/>
        <pt x="316" y="651" on="0"/>
        <pt x="232" y="622" on="0"/>
        <pt x="180" y="555" on="0"/>
        <pt x="157" y="447" on="0"/>
        <pt x="157" y="369" on="1"/>
        <pt x="157" y="292" on="0"/>
        <pt x="178" y="185" on="0"/>
        <pt x="225" y="119" on="0"/>
        <pt x="301" y="89" on="0"/>
        <pt x="355" y="89" on="1"/>
        <pt x="383" y="89" on="0"/>
        <pt x="416" y="92" on="1"/>
        <pt x="416" y="376" on="1"/>
        <pt x="522" y="376" on="1"/>
        <pt x="522" y="6" on="1"/>
        <pt x="463" y="-2" on="0"/>
        <pt x="380" y="-10" on="0"/>
      </contour>
    </TTGlyph>
    <TTGlyph name="Gbreve.sc" xMin="36" yMin="-8" xMax="472" yMax="755">
      <contour>
        <pt x="307" y="-8" on="1"/>
        <pt x="168" y="-7" on="0"/>
        <pt x="36" y="138" on="0"/>
        <pt x="36" y="288" on="1"/>
        <pt x="36" y="440" on="0"/>
        <pt x="178" y="584" on="0"/>
        <pt x="329" y="584" on="1"/>
        <pt x="358" y="584" on="0"/>
        <pt x="431" y="576" on="0"/>
        <pt x="467" y="568" on="1"/>
        <pt x="467" y="479" on="1"/>
        <pt x="428" y="487" on="0"/>
        <pt x="366" y="493" on="0"/>
        <pt x="341" y="493" on="1"/>
        <pt x="287" y="493" on="0"/>
        <pt x="214" y="472" on="0"/>
        <pt x="169" y="424" on="0"/>
        <pt x="150" y="345" on="0"/>
        <pt x="150" y="288" on="1"/>
        <pt x="150" y="231" on="0"/>
        <pt x="168" y="153" on="0"/>
        <pt x="208" y="106" on="0"/>
        <pt x="272" y="85" on="0"/>
        <pt x="319" y="85" on="1"/>
        <pt x="326" y="85" on="0"/>
        <pt x="360" y="85" on="0"/>
        <pt x="372" y="87" on="1"/>
        <pt x="372" y="293" on="1"/>
        <pt x="472" y="293" on="1"/>
        <pt x="472" y="7" on="1"/>
        <pt x="419" y="-1" on="0"/>
        <pt x="342" y="-8" on="0"/>
      </contour>
      <contour>
        <pt x="298" y="623" on="1"/>
        <pt x="226" y="623" on="0"/>
        <pt x="150" y="693" on="0"/>
        <pt x="150" y="755" on="1"/>
        <pt x="227" y="755" on="1"/>
        <pt x="227" y="713" on="0"/>
        <pt x="260" y="677" on="0"/>
        <pt x="298" y="677" on="1"/>
        <pt x="335" y="677" on="0"/>
        <pt x="368" y="713" on="0"/>
        <pt x="368" y="755" on="1"/>
        <pt x="446" y="755" on="1"/>
        <pt x="446" y="694" on="0"/>
        <pt x="370" y="623" on="0"/>
      </contour>
    </TTGlyph>
    <TTGlyph name="Gcircumflex" xMin="37" yMin="-10" xMax="522" yMax="957">
      <contour>
        <pt x="342" y="-10" on="1"/>
        <pt x="184" y="-9" on="0"/>
        <pt x="37" y="175" on="0"/>
        <pt x="37" y="369" on="1"/>
        <pt x="37" y="467" on="0"/>
        <pt x="76" y="610" on="0"/>
        <pt x="157" y="703" on="0"/>
        <pt x="280" y="748" on="0"/>
        <pt x="365" y="748" on="1"/>
        <pt x="397" y="748" on="0"/>
        <pt x="477" y="739" on="0"/>
        <pt x="517" y="730" on="1"/>
        <pt x="517" y="635" on="1"/>
        <pt x="475" y="643" on="0"/>
        <pt x="406" y="651" on="0"/>
        <pt x="377" y="651" on="1"/>
        <pt x="316" y="651" on="0"/>
        <pt x="232" y="622" on="0"/>
        <pt x="180" y="555" on="0"/>
        <pt x="157" y="447" on="0"/>
        <pt x="157" y="369" on="1"/>
        <pt x="157" y="292" on="0"/>
        <pt x="178" y="185" on="0"/>
        <pt x="225" y="119" on="0"/>
        <pt x="301" y="89" on="0"/>
        <pt x="355" y="89" on="1"/>
        <pt x="383" y="89" on="0"/>
        <pt x="416" y="92" on="1"/>
        <pt x="416" y="376" on="1"/>
        <pt x="522" y="376" on="1"/>
        <pt x="522" y="6" on="1"/>
        <pt x="463" y="-2" on="0"/>
        <pt x="380" y="-10" on="0"/>
      </contour>
      <contour>
        <pt x="183" y="886" on="1"/>
        <pt x="330" y="957" on="1"/>
        <pt x="476" y="886" on="1"/>
        <pt x="476" y="802" on="1"/>
        <pt x="330" y="874" on="1"/>
        <pt x="183" y="802" on="1"/>
      </contour>
    </TTGlyph>
    <TTGlyph name="Gcircumflex.sc" xMin="36" yMin="-8" xMax="472" yMax="753">
      <contour>
        <pt x="307" y="-8" on="1"/>
        <pt x="168" y="-7" on="0"/>
        <pt x="36" y="138" on="0"/>
        <pt x="36" y="288" on="1"/>
        <pt x="36" y="440" on="0"/>
        <pt x="178" y="584" on="0"/>
        <pt x="329" y="584" on="1"/>
        <pt x="358" y="584" on="0"/>
        <pt x="431" y="576" on="0"/>
        <pt x="467" y="568" on="1"/>
        <pt x="467" y="479" on="1"/>
        <pt x="428" y="487" on="0"/>
        <pt x="366" y="493" on="0"/>
        <pt x="341" y="493" on="1"/>
        <pt x="287" y="493" on="0"/>
        <pt x="214" y="472" on="0"/>
        <pt x="169" y="424" on="0"/>
        <pt x="150" y="345" on="0"/>
        <pt x="150" y="288" on="1"/>
        <pt x="150" y="231" on="0"/>
        <pt x="168" y="153" on="0"/>
        <pt x="208" y="106" on="0"/>
        <pt x="272" y="85" on="0"/>
        <pt x="319" y="85" on="1"/>
        <pt x="326" y="85" on="0"/>
        <pt x="360" y="85" on="0"/>
        <pt x="372" y="87" on="1"/>
        <pt x="372" y="293" on="1"/>
        <pt x="472" y="293" on="1"/>
        <pt x="472" y="7" on="1"/>
        <pt x="419" y="-1" on="0"/>
        <pt x="342" y="-8" on="0"/>
      </contour>
      <contour>
        <pt x="163" y="697" on="1"/>
        <pt x="297" y="753" on="1"/>
        <pt x="429" y="697" on="1"/>
        <pt x="429" y="622" on="1"/>
        <pt x="297" y="678" on="1"/>
        <pt x="163" y="622" on="1"/>
      </contour>
    </TTGlyph>
    <TTGlyph name="Gcommaaccent" xMin="37" yMin="-220" xMax="522" yMax="748">
      <contour>
        <pt x="284" y="-68" on="1"/>
        <pt x="400" y="-68" on="1"/>
        <pt x="327" y="-220" on="1"/>
        <pt x="238" y="-220" on="1"/>
      </contour>
      <contour>
        <pt x="342" y="-10" on="1"/>
        <pt x="184" y="-9" on="0"/>
        <pt x="37" y="175" on="0"/>
        <pt x="37" y="369" on="1"/>
        <pt x="37" y="467" on="0"/>
        <pt x="76" y="610" on="0"/>
        <pt x="157" y="703" on="0"/>
        <pt x="280" y="748" on="0"/>
        <pt x="365" y="748" on="1"/>
        <pt x="397" y="748" on="0"/>
        <pt x="477" y="739" on="0"/>
        <pt x="517" y="730" on="1"/>
        <pt x="517" y="635" on="1"/>
        <pt x="475" y="643" on="0"/>
        <pt x="406" y="651" on="0"/>
        <pt x="377" y="651" on="1"/>
        <pt x="316" y="651" on="0"/>
        <pt x="232" y="622" on="0"/>
        <pt x="180" y="555" on="0"/>
        <pt x="157" y="447" on="0"/>
        <pt x="157" y="369" on="1"/>
        <pt x="157" y="292" on="0"/>
        <pt x="178" y="185" on="0"/>
        <pt x="225" y="119" on="0"/>
        <pt x="301" y="89" on="0"/>
        <pt x="355" y="89" on="1"/>
        <pt x="383" y="89" on="0"/>
        <pt x="416" y="92" on="1"/>
        <pt x="416" y="376" on="1"/>
        <pt x="522" y="376" on="1"/>
        <pt x="522" y="6" on="1"/>
        <pt x="463" y="-2" on="0"/>
        <pt x="380" y="-10" on="0"/>
      </contour>
    </TTGlyph>
    <TTGlyph name="Gcommaaccent.sc" xMin="36" yMin="-172" xMax="472" yMax="584">
      <contour>
        <pt x="307" y="-8" on="1"/>
        <pt x="168" y="-7" on="0"/>
        <pt x="36" y="138" on="0"/>
        <pt x="36" y="288" on="1"/>
        <pt x="36" y="440" on="0"/>
        <pt x="178" y="584" on="0"/>
        <pt x="329" y="584" on="1"/>
        <pt x="358" y="584" on="0"/>
        <pt x="431" y="576" on="0"/>
        <pt x="467" y="568" on="1"/>
        <pt x="467" y="479" on="1"/>
        <pt x="428" y="487" on="0"/>
        <pt x="366" y="493" on="0"/>
        <pt x="341" y="493" on="1"/>
        <pt x="287" y="493" on="0"/>
        <pt x="214" y="472" on="0"/>
        <pt x="169" y="424" on="0"/>
        <pt x="150" y="345" on="0"/>
        <pt x="150" y="288" on="1"/>
        <pt x="150" y="231" on="0"/>
        <pt x="168" y="153" on="0"/>
        <pt x="208" y="106" on="0"/>
        <pt x="272" y="85" on="0"/>
        <pt x="319" y="85" on="1"/>
        <pt x="326" y="85" on="0"/>
        <pt x="360" y="85" on="0"/>
        <pt x="372" y="87" on="1"/>
        <pt x="372" y="293" on="1"/>
        <pt x="472" y="293" on="1"/>
        <pt x="472" y="7" on="1"/>
        <pt x="419" y="-1" on="0"/>
        <pt x="342" y="-8" on="0"/>
      </contour>
      <contour>
        <pt x="252" y="-54" on="1"/>
        <pt x="362" y="-54" on="1"/>
        <pt x="295" y="-172" on="1"/>
        <pt x="212" y="-172" on="1"/>
      </contour>
    </TTGlyph>
    <TTGlyph name="Gdotaccent" xMin="37" yMin="-10" xMax="522" yMax="929">
      <contour>
        <pt x="330" y="799" on="1"/>
        <pt x="296" y="799" on="0"/>
        <pt x="263" y="829" on="0"/>
        <pt x="263" y="864" on="1"/>
        <pt x="263" y="899" on="0"/>
        <pt x="296" y="929" on="0"/>
        <pt x="330" y="929" on="1"/>
        <pt x="397" y="929" on="0"/>
        <pt x="397" y="864" on="1"/>
        <pt x="397" y="829" on="0"/>
        <pt x="363" y="799" on="0"/>
      </contour>
      <contour>
        <pt x="342" y="-10" on="1"/>
        <pt x="184" y="-9" on="0"/>
        <pt x="37" y="175" on="0"/>
        <pt x="37" y="369" on="1"/>
        <pt x="37" y="467" on="0"/>
        <pt x="76" y="610" on="0"/>
        <pt x="157" y="703" on="0"/>
        <pt x="280" y="748" on="0"/>
        <pt x="365" y="748" on="1"/>
        <pt x="397" y="748" on="0"/>
        <pt x="477" y="739" on="0"/>
        <pt x="517" y="730" on="1"/>
        <pt x="517" y="635" on="1"/>
        <pt x="475" y="643" on="0"/>
        <pt x="406" y="651" on="0"/>
        <pt x="377" y="651" on="1"/>
        <pt x="316" y="651" on="0"/>
        <pt x="232" y="622" on="0"/>
        <pt x="180" y="555" on="0"/>
        <pt x="157" y="447" on="0"/>
        <pt x="157" y="369" on="1"/>
        <pt x="157" y="292" on="0"/>
        <pt x="178" y="185" on="0"/>
        <pt x="225" y="119" on="0"/>
        <pt x="301" y="89" on="0"/>
        <pt x="355" y="89" on="1"/>
        <pt x="383" y="89" on="0"/>
        <pt x="416" y="92" on="1"/>
        <pt x="416" y="376" on="1"/>
        <pt x="522" y="376" on="1"/>
        <pt x="522" y="6" on="1"/>
        <pt x="463" y="-2" on="0"/>
        <pt x="380" y="-10" on="0"/>
      </contour>
    </TTGlyph>
    <TTGlyph name="Gdotaccent.sc" xMin="36" yMin="-8" xMax="472" yMax="742">
      <contour>
        <pt x="307" y="-8" on="1"/>
        <pt x="168" y="-7" on="0"/>
        <pt x="36" y="138" on="0"/>
        <pt x="36" y="288" on="1"/>
        <pt x="36" y="440" on="0"/>
        <pt x="178" y="584" on="0"/>
        <pt x="329" y="584" on="1"/>
        <pt x="358" y="584" on="0"/>
        <pt x="431" y="576" on="0"/>
        <pt x="467" y="568" on="1"/>
        <pt x="467" y="479" on="1"/>
        <pt x="428" y="487" on="0"/>
        <pt x="366" y="493" on="0"/>
        <pt x="341" y="493" on="1"/>
        <pt x="287" y="493" on="0"/>
        <pt x="214" y="472" on="0"/>
        <pt x="169" y="424" on="0"/>
        <pt x="150" y="345" on="0"/>
        <pt x="150" y="288" on="1"/>
        <pt x="150" y="231" on="0"/>
        <pt x="168" y="153" on="0"/>
        <pt x="208" y="106" on="0"/>
        <pt x="272" y="85" on="0"/>
        <pt x="319" y="85" on="1"/>
        <pt x="326" y="85" on="0"/>
        <pt x="360" y="85" on="0"/>
        <pt x="372" y="87" on="1"/>
        <pt x="372" y="293" on="1"/>
        <pt x="472" y="293" on="1"/>
        <pt x="472" y="7" on="1"/>
        <pt x="419" y="-1" on="0"/>
        <pt x="342" y="-8" on="0"/>
      </contour>
      <contour>
        <pt x="297" y="623" on="1"/>
        <pt x="265" y="623" on="0"/>
        <pt x="235" y="651" on="0"/>
        <pt x="235" y="683" on="1"/>
        <pt x="235" y="715" on="0"/>
        <pt x="265" y="742" on="0"/>
        <pt x="297" y="742" on="1"/>
        <pt x="329" y="742" on="0"/>
        <pt x="360" y="715" on="0"/>
        <pt x="360" y="683" on="1"/>
        <pt x="360" y="651" on="0"/>
        <pt x="329" y="623" on="0"/>
      </contour>
    </TTGlyph>
    <TTGlyph name="H" xMin="65" yMin="0" xMax="581" yMax="740">
      <contour>
        <pt x="65" y="740" on="1"/>
        <pt x="182" y="740" on="1"/>
        <pt x="182" y="428" on="1"/>
        <pt x="465" y="428" on="1"/>
        <pt x="465" y="740" on="1"/>
        <pt x="581" y="740" on="1"/>
        <pt x="581" y="0" on="1"/>
        <pt x="465" y="0" on="1"/>
        <pt x="465" y="328" on="1"/>
        <pt x="182" y="328" on="1"/>
        <pt x="182" y="0" on="1"/>
        <pt x="65" y="0" on="1"/>
      </contour>
    </TTGlyph>
    <TTGlyph name="H.sc" xMin="62" yMin="0" xMax="529" yMax="577">
      <contour>
        <pt x="62" y="577" on="1"/>
        <pt x="172" y="577" on="1"/>
        <pt x="172" y="341" on="1"/>
        <pt x="419" y="341" on="1"/>
        <pt x="419" y="577" on="1"/>
        <pt x="529" y="577" on="1"/>
        <pt x="529" y="0" on="1"/>
        <pt x="419" y="0" on="1"/>
        <pt x="419" y="249" on="1"/>
        <pt x="172" y="249" on="1"/>
        <pt x="172" y="0" on="1"/>
        <pt x="62" y="0" on="1"/>
      </contour>
    </TTGlyph>
    <TTGlyph name="Hbar" xMin="-1" yMin="0" xMax="683" yMax="740">
      <contour>
        <pt x="-1" y="600" on="1"/>
        <pt x="79" y="600" on="1"/>
        <pt x="79" y="740" on="1"/>
        <pt x="196" y="740" on="1"/>
        <pt x="196" y="600" on="1"/>
        <pt x="479" y="600" on="1"/>
        <pt x="479" y="740" on="1"/>
        <pt x="595" y="740" on="1"/>
        <pt x="595" y="600" on="1"/>
        <pt x="683" y="600" on="1"/>
        <pt x="683" y="543" on="1"/>
        <pt x="595" y="543" on="1"/>
        <pt x="595" y="0" on="1"/>
        <pt x="479" y="0" on="1"/>
        <pt x="479" y="328" on="1"/>
        <pt x="196" y="328" on="1"/>
        <pt x="196" y="0" on="1"/>
        <pt x="79" y="0" on="1"/>
        <pt x="79" y="543" on="1"/>
        <pt x="-1" y="543" on="1"/>
      </contour>
      <contour>
        <pt x="479" y="428" on="1"/>
        <pt x="479" y="543" on="1"/>
        <pt x="196" y="543" on="1"/>
        <pt x="196" y="428" on="1"/>
      </contour>
    </TTGlyph>
    <TTGlyph name="Hbar.sc" xMin="5" yMin="0" xMax="615" yMax="577">
      <contour>
        <pt x="5" y="474" on="1"/>
        <pt x="74" y="474" on="1"/>
        <pt x="74" y="577" on="1"/>
        <pt x="184" y="577" on="1"/>
        <pt x="184" y="474" on="1"/>
        <pt x="430" y="474" on="1"/>
        <pt x="430" y="577" on="1"/>
        <pt x="540" y="577" on="1"/>
        <pt x="540" y="474" on="1"/>
        <pt x="615" y="474" on="1"/>
        <pt x="615" y="422" on="1"/>
        <pt x="540" y="422" on="1"/>
        <pt x="540" y="0" on="1"/>
        <pt x="430" y="0" on="1"/>
        <pt x="430" y="249" on="1"/>
        <pt x="184" y="249" on="1"/>
        <pt x="184" y="0" on="1"/>
        <pt x="74" y="0" on="1"/>
        <pt x="74" y="422" on="1"/>
        <pt x="5" y="422" on="1"/>
      </contour>
      <contour>
        <pt x="430" y="341" on="1"/>
        <pt x="430" y="422" on="1"/>
        <pt x="184" y="422" on="1"/>
        <pt x="184" y="341" on="1"/>
      </contour>
    </TTGlyph>
    <TTGlyph name="Hcircumflex" xMin="65" yMin="0" xMax="581" yMax="957">
      <contour>
        <pt x="65" y="740" on="1"/>
        <pt x="182" y="740" on="1"/>
        <pt x="182" y="428" on="1"/>
        <pt x="465" y="428" on="1"/>
        <pt x="465" y="740" on="1"/>
        <pt x="581" y="740" on="1"/>
        <pt x="581" y="0" on="1"/>
        <pt x="465" y="0" on="1"/>
        <pt x="465" y="328" on="1"/>
        <pt x="182" y="328" on="1"/>
        <pt x="182" y="0" on="1"/>
        <pt x="65" y="0" on="1"/>
      </contour>
      <contour>
        <pt x="170" y="886" on="1"/>
        <pt x="317" y="957" on="1"/>
        <pt x="463" y="886" on="1"/>
        <pt x="463" y="802" on="1"/>
        <pt x="317" y="874" on="1"/>
        <pt x="170" y="802" on="1"/>
      </contour>
    </TTGlyph>
    <TTGlyph name="Hcircumflex.sc" xMin="62" yMin="0" xMax="529" yMax="753">
      <contour>
        <pt x="62" y="577" on="1"/>
        <pt x="172" y="577" on="1"/>
        <pt x="172" y="341" on="1"/>
        <pt x="419" y="341" on="1"/>
        <pt x="419" y="577" on="1"/>
        <pt x="529" y="577" on="1"/>
        <pt x="529" y="0" on="1"/>
        <pt x="419" y="0" on="1"/>
        <pt x="419" y="249" on="1"/>
        <pt x="172" y="249" on="1"/>
        <pt x="172" y="0" on="1"/>
        <pt x="62" y="0" on="1"/>
      </contour>
      <contour>
        <pt x="158" y="697" on="1"/>
        <pt x="291" y="753" on="1"/>
        <pt x="424" y="697" on="1"/>
        <pt x="424" y="622" on="1"/>
        <pt x="291" y="678" on="1"/>
        <pt x="158" y="622" on="1"/>
      </contour>
    </TTGlyph>
    <TTGlyph name="Hdotbelow" xMin="65" yMin="-191" xMax="581" yMax="740">
      <contour>
        <pt x="65" y="740" on="1"/>
        <pt x="182" y="740" on="1"/>
        <pt x="182" y="428" on="1"/>
        <pt x="465" y="428" on="1"/>
        <pt x="465" y="740" on="1"/>
        <pt x="581" y="740" on="1"/>
        <pt x="581" y="0" on="1"/>
        <pt x="465" y="0" on="1"/>
        <pt x="465" y="328" on="1"/>
        <pt x="182" y="328" on="1"/>
        <pt x="182" y="0" on="1"/>
        <pt x="65" y="0" on="1"/>
      </contour>
      <contour>
        <pt x="327" y="-191" on="1"/>
        <pt x="298" y="-191" on="0"/>
        <pt x="270" y="-164" on="0"/>
        <pt x="270" y="-134" on="1"/>
        <pt x="270" y="-104" on="0"/>
        <pt x="298" y="-78" on="0"/>
        <pt x="327" y="-78" on="1"/>
        <pt x="356" y="-78" on="0"/>
        <pt x="385" y="-104" on="0"/>
        <pt x="385" y="-134" on="1"/>
        <pt x="385" y="-164" on="0"/>
        <pt x="356" y="-191" on="0"/>
      </contour>
    </TTGlyph>
    <TTGlyph name="Hdotbelow.sc" xMin="62" yMin="-156" xMax="529" yMax="577">
      <contour>
        <pt x="62" y="577" on="1"/>
        <pt x="172" y="577" on="1"/>
        <pt x="172" y="341" on="1"/>
        <pt x="419" y="341" on="1"/>
        <pt x="419" y="577" on="1"/>
        <pt x="529" y="577" on="1"/>
        <pt x="529" y="0" on="1"/>
        <pt x="419" y="0" on="1"/>
        <pt x="419" y="249" on="1"/>
        <pt x="172" y="249" on="1"/>
        <pt x="172" y="0" on="1"/>
        <pt x="62" y="0" on="1"/>
      </contour>
      <contour>
        <pt x="299" y="-156" on="1"/>
        <pt x="271" y="-156" on="0"/>
        <pt x="246" y="-133" on="0"/>
        <pt x="246" y="-107" on="1"/>
        <pt x="246" y="-57" on="0"/>
        <pt x="299" y="-57" on="1"/>
        <pt x="352" y="-57" on="0"/>
        <pt x="352" y="-107" on="1"/>
        <pt x="352" y="-133" on="0"/>
        <pt x="325" y="-156" on="0"/>
      </contour>
    </TTGlyph>
    <TTGlyph name="I" xMin="65" yMin="0" xMax="182" yMax="740">
      <contour>
        <pt x="65" y="740" on="1"/>
        <pt x="182" y="740" on="1"/>
        <pt x="182" y="0" on="1"/>
        <pt x="65" y="0" on="1"/>
      </contour>
    </TTGlyph>
    <TTGlyph name="I.sc" xMin="62" yMin="0" xMax="172" yMax="577">
      <contour>
        <pt x="62" y="577" on="1"/>
        <pt x="172" y="577" on="1"/>
        <pt x="172" y="0" on="1"/>
        <pt x="62" y="0" on="1"/>
      </contour>
    </TTGlyph>
    <TTGlyph name="IJ" xMin="65" yMin="-195" xMax="431" yMax="740">
      <contour>
        <pt x="65" y="740" on="1"/>
        <pt x="182" y="740" on="1"/>
        <pt x="182" y="0" on="1"/>
        <pt x="65" y="0" on="1"/>
      </contour>
      <contour>
        <pt x="235" y="-159" on="1"/>
        <pt x="258" y="-107" on="0"/>
        <pt x="289" y="-23" on="0"/>
        <pt x="307" y="56" on="0"/>
        <pt x="314" y="138" on="0"/>
        <pt x="314" y="189" on="1"/>
        <pt x="314" y="740" on="1"/>
        <pt x="431" y="740" on="1"/>
        <pt x="431" y="180" on="1"/>
        <pt x="431" y="130" on="0"/>
        <pt x="418" y="39" on="0"/>
        <pt x="388" y="-51" on="0"/>
        <pt x="342" y="-144" on="0"/>
        <pt x="309" y="-195" on="1"/>
      </contour>
    </TTGlyph>
    <TTGlyph name="Iacute" xMin="65" yMin="0" xMax="267" yMax="950">
      <contour>
        <pt x="65" y="740" on="1"/>
        <pt x="182" y="740" on="1"/>
        <pt x="182" y="0" on="1"/>
        <pt x="65" y="0" on="1"/>
      </contour>
      <contour>
        <pt x="78" y="794" on="1"/>
        <pt x="149" y="950" on="1"/>
        <pt x="267" y="950" on="1"/>
        <pt x="163" y="787" on="1"/>
      </contour>
    </TTGlyph>
    <TTGlyph name="Iacute.sc" xMin="62" yMin="0" xMax="247" yMax="751">
      <contour>
        <pt x="62" y="577" on="1"/>
        <pt x="172" y="577" on="1"/>
        <pt x="172" y="0" on="1"/>
        <pt x="62" y="0" on="1"/>
      </contour>
      <contour>
        <pt x="74" y="621" on="1"/>
        <pt x="136" y="751" on="1"/>
        <pt x="247" y="751" on="1"/>
        <pt x="153" y="616" on="1"/>
      </contour>
    </TTGlyph>
    <TTGlyph name="Ibreve" xMin="-37" yMin="0" xMax="289" yMax="962">
      <contour>
        <pt x="65" y="740" on="1"/>
        <pt x="182" y="740" on="1"/>
        <pt x="182" y="0" on="1"/>
        <pt x="65" y="0" on="1"/>
      </contour>
      <contour>
        <pt x="126" y="803" on="1"/>
        <pt x="48" y="803" on="0"/>
        <pt x="-37" y="887" on="0"/>
        <pt x="-37" y="962" on="1"/>
        <pt x="45" y="962" on="1"/>
        <pt x="45" y="911" on="0"/>
        <pt x="83" y="863" on="0"/>
        <pt x="126" y="863" on="1"/>
        <pt x="168" y="863" on="0"/>
        <pt x="207" y="911" on="0"/>
        <pt x="207" y="962" on="1"/>
        <pt x="289" y="962" on="1"/>
        <pt x="289" y="888" on="0"/>
        <pt x="204" y="803" on="0"/>
      </contour>
    </TTGlyph>
    <TTGlyph name="Ibreve.sc" xMin="-28" yMin="0" xMax="266" yMax="755">
      <contour>
        <pt x="62" y="577" on="1"/>
        <pt x="172" y="577" on="1"/>
        <pt x="172" y="0" on="1"/>
        <pt x="62" y="0" on="1"/>
      </contour>
      <contour>
        <pt x="120" y="623" on="1"/>
        <pt x="47" y="623" on="0"/>
        <pt x="-28" y="693" on="0"/>
        <pt x="-28" y="755" on="1"/>
        <pt x="48" y="755" on="1"/>
        <pt x="48" y="713" on="0"/>
        <pt x="82" y="677" on="0"/>
        <pt x="120" y="677" on="1"/>
        <pt x="156" y="677" on="0"/>
        <pt x="190" y="713" on="0"/>
        <pt x="190" y="755" on="1"/>
        <pt x="266" y="755" on="1"/>
        <pt x="266" y="694" on="0"/>
        <pt x="191" y="623" on="0"/>
      </contour>
    </TTGlyph>
    <TTGlyph name="Icircumflex" xMin="-22" yMin="0" xMax="271" yMax="957">
      <contour>
        <pt x="65" y="740" on="1"/>
        <pt x="182" y="740" on="1"/>
        <pt x="182" y="0" on="1"/>
        <pt x="65" y="0" on="1"/>
      </contour>
      <contour>
        <pt x="-22" y="886" on="1"/>
        <pt x="125" y="957" on="1"/>
        <pt x="271" y="886" on="1"/>
        <pt x="271" y="802" on="1"/>
        <pt x="125" y="874" on="1"/>
        <pt x="-22" y="802" on="1"/>
      </contour>
    </TTGlyph>
    <TTGlyph name="Icircumflex.sc" xMin="-14" yMin="0" xMax="252" yMax="753">
      <contour>
        <pt x="62" y="577" on="1"/>
        <pt x="172" y="577" on="1"/>
        <pt x="172" y="0" on="1"/>
        <pt x="62" y="0" on="1"/>
      </contour>
      <contour>
        <pt x="-14" y="697" on="1"/>
        <pt x="119" y="753" on="1"/>
        <pt x="252" y="697" on="1"/>
        <pt x="252" y="622" on="1"/>
        <pt x="119" y="678" on="1"/>
        <pt x="-14" y="622" on="1"/>
      </contour>
    </TTGlyph>
    <TTGlyph name="Idblgrave" xMin="-88" yMin="0" xMax="245" yMax="950">
      <contour>
        <pt x="65" y="740" on="1"/>
        <pt x="182" y="740" on="1"/>
        <pt x="182" y="0" on="1"/>
        <pt x="65" y="0" on="1"/>
      </contour>
      <contour>
        <pt x="17" y="787" on="1"/>
        <pt x="-88" y="950" on="1"/>
        <pt x="11" y="950" on="1"/>
        <pt x="82" y="799" on="1"/>
      </contour>
      <contour>
        <pt x="180" y="787" on="1"/>
        <pt x="75" y="950" on="1"/>
        <pt x="174" y="950" on="1"/>
        <pt x="245" y="799" on="1"/>
      </contour>
    </TTGlyph>
    <TTGlyph name="Idblgrave.sc" xMin="-74" yMin="0" xMax="230" yMax="751">
      <contour>
        <pt x="62" y="577" on="1"/>
        <pt x="172" y="577" on="1"/>
        <pt x="172" y="0" on="1"/>
        <pt x="62" y="0" on="1"/>
      </contour>
      <contour>
        <pt x="20" y="615" on="1"/>
        <pt x="-74" y="751" on="1"/>
        <pt x="20" y="751" on="1"/>
        <pt x="82" y="624" on="1"/>
      </contour>
      <contour>
        <pt x="168" y="615" on="1"/>
        <pt x="74" y="751" on="1"/>
        <pt x="168" y="751" on="1"/>
        <pt x="230" y="624" on="1"/>
      </contour>
    </TTGlyph>
    <TTGlyph name="Idieresis" xMin="-51" yMin="0" xMax="300" yMax="936">
      <contour>
        <pt x="65" y="740" on="1"/>
        <pt x="182" y="740" on="1"/>
        <pt x="182" y="0" on="1"/>
        <pt x="65" y="0" on="1"/>
      </contour>
      <contour>
        <pt x="16" y="806" on="1"/>
        <pt x="-18" y="806" on="0"/>
        <pt x="-51" y="837" on="0"/>
        <pt x="-51" y="872" on="1"/>
        <pt x="-51" y="906" on="0"/>
        <pt x="-18" y="936" on="0"/>
        <pt x="16" y="936" on="1"/>
        <pt x="49" y="936" on="0"/>
        <pt x="83" y="906" on="0"/>
        <pt x="83" y="872" on="1"/>
        <pt x="83" y="837" on="0"/>
        <pt x="49" y="806" on="0"/>
      </contour>
      <contour>
        <pt x="232" y="806" on="1"/>
        <pt x="198" y="806" on="0"/>
        <pt x="166" y="837" on="0"/>
        <pt x="166" y="872" on="1"/>
        <pt x="166" y="906" on="0"/>
        <pt x="198" y="936" on="0"/>
        <pt x="232" y="936" on="1"/>
        <pt x="265" y="936" on="0"/>
        <pt x="300" y="906" on="0"/>
        <pt x="300" y="872" on="1"/>
        <pt x="300" y="837" on="0"/>
        <pt x="265" y="806" on="0"/>
      </contour>
    </TTGlyph>
    <TTGlyph name="Idieresis.sc" xMin="-42" yMin="0" xMax="281" yMax="746">
      <contour>
        <pt x="62" y="577" on="1"/>
        <pt x="172" y="577" on="1"/>
        <pt x="172" y="0" on="1"/>
        <pt x="62" y="0" on="1"/>
      </contour>
      <contour>
        <pt x="20" y="627" on="1"/>
        <pt x="-12" y="627" on="0"/>
        <pt x="-42" y="655" on="0"/>
        <pt x="-42" y="687" on="1"/>
        <pt x="-42" y="719" on="0"/>
        <pt x="-12" y="746" on="0"/>
        <pt x="20" y="746" on="1"/>
        <pt x="82" y="746" on="0"/>
        <pt x="82" y="687" on="1"/>
        <pt x="82" y="655" on="0"/>
        <pt x="52" y="627" on="0"/>
      </contour>
      <contour>
        <pt x="217" y="627" on="1"/>
        <pt x="185" y="627" on="0"/>
        <pt x="155" y="655" on="0"/>
        <pt x="155" y="687" on="1"/>
        <pt x="155" y="719" on="0"/>
        <pt x="185" y="746" on="0"/>
        <pt x="217" y="746" on="1"/>
        <pt x="281" y="746" on="0"/>
        <pt x="281" y="687" on="1"/>
        <pt x="281" y="655" on="0"/>
        <pt x="249" y="627" on="0"/>
      </contour>
    </TTGlyph>
    <TTGlyph name="Idotaccent" xMin="58" yMin="0" xMax="192" yMax="929">
      <contour>
        <pt x="65" y="740" on="1"/>
        <pt x="182" y="740" on="1"/>
        <pt x="182" y="0" on="1"/>
        <pt x="65" y="0" on="1"/>
      </contour>
      <contour>
        <pt x="125" y="799" on="1"/>
        <pt x="91" y="799" on="0"/>
        <pt x="58" y="829" on="0"/>
        <pt x="58" y="864" on="1"/>
        <pt x="58" y="899" on="0"/>
        <pt x="91" y="929" on="0"/>
        <pt x="125" y="929" on="1"/>
        <pt x="192" y="929" on="0"/>
        <pt x="192" y="864" on="1"/>
        <pt x="192" y="829" on="0"/>
        <pt x="158" y="799" on="0"/>
      </contour>
    </TTGlyph>
    <TTGlyph name="Idotaccent.sc" xMin="57" yMin="0" xMax="182" yMax="742">
      <contour>
        <pt x="62" y="577" on="1"/>
        <pt x="172" y="577" on="1"/>
        <pt x="172" y="0" on="1"/>
        <pt x="62" y="0" on="1"/>
      </contour>
      <contour>
        <pt x="118" y="623" on="1"/>
        <pt x="86" y="623" on="0"/>
        <pt x="57" y="651" on="0"/>
        <pt x="57" y="683" on="1"/>
        <pt x="57" y="715" on="0"/>
        <pt x="86" y="742" on="0"/>
        <pt x="118" y="742" on="1"/>
        <pt x="150" y="742" on="0"/>
        <pt x="182" y="715" on="0"/>
        <pt x="182" y="683" on="1"/>
        <pt x="182" y="651" on="0"/>
        <pt x="150" y="623" on="0"/>
      </contour>
    </TTGlyph>
    <TTGlyph name="Idotbelow" xMin="65" yMin="-191" xMax="183" yMax="740">
      <contour>
        <pt x="65" y="740" on="1"/>
        <pt x="182" y="740" on="1"/>
        <pt x="182" y="0" on="1"/>
        <pt x="65" y="0" on="1"/>
      </contour>
      <contour>
        <pt x="125" y="-191" on="1"/>
        <pt x="96" y="-191" on="0"/>
        <pt x="68" y="-164" on="0"/>
        <pt x="68" y="-134" on="1"/>
        <pt x="68" y="-104" on="0"/>
        <pt x="96" y="-78" on="0"/>
        <pt x="125" y="-78" on="1"/>
        <pt x="154" y="-78" on="0"/>
        <pt x="183" y="-104" on="0"/>
        <pt x="183" y="-134" on="1"/>
        <pt x="183" y="-164" on="0"/>
        <pt x="154" y="-191" on="0"/>
      </contour>
    </TTGlyph>
    <TTGlyph name="Idotbelow.sc" xMin="62" yMin="-156" xMax="172" yMax="577">
      <contour>
        <pt x="62" y="577" on="1"/>
        <pt x="172" y="577" on="1"/>
        <pt x="172" y="0" on="1"/>
        <pt x="62" y="0" on="1"/>
      </contour>
      <contour>
        <pt x="118" y="-156" on="1"/>
        <pt x="91" y="-156" on="0"/>
        <pt x="66" y="-133" on="0"/>
        <pt x="66" y="-107" on="1"/>
        <pt x="66" y="-57" on="0"/>
        <pt x="118" y="-57" on="1"/>
        <pt x="172" y="-57" on="0"/>
        <pt x="172" y="-107" on="1"/>
        <pt x="172" y="-133" on="0"/>
        <pt x="145" y="-156" on="0"/>
      </contour>
    </TTGlyph>
    <TTGlyph name="Igrave" xMin="-25" yMin="0" xMax="182" yMax="950">
      <contour>
        <pt x="65" y="740" on="1"/>
        <pt x="182" y="740" on="1"/>
        <pt x="182" y="0" on="1"/>
        <pt x="65" y="0" on="1"/>
      </contour>
      <contour>
        <pt x="79" y="787" on="1"/>
        <pt x="-25" y="950" on="1"/>
        <pt x="93" y="950" on="1"/>
        <pt x="164" y="799" on="1"/>
      </contour>
    </TTGlyph>
    <TTGlyph name="Igrave.sc" xMin="-17" yMin="0" xMax="173" yMax="751">
      <contour>
        <pt x="62" y="577" on="1"/>
        <pt x="173" y="577" on="1"/>
        <pt x="173" y="0" on="1"/>
        <pt x="62" y="0" on="1"/>
      </contour>
      <contour>
        <pt x="76" y="616" on="1"/>
        <pt x="-17" y="751" on="1"/>
        <pt x="94" y="751" on="1"/>
        <pt x="156" y="624" on="1"/>
      </contour>
    </TTGlyph>
    <TTGlyph name="Iinvertedbreve" xMin="-37" yMin="0" xMax="289" yMax="972">
      <contour>
        <pt x="65" y="740" on="1"/>
        <pt x="182" y="740" on="1"/>
        <pt x="182" y="0" on="1"/>
        <pt x="65" y="0" on="1"/>
      </contour>
      <contour>
        <pt x="207" y="813" on="1"/>
        <pt x="207" y="865" on="0"/>
        <pt x="168" y="912" on="0"/>
        <pt x="126" y="912" on="1"/>
        <pt x="83" y="912" on="0"/>
        <pt x="45" y="865" on="0"/>
        <pt x="45" y="813" on="1"/>
        <pt x="-37" y="813" on="1"/>
        <pt x="-37" y="888" on="0"/>
        <pt x="48" y="972" on="0"/>
        <pt x="126" y="972" on="1"/>
        <pt x="204" y="972" on="0"/>
        <pt x="289" y="888" on="0"/>
        <pt x="289" y="813" on="1"/>
      </contour>
    </TTGlyph>
    <TTGlyph name="Iinvertedbreve.sc" xMin="-28" yMin="0" xMax="267" yMax="762">
      <contour>
        <pt x="62" y="577" on="1"/>
        <pt x="172" y="577" on="1"/>
        <pt x="172" y="0" on="1"/>
        <pt x="62" y="0" on="1"/>
      </contour>
      <contour>
        <pt x="190" y="631" on="1"/>
        <pt x="190" y="673" on="0"/>
        <pt x="157" y="708" on="0"/>
        <pt x="119" y="708" on="1"/>
        <pt x="81" y="708" on="0"/>
        <pt x="48" y="673" on="0"/>
        <pt x="48" y="631" on="1"/>
        <pt x="-28" y="631" on="1"/>
        <pt x="-28" y="693" on="0"/>
        <pt x="47" y="762" on="0"/>
        <pt x="119" y="762" on="1"/>
        <pt x="191" y="762" on="0"/>
        <pt x="267" y="693" on="0"/>
        <pt x="267" y="631" on="1"/>
      </contour>
    </TTGlyph>
    <TTGlyph name="Imacron" xMin="-19" yMin="0" xMax="259" yMax="919">
      <contour>
        <pt x="65" y="740" on="1"/>
        <pt x="182" y="740" on="1"/>
        <pt x="182" y="0" on="1"/>
        <pt x="65" y="0" on="1"/>
      </contour>
      <contour>
        <pt x="-19" y="919" on="1"/>
        <pt x="259" y="919" on="1"/>
        <pt x="259" y="839" on="1"/>
        <pt x="-19" y="839" on="1"/>
      </contour>
    </TTGlyph>
    <TTGlyph name="Imacron.sc" xMin="-12" yMin="0" xMax="242" yMax="728">
      <contour>
        <pt x="62" y="577" on="1"/>
        <pt x="172" y="577" on="1"/>
        <pt x="172" y="0" on="1"/>
        <pt x="62" y="0" on="1"/>
      </contour>
      <contour>
        <pt x="-12" y="728" on="1"/>
        <pt x="242" y="728" on="1"/>
        <pt x="242" y="654" on="1"/>
        <pt x="-12" y="654" on="1"/>
      </contour>
    </TTGlyph>
    <TTGlyph name="Iogonek" xMin="5" yMin="-220" xMax="182" yMax="740">
      <contour>
        <pt x="65" y="740" on="1"/>
        <pt x="182" y="740" on="1"/>
        <pt x="182" y="-12" on="1"/>
        <pt x="130" y="-32" on="0"/>
        <pt x="83" y="-90" on="0"/>
        <pt x="83" y="-116" on="1"/>
        <pt x="83" y="-149" on="0"/>
        <pt x="124" y="-149" on="1"/>
        <pt x="139" y="-149" on="0"/>
        <pt x="170" y="-142" on="0"/>
        <pt x="182" y="-137" on="1"/>
        <pt x="182" y="-208" on="1"/>
        <pt x="163" y="-214" on="0"/>
        <pt x="131" y="-220" on="0"/>
        <pt x="112" y="-220" on="1"/>
        <pt x="5" y="-220" on="0"/>
        <pt x="5" y="-126" on="1"/>
        <pt x="5" y="-91" on="0"/>
        <pt x="44" y="-30" on="0"/>
        <pt x="88" y="0" on="1"/>
        <pt x="65" y="0" on="1"/>
      </contour>
    </TTGlyph>
    <TTGlyph name="Iogonek.sc" xMin="11" yMin="-172" xMax="173" yMax="577">
      <contour>
        <pt x="63" y="577" on="1"/>
        <pt x="173" y="577" on="1"/>
        <pt x="173" y="-7" on="1"/>
        <pt x="125" y="-25" on="0"/>
        <pt x="84" y="-69" on="0"/>
        <pt x="84" y="-86" on="1"/>
        <pt x="84" y="-107" on="0"/>
        <pt x="120" y="-107" on="1"/>
        <pt x="134" y="-107" on="0"/>
        <pt x="162" y="-102" on="0"/>
        <pt x="173" y="-98" on="1"/>
        <pt x="173" y="-162" on="1"/>
        <pt x="156" y="-167" on="0"/>
        <pt x="126" y="-172" on="0"/>
        <pt x="109" y="-172" on="1"/>
        <pt x="11" y="-172" on="0"/>
        <pt x="11" y="-97" on="1"/>
        <pt x="11" y="-69" on="0"/>
        <pt x="45" y="-24" on="0"/>
        <pt x="82" y="0" on="1"/>
        <pt x="63" y="0" on="1"/>
      </contour>
    </TTGlyph>
    <TTGlyph name="Itilde" xMin="-41" yMin="0" xMax="305" yMax="933">
      <contour>
        <pt x="65" y="740" on="1"/>
        <pt x="182" y="740" on="1"/>
        <pt x="182" y="0" on="1"/>
        <pt x="65" y="0" on="1"/>
      </contour>
      <contour>
        <pt x="-41" y="841" on="1"/>
        <pt x="-18" y="884" on="0"/>
        <pt x="45" y="933" on="0"/>
        <pt x="76" y="933" on="1"/>
        <pt x="95" y="933" on="0"/>
        <pt x="130" y="920" on="0"/>
        <pt x="164" y="905" on="0"/>
        <pt x="197" y="892" on="0"/>
        <pt x="215" y="892" on="1"/>
        <pt x="249" y="892" on="0"/>
        <pt x="280" y="932" on="1"/>
        <pt x="305" y="911" on="1"/>
        <pt x="285" y="865" on="0"/>
        <pt x="222" y="817" on="0"/>
        <pt x="190" y="817" on="1"/>
        <pt x="171" y="817" on="0"/>
        <pt x="137" y="829" on="0"/>
        <pt x="104" y="844" on="0"/>
        <pt x="70" y="857" on="0"/>
        <pt x="52" y="857" on="1"/>
        <pt x="17" y="857" on="0"/>
        <pt x="-18" y="819" on="1"/>
      </contour>
    </TTGlyph>
    <TTGlyph name="Itilde.sc" xMin="-32" yMin="0" xMax="283" yMax="737">
      <contour>
        <pt x="62" y="577" on="1"/>
        <pt x="172" y="577" on="1"/>
        <pt x="172" y="0" on="1"/>
        <pt x="62" y="0" on="1"/>
      </contour>
      <contour>
        <pt x="-32" y="656" on="1"/>
        <pt x="-11" y="695" on="0"/>
        <pt x="46" y="737" on="0"/>
        <pt x="75" y="737" on="1"/>
        <pt x="92" y="737" on="0"/>
        <pt x="124" y="727" on="0"/>
        <pt x="154" y="716" on="0"/>
        <pt x="184" y="706" on="0"/>
        <pt x="201" y="706" on="1"/>
        <pt x="233" y="706" on="0"/>
        <pt x="261" y="737" on="1"/>
        <pt x="283" y="719" on="1"/>
        <pt x="263" y="678" on="0"/>
        <pt x="206" y="636" on="0"/>
        <pt x="177" y="636" on="1"/>
        <pt x="160" y="636" on="0"/>
        <pt x="128" y="646" on="0"/>
        <pt x="98" y="658" on="0"/>
        <pt x="67" y="668" on="0"/>
        <pt x="51" y="668" on="1"/>
        <pt x="18" y="668" on="0"/>
        <pt x="-12" y="638" on="1"/>
      </contour>
    </TTGlyph>
    <TTGlyph name="J" xMin="-12" yMin="-195" xMax="184" yMax="740">
      <contour>
        <pt x="-12" y="-159" on="1"/>
        <pt x="11" y="-107" on="0"/>
        <pt x="42" y="-23" on="0"/>
        <pt x="60" y="56" on="0"/>
        <pt x="67" y="138" on="0"/>
        <pt x="67" y="189" on="1"/>
        <pt x="67" y="740" on="1"/>
        <pt x="184" y="740" on="1"/>
        <pt x="184" y="180" on="1"/>
        <pt x="184" y="130" on="0"/>
        <pt x="171" y="39" on="0"/>
        <pt x="141" y="-51" on="0"/>
        <pt x="95" y="-144" on="0"/>
        <pt x="62" y="-195" on="1"/>
      </contour>
    </TTGlyph>
    <TTGlyph name="J.sc" xMin="-5" yMin="-157" xMax="175" yMax="577">
      <contour>
        <pt x="-5" y="-124" on="1"/>
        <pt x="16" y="-84" on="0"/>
        <pt x="42" y="-19" on="0"/>
        <pt x="58" y="44" on="0"/>
        <pt x="64" y="109" on="0"/>
        <pt x="64" y="150" on="1"/>
        <pt x="64" y="577" on="1"/>
        <pt x="175" y="577" on="1"/>
        <pt x="175" y="140" on="1"/>
        <pt x="175" y="101" on="0"/>
        <pt x="163" y="30" on="0"/>
        <pt x="138" y="-41" on="0"/>
        <pt x="96" y="-115" on="0"/>
        <pt x="66" y="-157" on="1"/>
      </contour>
    </TTGlyph>
    <TTGlyph name="Jcircumflex" xMin="-21" yMin="-195" xMax="272" yMax="957">
      <contour>
        <pt x="-12" y="-159" on="1"/>
        <pt x="11" y="-107" on="0"/>
        <pt x="42" y="-23" on="0"/>
        <pt x="60" y="56" on="0"/>
        <pt x="67" y="138" on="0"/>
        <pt x="67" y="189" on="1"/>
        <pt x="67" y="740" on="1"/>
        <pt x="184" y="740" on="1"/>
        <pt x="184" y="180" on="1"/>
        <pt x="184" y="130" on="0"/>
        <pt x="171" y="39" on="0"/>
        <pt x="141" y="-51" on="0"/>
        <pt x="95" y="-144" on="0"/>
        <pt x="62" y="-195" on="1"/>
      </contour>
      <contour>
        <pt x="-21" y="886" on="1"/>
        <pt x="126" y="957" on="1"/>
        <pt x="272" y="886" on="1"/>
        <pt x="272" y="802" on="1"/>
        <pt x="126" y="874" on="1"/>
        <pt x="-21" y="802" on="1"/>
      </contour>
    </TTGlyph>
    <TTGlyph name="Jcircumflex.sc" xMin="-13" yMin="-157" xMax="253" yMax="753">
      <contour>
        <pt x="-4" y="-124" on="1"/>
        <pt x="16" y="-84" on="0"/>
        <pt x="43" y="-19" on="0"/>
        <pt x="58" y="44" on="0"/>
        <pt x="64" y="109" on="0"/>
        <pt x="64" y="150" on="1"/>
        <pt x="64" y="577" on="1"/>
        <pt x="175" y="577" on="1"/>
        <pt x="175" y="140" on="1"/>
        <pt x="175" y="101" on="0"/>
        <pt x="163" y="30" on="0"/>
        <pt x="138" y="-41" on="0"/>
        <pt x="96" y="-115" on="0"/>
        <pt x="66" y="-157" on="1"/>
      </contour>
      <contour>
        <pt x="-13" y="697" on="1"/>
        <pt x="121" y="753" on="1"/>
        <pt x="253" y="697" on="1"/>
        <pt x="253" y="622" on="1"/>
        <pt x="120" y="678" on="1"/>
        <pt x="-13" y="622" on="1"/>
      </contour>
    </TTGlyph>
    <TTGlyph name="K" xMin="65" yMin="0" xMax="592" yMax="740">
      <contour>
        <pt x="65" y="740" on="1"/>
        <pt x="182" y="740" on="1"/>
        <pt x="182" y="427" on="1"/>
        <pt x="260" y="427" on="1"/>
        <pt x="441" y="740" on="1"/>
        <pt x="572" y="740" on="1"/>
        <pt x="378" y="407" on="1"/>
        <pt x="335" y="380" on="1"/>
        <pt x="335" y="374" on="1"/>
        <pt x="379" y="349" on="1"/>
        <pt x="592" y="0" on="1"/>
        <pt x="461" y="0" on="1"/>
        <pt x="260" y="327" on="1"/>
        <pt x="182" y="327" on="1"/>
        <pt x="182" y="0" on="1"/>
        <pt x="65" y="0" on="1"/>
      </contour>
    </TTGlyph>
    <TTGlyph name="K.sc" xMin="62" yMin="0" xMax="536" yMax="577">
      <contour>
        <pt x="62" y="577" on="1"/>
        <pt x="172" y="577" on="1"/>
        <pt x="172" y="341" on="1"/>
        <pt x="243" y="341" on="1"/>
        <pt x="395" y="577" on="1"/>
        <pt x="519" y="577" on="1"/>
        <pt x="353" y="318" on="1"/>
        <pt x="308" y="296" on="1"/>
        <pt x="308" y="292" on="1"/>
        <pt x="354" y="271" on="1"/>
        <pt x="536" y="0" on="1"/>
        <pt x="414" y="0" on="1"/>
        <pt x="242" y="248" on="1"/>
        <pt x="172" y="248" on="1"/>
        <pt x="172" y="0" on="1"/>
        <pt x="62" y="0" on="1"/>
      </contour>
    </TTGlyph>
    <TTGlyph name="Kcommaaccent" xMin="65" yMin="-220" xMax="592" yMax="740">
      <contour>
        <pt x="250" y="-68" on="1"/>
        <pt x="366" y="-68" on="1"/>
        <pt x="293" y="-220" on="1"/>
        <pt x="204" y="-220" on="1"/>
      </contour>
      <contour>
        <pt x="65" y="740" on="1"/>
        <pt x="182" y="740" on="1"/>
        <pt x="182" y="427" on="1"/>
        <pt x="260" y="427" on="1"/>
        <pt x="441" y="740" on="1"/>
        <pt x="572" y="740" on="1"/>
        <pt x="378" y="407" on="1"/>
        <pt x="335" y="380" on="1"/>
        <pt x="335" y="374" on="1"/>
        <pt x="379" y="349" on="1"/>
        <pt x="592" y="0" on="1"/>
        <pt x="461" y="0" on="1"/>
        <pt x="260" y="327" on="1"/>
        <pt x="182" y="327" on="1"/>
        <pt x="182" y="0" on="1"/>
        <pt x="65" y="0" on="1"/>
      </contour>
    </TTGlyph>
    <TTGlyph name="Kcommaaccent.sc" xMin="62" yMin="-172" xMax="536" yMax="577">
      <contour>
        <pt x="62" y="577" on="1"/>
        <pt x="172" y="577" on="1"/>
        <pt x="172" y="341" on="1"/>
        <pt x="243" y="341" on="1"/>
        <pt x="395" y="577" on="1"/>
        <pt x="519" y="577" on="1"/>
        <pt x="353" y="318" on="1"/>
        <pt x="308" y="296" on="1"/>
        <pt x="308" y="292" on="1"/>
        <pt x="354" y="271" on="1"/>
        <pt x="536" y="0" on="1"/>
        <pt x="414" y="0" on="1"/>
        <pt x="242" y="248" on="1"/>
        <pt x="172" y="248" on="1"/>
        <pt x="172" y="0" on="1"/>
        <pt x="62" y="0" on="1"/>
      </contour>
      <contour>
        <pt x="225" y="-54" on="1"/>
        <pt x="336" y="-54" on="1"/>
        <pt x="269" y="-172" on="1"/>
        <pt x="185" y="-172" on="1"/>
      </contour>
    </TTGlyph>
    <TTGlyph name="L" xMin="65" yMin="0" xMax="422" yMax="740">
      <contour>
        <pt x="65" y="740" on="1"/>
        <pt x="182" y="740" on="1"/>
        <pt x="182" y="99" on="1"/>
        <pt x="422" y="99" on="1"/>
        <pt x="422" y="0" on="1"/>
        <pt x="65" y="0" on="1"/>
      </contour>
    </TTGlyph>
    <TTGlyph name="L.sc" xMin="62" yMin="0" xMax="387" yMax="577">
      <contour>
        <pt x="62" y="577" on="1"/>
        <pt x="172" y="577" on="1"/>
        <pt x="172" y="93" on="1"/>
        <pt x="387" y="93" on="1"/>
        <pt x="387" y="0" on="1"/>
        <pt x="62" y="0" on="1"/>
      </contour>
    </TTGlyph>
    <TTGlyph name="Lacute" xMin="65" yMin="0" xMax="422" yMax="950">
      <contour>
        <pt x="86" y="794" on="1"/>
        <pt x="157" y="950" on="1"/>
        <pt x="275" y="950" on="1"/>
        <pt x="171" y="787" on="1"/>
      </contour>
      <contour>
        <pt x="65" y="740" on="1"/>
        <pt x="182" y="740" on="1"/>
        <pt x="182" y="99" on="1"/>
        <pt x="422" y="99" on="1"/>
        <pt x="422" y="0" on="1"/>
        <pt x="65" y="0" on="1"/>
      </contour>
    </TTGlyph>
    <TTGlyph name="Lacute.sc" xMin="62" yMin="0" xMax="387" yMax="751">
      <contour>
        <pt x="62" y="577" on="1"/>
        <pt x="172" y="577" on="1"/>
        <pt x="172" y="93" on="1"/>
        <pt x="387" y="93" on="1"/>
        <pt x="387" y="0" on="1"/>
        <pt x="62" y="0" on="1"/>
      </contour>
      <contour>
        <pt x="81" y="621" on="1"/>
        <pt x="143" y="751" on="1"/>
        <pt x="254" y="751" on="1"/>
        <pt x="160" y="616" on="1"/>
      </contour>
    </TTGlyph>
    <TTGlyph name="Lcaron" xMin="65" yMin="0" xMax="442" yMax="775">
      <contour>
        <pt x="349" y="775" on="1"/>
        <pt x="442" y="775" on="1"/>
        <pt x="409" y="547" on="1"/>
        <pt x="349" y="547" on="1"/>
      </contour>
      <contour>
        <pt x="65" y="740" on="1"/>
        <pt x="182" y="740" on="1"/>
        <pt x="182" y="99" on="1"/>
        <pt x="422" y="99" on="1"/>
        <pt x="422" y="0" on="1"/>
        <pt x="65" y="0" on="1"/>
      </contour>
    </TTGlyph>
    <TTGlyph name="Lcaron.sc" xMin="63" yMin="0" xMax="407" yMax="612">
      <contour>
        <pt x="63" y="577" on="1"/>
        <pt x="173" y="577" on="1"/>
        <pt x="173" y="93" on="1"/>
        <pt x="388" y="93" on="1"/>
        <pt x="388" y="0" on="1"/>
        <pt x="63" y="0" on="1"/>
      </contour>
      <contour>
        <pt x="320" y="612" on="1"/>
        <pt x="407" y="612" on="1"/>
        <pt x="376" y="435" on="1"/>
        <pt x="320" y="435" on="1"/>
      </contour>
    </TTGlyph>
    <TTGlyph name="Lcommaaccent" xMin="65" yMin="-220" xMax="422" yMax="740">
      <contour>
        <pt x="195" y="-68" on="1"/>
        <pt x="311" y="-68" on="1"/>
        <pt x="238" y="-220" on="1"/>
        <pt x="149" y="-220" on="1"/>
      </contour>
      <contour>
        <pt x="65" y="740" on="1"/>
        <pt x="182" y="740" on="1"/>
        <pt x="182" y="99" on="1"/>
        <pt x="422" y="99" on="1"/>
        <pt x="422" y="0" on="1"/>
        <pt x="65" y="0" on="1"/>
      </contour>
    </TTGlyph>
    <TTGlyph name="Lcommaaccent.sc" xMin="62" yMin="-172" xMax="387" yMax="577">
      <contour>
        <pt x="62" y="577" on="1"/>
        <pt x="172" y="577" on="1"/>
        <pt x="172" y="93" on="1"/>
        <pt x="387" y="93" on="1"/>
        <pt x="387" y="0" on="1"/>
        <pt x="62" y="0" on="1"/>
      </contour>
      <contour>
        <pt x="176" y="-54" on="1"/>
        <pt x="286" y="-54" on="1"/>
        <pt x="221" y="-172" on="1"/>
        <pt x="137" y="-172" on="1"/>
      </contour>
    </TTGlyph>
    <TTGlyph name="Ldot" xMin="65" yMin="0" xMax="422" yMax="740">
      <contour>
        <pt x="65" y="740" on="1"/>
        <pt x="182" y="740" on="1"/>
        <pt x="182" y="99" on="1"/>
        <pt x="422" y="99" on="1"/>
        <pt x="422" y="0" on="1"/>
        <pt x="65" y="0" on="1"/>
      </contour>
      <contour>
        <pt x="343" y="304" on="1"/>
        <pt x="309" y="304" on="0"/>
        <pt x="276" y="335" on="0"/>
        <pt x="276" y="370" on="1"/>
        <pt x="276" y="405" on="0"/>
        <pt x="309" y="436" on="0"/>
        <pt x="343" y="436" on="1"/>
        <pt x="376" y="436" on="0"/>
        <pt x="410" y="405" on="0"/>
        <pt x="410" y="370" on="1"/>
        <pt x="410" y="335" on="0"/>
        <pt x="376" y="304" on="0"/>
      </contour>
    </TTGlyph>
    <TTGlyph name="Ldot.sc" xMin="62" yMin="0" xMax="387" yMax="577">
      <contour>
        <pt x="62" y="577" on="1"/>
        <pt x="172" y="577" on="1"/>
        <pt x="172" y="93" on="1"/>
        <pt x="387" y="93" on="1"/>
        <pt x="387" y="0" on="1"/>
        <pt x="62" y="0" on="1"/>
      </contour>
      <contour>
        <pt x="318" y="230" on="1"/>
        <pt x="286" y="230" on="0"/>
        <pt x="257" y="258" on="0"/>
        <pt x="257" y="290" on="1"/>
        <pt x="257" y="321" on="0"/>
        <pt x="286" y="349" on="0"/>
        <pt x="318" y="349" on="1"/>
        <pt x="350" y="349" on="0"/>
        <pt x="381" y="322" on="0"/>
        <pt x="381" y="290" on="1"/>
        <pt x="381" y="258" on="0"/>
        <pt x="350" y="230" on="0"/>
      </contour>
    </TTGlyph>
    <TTGlyph name="Lslash" xMin="9" yMin="0" xMax="442" yMax="740">
      <contour>
        <pt x="9" y="316" on="1"/>
        <pt x="85" y="370" on="1"/>
        <pt x="85" y="740" on="1"/>
        <pt x="202" y="740" on="1"/>
        <pt x="202" y="453" on="1"/>
        <pt x="301" y="523" on="1"/>
        <pt x="301" y="429" on="1"/>
        <pt x="202" y="359" on="1"/>
        <pt x="202" y="99" on="1"/>
        <pt x="442" y="99" on="1"/>
        <pt x="442" y="0" on="1"/>
        <pt x="85" y="0" on="1"/>
        <pt x="85" y="276" on="1"/>
        <pt x="9" y="223" on="1"/>
      </contour>
    </TTGlyph>
    <TTGlyph name="Lslash.sc" xMin="15" yMin="0" xMax="405" yMax="577">
      <contour>
        <pt x="15" y="259" on="1"/>
        <pt x="80" y="303" on="1"/>
        <pt x="80" y="577" on="1"/>
        <pt x="191" y="577" on="1"/>
        <pt x="191" y="359" on="1"/>
        <pt x="280" y="416" on="1"/>
        <pt x="280" y="332" on="1"/>
        <pt x="191" y="275" on="1"/>
        <pt x="191" y="93" on="1"/>
        <pt x="405" y="93" on="1"/>
        <pt x="405" y="0" on="1"/>
        <pt x="80" y="0" on="1"/>
        <pt x="80" y="219" on="1"/>
        <pt x="15" y="175" on="1"/>
      </contour>
    </TTGlyph>
    <TTGlyph name="M" xMin="65" yMin="0" xMax="766" yMax="740">
      <contour>
        <pt x="65" y="740" on="1"/>
        <pt x="229" y="740" on="1"/>
        <pt x="385" y="291" on="1"/>
        <pt x="412" y="180" on="1"/>
        <pt x="418" y="180" on="1"/>
        <pt x="446" y="291" on="1"/>
        <pt x="602" y="740" on="1"/>
        <pt x="766" y="740" on="1"/>
        <pt x="766" y="0" on="1"/>
        <pt x="656" y="0" on="1"/>
        <pt x="656" y="580" on="1"/>
        <pt x="650" y="580" on="1"/>
        <pt x="617" y="466" on="1"/>
        <pt x="466" y="36" on="1"/>
        <pt x="362" y="36" on="1"/>
        <pt x="212" y="466" on="1"/>
        <pt x="178" y="580" on="1"/>
        <pt x="173" y="580" on="1"/>
        <pt x="173" y="0" on="1"/>
        <pt x="65" y="0" on="1"/>
      </contour>
    </TTGlyph>
    <TTGlyph name="M.sc" xMin="62" yMin="0" xMax="692" yMax="577">
      <contour>
        <pt x="62" y="577" on="1"/>
        <pt x="217" y="577" on="1"/>
        <pt x="351" y="239" on="1"/>
        <pt x="373" y="163" on="1"/>
        <pt x="380" y="163" on="1"/>
        <pt x="403" y="239" on="1"/>
        <pt x="537" y="577" on="1"/>
        <pt x="692" y="577" on="1"/>
        <pt x="692" y="0" on="1"/>
        <pt x="590" y="0" on="1"/>
        <pt x="590" y="439" on="1"/>
        <pt x="583" y="439" on="1"/>
        <pt x="547" y="338" on="1"/>
        <pt x="425" y="29" on="1"/>
        <pt x="328" y="29" on="1"/>
        <pt x="207" y="338" on="1"/>
        <pt x="171" y="439" on="1"/>
        <pt x="165" y="439" on="1"/>
        <pt x="165" y="0" on="1"/>
        <pt x="62" y="0" on="1"/>
      </contour>
    </TTGlyph>
    <TTGlyph name="N" xMin="65" yMin="0" xMax="600" yMax="740">
      <contour>
        <pt x="65" y="740" on="1"/>
        <pt x="167" y="740" on="1"/>
        <pt x="447" y="286" on="1"/>
        <pt x="488" y="204" on="1"/>
        <pt x="495" y="204" on="1"/>
        <pt x="495" y="740" on="1"/>
        <pt x="600" y="740" on="1"/>
        <pt x="600" y="0" on="1"/>
        <pt x="498" y="0" on="1"/>
        <pt x="219" y="454" on="1"/>
        <pt x="177" y="537" on="1"/>
        <pt x="169" y="537" on="1"/>
        <pt x="169" y="0" on="1"/>
        <pt x="65" y="0" on="1"/>
      </contour>
    </TTGlyph>
    <TTGlyph name="N.sc" xMin="62" yMin="0" xMax="542" yMax="577">
      <contour>
        <pt x="62" y="577" on="1"/>
        <pt x="156" y="577" on="1"/>
        <pt x="395" y="243" on="1"/>
        <pt x="436" y="179" on="1"/>
        <pt x="443" y="179" on="1"/>
        <pt x="443" y="577" on="1"/>
        <pt x="542" y="577" on="1"/>
        <pt x="542" y="0" on="1"/>
        <pt x="449" y="0" on="1"/>
        <pt x="210" y="335" on="1"/>
        <pt x="168" y="399" on="1"/>
        <pt x="161" y="400" on="1"/>
        <pt x="161" y="0" on="1"/>
        <pt x="62" y="0" on="1"/>
      </contour>
    </TTGlyph>
    <TTGlyph name="Nacute" xMin="65" yMin="0" xMax="600" yMax="950">
      <contour>
        <pt x="282" y="794" on="1"/>
        <pt x="353" y="950" on="1"/>
        <pt x="471" y="950" on="1"/>
        <pt x="367" y="787" on="1"/>
      </contour>
      <contour>
        <pt x="65" y="740" on="1"/>
        <pt x="167" y="740" on="1"/>
        <pt x="447" y="286" on="1"/>
        <pt x="488" y="204" on="1"/>
        <pt x="495" y="204" on="1"/>
        <pt x="495" y="740" on="1"/>
        <pt x="600" y="740" on="1"/>
        <pt x="600" y="0" on="1"/>
        <pt x="498" y="0" on="1"/>
        <pt x="219" y="454" on="1"/>
        <pt x="177" y="537" on="1"/>
        <pt x="169" y="537" on="1"/>
        <pt x="169" y="0" on="1"/>
        <pt x="65" y="0" on="1"/>
      </contour>
    </TTGlyph>
    <TTGlyph name="Nacute.sc" xMin="62" yMin="0" xMax="542" yMax="751">
      <contour>
        <pt x="62" y="577" on="1"/>
        <pt x="156" y="577" on="1"/>
        <pt x="395" y="243" on="1"/>
        <pt x="436" y="179" on="1"/>
        <pt x="443" y="179" on="1"/>
        <pt x="443" y="577" on="1"/>
        <pt x="542" y="577" on="1"/>
        <pt x="542" y="0" on="1"/>
        <pt x="449" y="0" on="1"/>
        <pt x="210" y="335" on="1"/>
        <pt x="168" y="399" on="1"/>
        <pt x="161" y="400" on="1"/>
        <pt x="161" y="0" on="1"/>
        <pt x="62" y="0" on="1"/>
      </contour>
      <contour>
        <pt x="254" y="621" on="1"/>
        <pt x="316" y="751" on="1"/>
        <pt x="426" y="751" on="1"/>
        <pt x="333" y="616" on="1"/>
      </contour>
    </TTGlyph>
    <TTGlyph name="Ncaron" xMin="65" yMin="0" xMax="600" yMax="948">
      <contour>
        <pt x="190" y="948" on="1"/>
        <pt x="336" y="876" on="1"/>
        <pt x="483" y="948" on="1"/>
        <pt x="483" y="864" on="1"/>
        <pt x="336" y="792" on="1"/>
        <pt x="190" y="864" on="1"/>
      </contour>
      <contour>
        <pt x="65" y="740" on="1"/>
        <pt x="167" y="740" on="1"/>
        <pt x="447" y="286" on="1"/>
        <pt x="488" y="204" on="1"/>
        <pt x="495" y="204" on="1"/>
        <pt x="495" y="740" on="1"/>
        <pt x="600" y="740" on="1"/>
        <pt x="600" y="0" on="1"/>
        <pt x="498" y="0" on="1"/>
        <pt x="219" y="454" on="1"/>
        <pt x="177" y="537" on="1"/>
        <pt x="169" y="537" on="1"/>
        <pt x="169" y="0" on="1"/>
        <pt x="65" y="0" on="1"/>
      </contour>
    </TTGlyph>
    <TTGlyph name="Ncaron.sc" xMin="62" yMin="0" xMax="542" yMax="749">
      <contour>
        <pt x="62" y="577" on="1"/>
        <pt x="156" y="577" on="1"/>
        <pt x="395" y="243" on="1"/>
        <pt x="436" y="179" on="1"/>
        <pt x="443" y="179" on="1"/>
        <pt x="443" y="577" on="1"/>
        <pt x="542" y="577" on="1"/>
        <pt x="542" y="0" on="1"/>
        <pt x="449" y="0" on="1"/>
        <pt x="210" y="335" on="1"/>
        <pt x="168" y="399" on="1"/>
        <pt x="161" y="400" on="1"/>
        <pt x="161" y="0" on="1"/>
        <pt x="62" y="0" on="1"/>
      </contour>
      <contour>
        <pt x="172" y="673" on="1"/>
        <pt x="172" y="749" on="1"/>
        <pt x="305" y="693" on="1"/>
        <pt x="439" y="749" on="1"/>
        <pt x="439" y="673" on="1"/>
        <pt x="306" y="617" on="1"/>
      </contour>
    </TTGlyph>
    <TTGlyph name="Ncommaaccent" xMin="65" yMin="-220" xMax="600" yMax="740">
      <contour>
        <pt x="296" y="-68" on="1"/>
        <pt x="412" y="-68" on="1"/>
        <pt x="339" y="-220" on="1"/>
        <pt x="250" y="-220" on="1"/>
      </contour>
      <contour>
        <pt x="65" y="740" on="1"/>
        <pt x="167" y="740" on="1"/>
        <pt x="447" y="286" on="1"/>
        <pt x="488" y="204" on="1"/>
        <pt x="495" y="204" on="1"/>
        <pt x="495" y="740" on="1"/>
        <pt x="600" y="740" on="1"/>
        <pt x="600" y="0" on="1"/>
        <pt x="498" y="0" on="1"/>
        <pt x="219" y="454" on="1"/>
        <pt x="177" y="537" on="1"/>
        <pt x="169" y="537" on="1"/>
        <pt x="169" y="0" on="1"/>
        <pt x="65" y="0" on="1"/>
      </contour>
    </TTGlyph>
    <TTGlyph name="Ncommaaccent.sc" xMin="62" yMin="-172" xMax="542" yMax="577">
      <contour>
        <pt x="62" y="577" on="1"/>
        <pt x="156" y="577" on="1"/>
        <pt x="395" y="243" on="1"/>
        <pt x="436" y="179" on="1"/>
        <pt x="443" y="179" on="1"/>
        <pt x="443" y="577" on="1"/>
        <pt x="542" y="577" on="1"/>
        <pt x="542" y="0" on="1"/>
        <pt x="449" y="0" on="1"/>
        <pt x="210" y="335" on="1"/>
        <pt x="168" y="399" on="1"/>
        <pt x="161" y="400" on="1"/>
        <pt x="161" y="0" on="1"/>
        <pt x="62" y="0" on="1"/>
      </contour>
      <contour>
        <pt x="264" y="-54" on="1"/>
        <pt x="374" y="-54" on="1"/>
        <pt x="309" y="-172" on="1"/>
        <pt x="224" y="-172" on="1"/>
      </contour>
    </TTGlyph>
    <TTGlyph name="Ndotaccent" xMin="65" yMin="0" xMax="600" yMax="929">
      <contour>
        <pt x="329" y="799" on="1"/>
        <pt x="295" y="799" on="0"/>
        <pt x="262" y="829" on="0"/>
        <pt x="262" y="864" on="1"/>
        <pt x="262" y="899" on="0"/>
        <pt x="295" y="929" on="0"/>
        <pt x="329" y="929" on="1"/>
        <pt x="396" y="929" on="0"/>
        <pt x="396" y="864" on="1"/>
        <pt x="396" y="829" on="0"/>
        <pt x="362" y="799" on="0"/>
      </contour>
      <contour>
        <pt x="65" y="740" on="1"/>
        <pt x="167" y="740" on="1"/>
        <pt x="447" y="286" on="1"/>
        <pt x="488" y="204" on="1"/>
        <pt x="495" y="204" on="1"/>
        <pt x="495" y="740" on="1"/>
        <pt x="600" y="740" on="1"/>
        <pt x="600" y="0" on="1"/>
        <pt x="498" y="0" on="1"/>
        <pt x="219" y="454" on="1"/>
        <pt x="177" y="537" on="1"/>
        <pt x="169" y="537" on="1"/>
        <pt x="169" y="0" on="1"/>
        <pt x="65" y="0" on="1"/>
      </contour>
    </TTGlyph>
    <TTGlyph name="Ndotaccent.sc" xMin="62" yMin="0" xMax="542" yMax="742">
      <contour>
        <pt x="62" y="577" on="1"/>
        <pt x="156" y="577" on="1"/>
        <pt x="395" y="243" on="1"/>
        <pt x="436" y="179" on="1"/>
        <pt x="443" y="179" on="1"/>
        <pt x="443" y="577" on="1"/>
        <pt x="542" y="577" on="1"/>
        <pt x="542" y="0" on="1"/>
        <pt x="449" y="0" on="1"/>
        <pt x="210" y="335" on="1"/>
        <pt x="168" y="399" on="1"/>
        <pt x="161" y="400" on="1"/>
        <pt x="161" y="0" on="1"/>
        <pt x="62" y="0" on="1"/>
      </contour>
      <contour>
        <pt x="299" y="623" on="1"/>
        <pt x="267" y="623" on="0"/>
        <pt x="237" y="651" on="0"/>
        <pt x="237" y="683" on="1"/>
        <pt x="237" y="715" on="0"/>
        <pt x="267" y="742" on="0"/>
        <pt x="299" y="742" on="1"/>
        <pt x="331" y="742" on="0"/>
        <pt x="362" y="715" on="0"/>
        <pt x="362" y="683" on="1"/>
        <pt x="362" y="651" on="0"/>
        <pt x="331" y="623" on="0"/>
      </contour>
    </TTGlyph>
    <TTGlyph name="Ntilde" xMin="65" yMin="0" xMax="600" yMax="933">
      <contour>
        <pt x="164" y="841" on="1"/>
        <pt x="187" y="884" on="0"/>
        <pt x="250" y="933" on="0"/>
        <pt x="281" y="933" on="1"/>
        <pt x="300" y="933" on="0"/>
        <pt x="335" y="920" on="0"/>
        <pt x="369" y="905" on="0"/>
        <pt x="402" y="892" on="0"/>
        <pt x="420" y="892" on="1"/>
        <pt x="454" y="892" on="0"/>
        <pt x="485" y="932" on="1"/>
        <pt x="510" y="911" on="1"/>
        <pt x="490" y="865" on="0"/>
        <pt x="427" y="817" on="0"/>
        <pt x="395" y="817" on="1"/>
        <pt x="376" y="817" on="0"/>
        <pt x="342" y="829" on="0"/>
        <pt x="309" y="844" on="0"/>
        <pt x="275" y="857" on="0"/>
        <pt x="257" y="857" on="1"/>
        <pt x="222" y="857" on="0"/>
        <pt x="187" y="819" on="1"/>
      </contour>
      <contour>
        <pt x="65" y="740" on="1"/>
        <pt x="167" y="740" on="1"/>
        <pt x="447" y="286" on="1"/>
        <pt x="488" y="204" on="1"/>
        <pt x="495" y="204" on="1"/>
        <pt x="495" y="740" on="1"/>
        <pt x="600" y="740" on="1"/>
        <pt x="600" y="0" on="1"/>
        <pt x="498" y="0" on="1"/>
        <pt x="219" y="454" on="1"/>
        <pt x="177" y="537" on="1"/>
        <pt x="169" y="537" on="1"/>
        <pt x="169" y="0" on="1"/>
        <pt x="65" y="0" on="1"/>
      </contour>
    </TTGlyph>
    <TTGlyph name="Ntilde.sc" xMin="62" yMin="0" xMax="542" yMax="737">
      <contour>
        <pt x="149" y="656" on="1"/>
        <pt x="170" y="695" on="0"/>
        <pt x="227" y="737" on="0"/>
        <pt x="256" y="737" on="1"/>
        <pt x="273" y="737" on="0"/>
        <pt x="305" y="727" on="0"/>
        <pt x="335" y="716" on="0"/>
        <pt x="365" y="706" on="0"/>
        <pt x="382" y="706" on="1"/>
        <pt x="414" y="706" on="0"/>
        <pt x="442" y="737" on="1"/>
        <pt x="464" y="719" on="1"/>
        <pt x="444" y="678" on="0"/>
        <pt x="387" y="636" on="0"/>
        <pt x="358" y="636" on="1"/>
        <pt x="341" y="636" on="0"/>
        <pt x="309" y="646" on="0"/>
        <pt x="279" y="658" on="0"/>
        <pt x="248" y="668" on="0"/>
        <pt x="232" y="668" on="1"/>
        <pt x="199" y="668" on="0"/>
        <pt x="169" y="638" on="1"/>
      </contour>
      <contour>
        <pt x="62" y="577" on="1"/>
        <pt x="156" y="577" on="1"/>
        <pt x="395" y="243" on="1"/>
        <pt x="436" y="179" on="1"/>
        <pt x="443" y="179" on="1"/>
        <pt x="443" y="577" on="1"/>
        <pt x="542" y="577" on="1"/>
        <pt x="542" y="0" on="1"/>
        <pt x="449" y="0" on="1"/>
        <pt x="210" y="335" on="1"/>
        <pt x="168" y="399" on="1"/>
        <pt x="161" y="400" on="1"/>
        <pt x="161" y="0" on="1"/>
        <pt x="62" y="0" on="1"/>
      </contour>
    </TTGlyph>
    <TTGlyph name="O" xMin="37" yMin="-10" xMax="601" yMax="750">
      <contour>
        <pt x="319" y="-10" on="1"/>
        <pt x="176" y="-10" on="0"/>
        <pt x="37" y="177" on="0"/>
        <pt x="37" y="369" on="1"/>
        <pt x="37" y="562" on="0"/>
        <pt x="176" y="750" on="0"/>
        <pt x="319" y="750" on="1"/>
        <pt x="462" y="750" on="0"/>
        <pt x="601" y="563" on="0"/>
        <pt x="601" y="369" on="1"/>
        <pt x="601" y="177" on="0"/>
        <pt x="462" y="-10" on="0"/>
      </contour>
      <contour>
        <pt x="319" y="88" on="1"/>
        <pt x="363" y="88" on="0"/>
        <pt x="425" y="119" on="0"/>
        <pt x="464" y="186" on="0"/>
        <pt x="482" y="293" on="0"/>
        <pt x="482" y="369" on="1"/>
        <pt x="482" y="445" on="0"/>
        <pt x="464" y="552" on="0"/>
        <pt x="424" y="620" on="0"/>
        <pt x="362" y="652" on="0"/>
        <pt x="319" y="652" on="1"/>
        <pt x="275" y="652" on="0"/>
        <pt x="214" y="621" on="0"/>
        <pt x="174" y="553" on="0"/>
        <pt x="156" y="445" on="0"/>
        <pt x="156" y="369" on="1"/>
        <pt x="156" y="294" on="0"/>
        <pt x="174" y="187" on="0"/>
        <pt x="213" y="119" on="0"/>
        <pt x="275" y="88" on="0"/>
      </contour>
    </TTGlyph>
</ttFont>
